<svg viewBox="0 0 140 140" height="140" width="140" xmlns="http://www.w3.org/2000/svg"><g transform="matrix(0.7,0,0,0.7,0,0)"><path d="M66.991,134.5c1.309-4.816-6.575-12.917-6.575-11.794a25.288,25.288,0,0,1-2.477,5.1,11.944,11.944,0,0,1-3.066,3.214c.737,10.614-.413,14.211-.885,14.919-.059.088-.616.759-.236.943,5.328,2.583,2.447,4.865,2,4.836.177.383.354,2.063-1,1.592-.767-.266-1.475.914-2.153.472.03.147-.147.294-.295.324s-1.726,0-2.388-2.329c-.521-1.831.592-5.131.56-5.278-.109-.5-1.96-9.376-1.916-15.686.006-.825-.118-1.71-.118-2.565a6.516,6.516,0,0,0-.3-2.8c-.663-1.409-.855-4.069-1.179-4.334-.678.8-4.929,1.955-7.873.472-1.919-.967-4.1-2.715-6.073-3.509-6.046-2.427-13.469-.7-18.782,3.273a37.151,37.151,0,0,0-6.988,7.194c-.206.266-1.15,1.238-.5,1.415.3.059,1.652-.971,1.976-1.12a49.094,49.094,0,0,1,7.223-1.622,26.287,26.287,0,0,1,13.209,1.3c2.918,1.064,11.147,5.8,12.767,6.34a32.432,32.432,0,0,0,4.6.8c.473.084.413.765,0,.884-4.877,1.409-11.473-4.36-15.98-6.427a27.736,27.736,0,0,0-14.329-2.182,7.293,7.293,0,0,0-2.713,6.457c.614,3.038,4.656,4.49,5.926,4.924,2.56.873,5.193,1.555,7.666,2.594,2.51,1.054,9.99,4.976,6.045,8.2a15.748,15.748,0,0,1-7.932,3.066c1.828.118,12.416-.4,19.2-2.653.442-.147.766.559.324.737-13.393,5.378-24.354,2.418-25.976,1.946-.059,0-.118,0-.147-.03.354.03,2.644,2.664,3.155,3.155,7.532,7.24,21.734,9.113,32.079,1.917a47.045,47.045,0,0,0,11.41-11.971C65.339,146.18,66.486,136.36,66.991,134.5ZM65.4,138.543c-1.338,3.516-4.74,6.088-8.019,7.637-.442.208-.823-.438-.384-.649,3.411-1.641,5.455-4.364,7.666-7.283C64.9,137.894,65.578,138.072,65.4,138.543Z" fill="#2a9d8f"></path><path d="M73.448,93.049a2.664,2.664,0,0,0-.059.973.415.415,0,0,0,.8,0,2.265,2.265,0,0,0,0-.973A.369.369,0,0,0,73.448,93.049Z" fill="#023047"></path><path d="M73.507,92.459c.235-.236.678-.324.825-.619.172-.343-.3-.576-.8-.3a2.417,2.417,0,0,0-.5.472C72.739,92.379,73.159,92.737,73.507,92.459Z" fill="#023047"></path><path d="M75.187,96.086a.877.877,0,0,0,1.474-.531,5.572,5.572,0,0,0-.56-2.772.3.3,0,0,0-.5.148,22.022,22.022,0,0,0,.206,2.447c-.08.326-.177.324-.471.324C75.04,95.643,75.012,95.965,75.187,96.086Z" fill="#023047"></path><path d="M73.182,97.3c.6,1.07,1.976.471,1.976,0a.3.3,0,0,0-.3-.3c-.206-.03-.708.5-1.15-.089C73.507,96.557,73,96.973,73.182,97.3Z" fill="#023047"></path><path d="M77.163,91.81c.014,1.711.507,3.3-.089,4.954a3.635,3.635,0,0,1-4.128,2.477.378.378,0,0,0-.176.707c1.621,1.032,3.767-.269,4.658-1.71a7.334,7.334,0,0,0,.177-6.545A.243.243,0,0,0,77.163,91.81Z" fill="#023047"></path><path d="M85.743,112.214c-.147-.384-.911-.208-.8.206a10.793,10.793,0,0,1-1.681,9.14A.427.427,0,0,0,83,121.8c-1.9,3.582-.578,12.142.412,14.094a.273.273,0,0,0,.5-.148c-.059-2.3-1.828-8.02-.3-13.563C84.917,120.853,87.49,116.781,85.743,112.214Z" fill="#023047"></path><path d="M81.32,121.5a7.606,7.606,0,0,1-4.246-.147c-.059-.177-.321-.41-.472-.266-2.485,2.383-6.845,1.4-8.285.944a.263.263,0,0,0-.206.472c2.244,1.341,6.4,1.651,8.491-.354a5.578,5.578,0,0,0,4.895.059A.379.379,0,0,0,81.32,121.5Z" fill="#023047"></path><path d="M80.966,92.371c1.563-1.121-1.533-2-1.209-3.715a2.578,2.578,0,0,0,.148-2.86,3.677,3.677,0,0,0-4.217-1.445c-2.3.614-3.745,2.768-5.955,3.568-1.623.587-3.089.8-3.627,2.653-.582,2.007.493,3.9,1.3,5.661,1.548,3.4.118,7.519.118,7.548a6.02,6.02,0,0,0-3.066,1.327.318.318,0,0,0,.3.531c1.067-.24,2.1-.71,3.155-1.062a.439.439,0,0,0,.147-.737,7.126,7.126,0,0,0,1.061-4.776c.325-.944.711-1.886,1.121-2.8a.529.529,0,0,0-.207-.738q-1.371-.752.089-1.857c.866-.144,1.241.269,1.622-.206a8.266,8.266,0,0,1,1.533-2.33c.737-.47,1.887.234,2.683.266,1.925.075,2.647-1.089,4.01.059-.059.088-.8.825-.737,1.326s.442.413.589.708c.236.413-.147.678-.177,1.209a.211.211,0,0,0,.413.059c.144-.561.944-.914.649-1.592-.03-.089-.354-.354-.325-.354C80.465,92.636,80.7,92.607,80.966,92.371Z" fill="#023047"></path><path d="M77.959,104.725a9.413,9.413,0,0,0-2.447-.855,4.249,4.249,0,0,1-.62-2.654c.052-.355-.531-.354-.56,0-.089,1.091-.206,2.654.649,3.509a.365.365,0,0,0,.5,0,9.216,9.216,0,0,0,2.182.707C77.989,105.407,78.222,104.962,77.959,104.725Z" fill="#023047"></path><path d="M95.767,93.2c.208-.353-.3-.829-.619-.472-4.124,4.61-3.921,11.912-3.273,14.006a5.88,5.88,0,0,0-7.489-.3,5.568,5.568,0,0,0-1.916-.177c-.324.032-.412.524-.089.56,1.36.15,3.009,1.2,3.627,1.268a.309.309,0,0,0,.265-.472,2.643,2.643,0,0,0-1.091-.884c4.836-1.445,6.524,2.056,7.548,3.066a.418.418,0,0,0,.708-.3,3.541,3.541,0,0,0-.678-1.857C92.789,105.078,92.222,99.224,95.767,93.2Z" fill="#023047"></path><path d="M98.716,94.051c.006-.236-.409-.324-.443-.059-.42,3.31-.855,16.747-.294,19.932-3.539,3.39-7.071,3.239-8.728,3.6-.441.095-.383.707,0,.855,2.949.943,7.843-1.239,9.347-3.951a.5.5,0,0,0,.383-.472C99.158,112.3,98.568,99.9,98.716,94.051Z" fill="#023047"></path><path d="M75.246,110.032c-1.233-.879-2.43.4-1.592,1.179a1.476,1.476,0,0,0,1.622.118A.77.77,0,0,0,75.246,110.032Z" fill="#2a9d8f"></path><path d="M82.057,106.11c-.943-.177-3.036-1.651-3.184-1.12-.353,1.268-3.45,3.332-4.069,3.774a1.878,1.878,0,0,1,1.268,3.243c.147-.059,4.806-2.742,6.015-5.838A.1.1,0,0,0,82.057,106.11Z" fill="#2a9d8f"></path><path d="M73.713,109.177h0c-3.184-.384-10.172-3.744-10.231-3.774a2.63,2.63,0,0,0-2.123-.03,27.6,27.6,0,0,0-3.214,1.032c-.737.442,9.022,4.983,15.656,5.956C73.241,112.214,71.236,110.238,73.713,109.177Z" fill="#2a9d8f"></path><path d="M60.976,122.563a6.181,6.181,0,0,0,.088-2.742c1.976-.5,4.172-2.83,3.981-4.954-.032-.353-.645-.589-.708-.206-.415,2.511-2.8,4.069-3.686,4.658-.059.03-.294.266-.294.354-.531,6.339-5.455,10.88-5.455,10.88-.236-.059-.554.087-.5.383,1.2,6.758-.3,12.855-.767,15.391a2.478,2.478,0,0,1-3.243-.531c-.206-3.39-1.813-13.733-1.651-20.049,0-.166-4.38-14.079,8.845-18.074.5-.151.442-.986-.118-.943-11.167.839-11.853,15.656-9.405,18.928-.855,7.254,2.005,20.9,2.152,21.082a8.037,8.037,0,0,0-.324,6.1c.509,1.235,2.034,2.241,3.155,1.327a1.514,1.514,0,0,0,1.71-.207,1.452,1.452,0,0,0,1.5-.648.321.321,0,0,0,.295-.207,1.487,1.487,0,0,0-.206-.943c.059,0,1.654-.945.619-3.509a3.545,3.545,0,0,0-2.742-1.8A31.753,31.753,0,0,0,55.315,131h.029a12.219,12.219,0,0,0,5.514-7.754,17.381,17.381,0,0,1,6.133,11.145.353.353,0,0,0,.678,0C68.232,132.116,66.253,125.423,60.976,122.563ZM56.052,151.31a4.554,4.554,0,0,1-.118-.885.228.228,0,0,0-.442-.059,3.431,3.431,0,0,0,.147,2.477,1.969,1.969,0,0,1-.707.206.833.833,0,0,1-.738-.825.251.251,0,0,0-.5,0A1.839,1.839,0,0,0,53.9,153.4c-.9.149-.957-.738-1.386-1.15a.213.213,0,0,0-.354.089,1.768,1.768,0,0,0,.265,1.238c-1.8.708-2.24-2.182-2.24-3.391a11.9,11.9,0,0,1,.471-3.066,2.713,2.713,0,0,0,3.067.059C57.054,148.833,56.406,150.4,56.052,151.31Z" fill="#023047"></path><path d="M53.988,43.338c2.8,1.327,7.194,3.3,9.877,4.865,0-.029.133-6.6.207-9.877.036-1.622.206-5.514-.089-5.779-.206-.206-9.728-4.591-10.083-4.511C53.46,28.135,53.988,43.338,53.988,43.338Z" fill="#2a9d8f"></path><path d="M62.833,72.646a12.839,12.839,0,0,1-1.5.088,1.823,1.823,0,0,0,.943-1.061.344.344,0,0,0-.5-.384A4.34,4.34,0,0,1,59.3,72.351c-5.57-2.089-4.708-14.078-1.386-14.094a.34.34,0,0,0,.177-.619c-1.474-.737-2.677.71-3.125,2.005a15.373,15.373,0,0,0-.56,7.43c.664,3.624,4.43,8.2,8.55,6.4C63.338,73.3,63.335,72.587,62.833,72.646Z" fill="#023047"></path><path d="M58.411,63.24c-1.159.337-1.03,3.971.029,4.511a.973.973,0,0,0,1.3-.5C60.574,65.466,59.471,62.932,58.411,63.24Z" fill="#023047"></path><path d="M125.753,111.211a7.556,7.556,0,0,1-3.45.413c.944-.56,3.47-4.187,1.3-11.823-.084-.3-.646-.148-.589.147,1.378,7.155,0,11.47-2.271,11.293-6.79-2.506-8.882-14.116-4.127-18.723a.211.211,0,0,0-.266-.324c-4.363,2.771-3.687,10.055-1.975,14.152,1.737,4.158,7.16,8.867,11.735,5.72C126.525,111.779,126.288,111.016,125.753,111.211Z" fill="#023047"></path><path d="M119.8,99.653a.969.969,0,0,0-1.238-.177c-1.28.693-.951,4.26.353,4.836.677.3,1.3-.145,1.593-.973A4.67,4.67,0,0,0,119.8,99.653Z" fill="#023047"></path><path d="M66.637,49.442c.088.147,8.284,4.544,9.022,4.658.589.091,1.622-15.361,1.533-15.42-.766-.384-9.907-5.042-10.2-5.042C66.578,33.7,66.43,49.176,66.637,49.442Z" fill="#2a9d8f"></path><path d="M109.242,73.235c.294-.442,2.417-18.044,2.417-18.162C108.976,54.4,97.1,48.945,96.77,49.088c-.352.153-1.569,17.4-1.327,17.838C95.558,67.134,109.212,73.294,109.242,73.235Z" fill="#2a9d8f"></path><path d="M161.193,83.555c-.03-1.769-1.757-7.93-6.605-10.084a.411.411,0,0,0-.412.708c5.356,4.39,5.454,9.169,5.513,9.759-1.68.737-1.533,3.155-1.533,3.951a23.193,23.193,0,0,0,.03,2.831c.42,3.352,4.141,3.132,4.864-.3C163.331,89.1,163.2,84.056,161.193,83.555Z" fill="#2a9d8f"></path><path d="M193.419,65.658c-.086-.973-.027-2.876-1.326-3.037a1.515,1.515,0,0,0-.856.177c-.589-3.273-4.54-6.339-7.754-6.015-1.958-7.311-6.833-9.317-13.386-11.941C140.671,33.056,89.329,13.442,61.713,5.009c-.384-.117-4.364,1-6.133,1.326-2.212.41-14.653,3.952-18.044,6.192-3.037,2.006-4.354,4.984-4.6,8.551-.312,4.541.619,24.3,1.356,29.513,0,.089,11.676,10.32,18.281,13.681.206.089,1.209.118,1.12-.236-.029-.088-1.48-4.162.767-6.9,1.794-2.186,4.188.264,5.248,2.005A20.474,20.474,0,0,1,62.391,71.23c-.036.619,36.862,21.61,48.148,28.748.291.183,1.386.383,1.179-.413-2.374-6.836,5.93-11.59,10.585-5.248,5.969,8.131,3.788,14.329,4.246,17.248a.443.443,0,0,0,.8.118c4.039,2.624,22.438,13.12,24.354,14a.715.715,0,0,0,.885.088c4.641-2.792,30.323-19.079,30.781-21.553.941-5.077,3.067-24.707.413-46.29,4.334.885,5.631,4.511,6.192,5.926a19.314,19.314,0,0,0-1.327,1.622c-.177.206.147,5.13.177,7.135a.745.745,0,0,0,.943.708C192.968,72.15,193.691,68.724,193.419,65.658ZM83.649,82.228c.5-6.074,2.369-33.761,2.035-36.855-.058-.531-.869-.741-1-.148C84.025,48.13,83.148,75.8,83.03,81.874c-1.681-1-3.361-2-5.012-3.007,1.474-12.59,1.916-25.357,2.742-38.005,1.533,1.032,9.848,4.953,10.791,5.307-.56,3.007-3.066,37.651-2.889,39.125C88.632,85.206,85.271,83.172,83.649,82.228Zm59.47,37.091c-.855-.5-4.629-2.771-5.69-3.42,1.238-7.459,2.7-44.313,2.565-46.025-.034-.442-.74-.62-.855-.118-.364,1.59-1.681,38.182-2.33,45.76-1.592-.973-3.154-1.946-4.776-2.89.206-1.621.3-18.87,2.889-47.853,1.681.737,9.819,5.809,11.912,6.31C146.539,72.852,143.149,117.314,143.119,119.319Zm40.394-30.958a32.517,32.517,0,0,1-26.3,15.479.339.339,0,0,0,0,.678c5.69.5,15.8-.973,26.064-12.973-.325,3.98-.708,7.931-1.062,11.941-3.951,5.927-28.393,20.02-29.425,20.639,2.78-8.113,2.538-20.371,1.533-28.924-.6-5.132-1.216-10.259-2-15.361-.624-4.039-1.177-8.316-2.742-12.148-1.06-2.595-2.27-4.865-5.572-6.339C131.71,55.867,91.418,35.985,43.7,16.124c-.293-.122-.528.288-.236.413,13.746,5.905,99.952,46.084,100.04,46.084a11.373,11.373,0,0,1,5.013,6.074,59.184,59.184,0,0,1,2.447,11.2c1.5,9.524,2.969,19.283,2.771,28.953-.168,8.259-1.138,11.108-1.857,15.627-1.533-1.032-6.752-4.069-7.784-4.658.472-1.858,3.884-47.326,3.568-49.357-.028-.177-11.263-6.4-12.708-6.664a.634.634,0,0,0-1.15.148c-.809,3.954-2.654,46.585-2.595,48.148-1.09-.619-2.181-1.239-3.3-1.828a14.994,14.994,0,0,0,.177-4.187c-.265-5.1-2.564-11.866-6.722-14.86a7.121,7.121,0,0,0-8.669.147,6.584,6.584,0,0,0-1.68,7.99S93.291,87.978,89.664,85.8c.383-1.534,2.8-36.561,2.889-39.952.059-.118-.088-.707-.235-.766-1.327-1.356-9.465-4.482-11.5-5.4a.7.7,0,0,0-1.327.295c-.621,12.8-1.917,25.622-2.064,38.448-3.066-1.828-13.445-7.873-13.5-7.9a20.1,20.1,0,0,0-1.032-8.167c-.82-2.39-2.069-5.182-4.216-6.693-3.493-2.46-7.792,1.044-6.251,6.781-2.388-1.386-4.776-2.771-7.076-4.3.236-5.13,1.638-29.368,1.356-32.2-.055-.561-.961-.8-1.061-.148-.575,3.71-1.076,26.363-.914,31.932-.265-.177-2.536-1.8-3.42-2.477.56-5.425.029-27.42.236-32.934,1.326.825,7.312,3.951,8.874,4.275-.53,5.366-1.556,29.987-1.356,32.787a.561.561,0,0,0,1.121,0c.408-3.177,1.277-33.12.943-33.524-1.067-1.292-7.99-4.1-9.582-4.482a.664.664,0,0,0-1.3.177c-.2,5.749.089,27.834.3,33.111-1.857-1.444-5.6-4.54-5.661-4.57-.265-5.4-1.678-28.333-.236-32.02,1.891-4.834,7.641-6.68,12-8.137C49.1,9.114,59.62,5.952,62.421,6.247c10.968,3.98,107.636,38.523,114.752,43.43a11.065,11.065,0,0,1,3.362,3.774c-9.465,9.937-21.086,13.13-26.123,14.271-.384.087-.207.617.147.56,5.244-.85,14.359-2.241,26.624-13.533a18.767,18.767,0,0,1,1.091,3.449c-7.164,6.988-18.517,11.673-22.85,13a.322.322,0,0,0,.177.619c4.5-1.06,17.4-6.486,23-12.029C183.866,67.132,183.6,86.857,183.513,88.361Z" fill="#2a9d8f"></path><path d="M172.22,106.612c1.091,1.179,2.211-.413,2.359-1.032.059-.177.472-1.887-.885-2.448a1.262,1.262,0,0,0-1.621.914A4,4,0,0,0,172.22,106.612Z" fill="#2a9d8f"></path><path d="M172.692,71.289a.444.444,0,0,0-.855.236c2.063,7.954.672,16.806.472,20.109-.031.5.707.56.855.117C174.225,88.567,174.625,78.218,172.692,71.289Z" fill="#2a9d8f"></path><path d="M128.023,82.493c.474-.078,1.887-15.951,2.211-19.194,0-.147-13.975-5.9-14.152-6.044-.265.56-2.477,18.221-2.447,18.251C113.605,75.506,127.817,82.527,128.023,82.493Z" fill="#2a9d8f"></path><path d="M72.917,127.87a2.431,2.431,0,0,0,2.978-.177c.177-.206,0-.621-.3-.531a3.629,3.629,0,0,1-2.477.266C72.858,127.31,72.711,127.722,72.917,127.87Z" fill="#023047"></path><path d="M78.7,127.457a1.723,1.723,0,0,0,1.975-.59c.178-.294-.177-.589-.471-.471a2.724,2.724,0,0,1-1.445.471C78.43,126.844,78.371,127.372,78.7,127.457Z" fill="#023047"></path><path d="M73.566,132.086a2.012,2.012,0,0,0,2.771.118c.181-.2,0-.648-.3-.531a1.774,1.774,0,0,1-1.975-.088C73.713,131.319,73.245,131.787,73.566,132.086Z" fill="#023047"></path><path d="M78.342,132.2c.87.567,2.386.589,2.831-.531.117-.3-.266-.471-.472-.354-.678.3-1.265.672-2,.266A.357.357,0,0,0,78.342,132.2Z" fill="#023047"></path><path d="M75.217,188.372c.766.825,4.126.294,4.186-.118,1.257-8.5,4.836-47.264,4.718-51.539a.462.462,0,0,0-.56-.59c-1.327.384-9.2,3.45-16.276-1.12a.344.344,0,0,0-.648.059c-2.6,10.519-4.24,22.463-7.548,38.624-.918,4.481-3.422,8.787-3.067,13.327.118,1.5,4.119,2.224,4.924,1.8.375-.2,16.122-40.025,16.512-41.16.206-.442.617-1.473,1.12-1,.411.385-.258,1.566-.413,1.946-.423,1.04-3.685,8.7-4.069,10.5A217.647,217.647,0,0,0,75.217,188.372Z" fill="#023047"></path><path d="M60.416,189.787c-1.092-.142-2.036-.583-3.067-.8-.413-.086-.855.472-.442.8a5.452,5.452,0,0,0,2.329.973,11.783,11.783,0,0,1-6.162,3.037c-.343.045-.543.12-.413-.089.207-.5,3.112-3.407,3.922-4.452.18-.233-.059-.649-.325-.442-.855.59-6.836,5.382-4.3,6.133,1.269.376,6.693-1.327,8.9-4.187A.605.605,0,0,0,60.416,189.787Z" fill="#023047"></path><path d="M86.008,190.819a21.283,21.283,0,0,1-5.543-2c-.416-.29-.854.5-.5.825a17.557,17.557,0,0,0,4.57,2c-.59.354-6.192-.088-7.7,0-.029-.059-1.68-1-.707-2.476.118-.207,0-.437-.236-.384-.734.165-.978,1.209-1,1.828a1.446,1.446,0,0,0,1.593,1.563c1.887.531,9.81.877,10.643.03C87.83,191.491,86.659,190.954,86.008,190.819Z" fill="#023047"></path></g></svg>