<svg viewBox="0 0 140 140" height="140" width="140" xmlns="http://www.w3.org/2000/svg"><g transform="matrix(0.7,0,0,0.7,0,0)"><path d="M138.749,33.294c.464,0,.928-.812,1.044-1.044A3.929,3.929,0,0,0,140.141,29c-.116-.232-1.044.928-1.392,1.624a4.479,4.479,0,0,0-.348,2.436C138.4,33.294,138.517,33.294,138.749,33.294Z" fill="#2a9d8f"></path><path d="M144.2,33.41c-1.042,1.738.655,1.665,1.508.812.116-.116,1.392-2.088,1.16-2.088h-.116a2.633,2.633,0,0,0-2.32.928A1.669,1.669,0,0,1,144.2,33.41Z" fill="#2a9d8f"></path><path d="M156.5,30.394c-.638-8.7-9.27-15.967-17.981-13.689-4.519,1.182-7.935,4.854-9.629,9.049-2.146,5.313-1.02,9.665,1.044,14.733a9.074,9.074,0,0,1,.464,5.22c-.458,2.446-2.415,5.709.812,8.353,3.32,2.72,8.929,1.516,11.717-4.524.928-1.74,1.4-2.775,3.248-3.6C153.009,42.906,156.942,36.448,156.5,30.394Zm-20.069-9.861a12.846,12.846,0,0,1,4.64-1.508c1.16-.232,2.9-.464,3.944.464.348.348.116.928-.348,1.16a3.873,3.873,0,0,1-1.972-.116,10.691,10.691,0,0,0-5.684,1.16C136.313,21.809,135.733,20.881,136.429,20.533Zm17.4,14.617c-.464.348-.812.813-1.276,1.161a3.212,3.212,0,0,1-.116,1.044.83.83,0,0,1-1.044.58c-.232,0-.348-.116-.464-.348-5.337,4.756-10.673,9.4-16.01,14.153a.639.639,0,0,1-1.276,0c.267-4.394-.225-22.854-.348-22.854-.348,0-.812-.58,0-1.16V26.8c0-.58.812-.58.928,0v.232a8.122,8.122,0,0,1,4.409-1.16,2.847,2.847,0,0,1,1.972,1.276c3.095-1.032,6.909.143,7.773,3.6a8.614,8.614,0,0,1,2.2,1.392,4.888,4.888,0,0,1,1.624,2.668c.232-.232.464-.348.7-.58C153.482,33.758,154.41,34.57,153.83,35.15Z" fill="#2a9d8f"></path><path d="M148.378,32.714v.116a6.137,6.137,0,0,1-2.553,3.365c-1.392.58-3.435.46-3.6-1.393a4.321,4.321,0,0,1,3.48-4.292h1.161c-.624-1.4-2.878-2.616-5.453-1.972.7,1.972.116,5.1-1.972,6.032-1.772.665-2.915-.876-2.2-3.364a4.8,4.8,0,0,1,2.32-3.248,2.769,2.769,0,0,0-2.668-.348,7.412,7.412,0,0,0-1.624.58c-.232.116-.581.232-.813.348.047.555.405,17.837.581,22.042,8.364-7.32,8.487-7.905,15.893-14.385C150.693,35.958,150.319,33.684,148.378,32.714Z" fill="#2a9d8f"></path><path d="M74.827,64.733c.929,0,1.625-1.044,1.741-2.436s-.7-2.553-1.625-2.553-1.624,1.045-1.74,2.437C73.2,63.573,73.9,64.733,74.827,64.733Z" fill="#023047"></path><path d="M89.329,64.269c.928,0,1.624-1.044,1.74-2.436,0-1.392-.7-2.553-1.624-2.553s-1.625,1.045-1.74,2.437A2.218,2.218,0,0,0,89.329,64.269Z" fill="#023047"></path><path d="M74.943,55.22c1.448.411,2.4,2.294,3.365.928.664-.938-.728-1.862-1.856-2.088-2.306-.461-4.183.981-4.061,1.276S74.036,54.963,74.943,55.22Z" fill="#023047"></path><path d="M89.909,54.988c.051-.294-.186-.43-.348-.232a5.662,5.662,0,0,1-1.972,1.508c-1.79.6-1.671-.22-2.553,0a1.059,1.059,0,0,0,.232,2.088C87.743,58.352,89.531,57.158,89.909,54.988Z" fill="#023047"></path><path d="M77.612,76.8a10.752,10.752,0,0,1,3.016-1.392c.928-.232,1.954-.17,2.9-.464a.977.977,0,0,0,.58-1.16.957.957,0,0,0-1.16-.58A14.844,14.844,0,0,0,77.38,76.45C77.175,76.656,77.372,76.971,77.612,76.8Z" fill="#023047"></path><path d="M76.568,69.605c.232.232.464.7.7.812.348.232.928.116.812-.464-.232-.812-.928-1.74-.58-2.668.317-1.11,1.839-1.655,2.2-3.48.116-.58.014-1.967-.464-.812a5.536,5.536,0,0,1-1.624,2.088C76.452,66.357,75.291,67.749,76.568,69.605Z" fill="#023047"></path><path d="M136.081,58.12a16.027,16.027,0,0,1-8.933-.812c-.7-.232-1.042.809-.464,1.16a14.675,14.675,0,0,0,9.977,1.509,1.021,1.021,0,0,0,.7-1.161A1.17,1.17,0,0,0,136.081,58.12Z" fill="#2a9d8f"></path><path d="M135.036,61.6a15.436,15.436,0,0,1-4.756.116,14.5,14.5,0,0,1-4.408-1.74c-.576-.356-1.388.574-.812,1.044a11.684,11.684,0,0,0,4.872,2.32c1.618.375,3.954.713,5.568-.232A.847.847,0,0,0,135.036,61.6Z" fill="#2a9d8f"></path><path d="M118.563,67.517c-1.826-9.308,1.953-18.215-10.325-24.826a33.183,33.183,0,0,0-7.888-2.784c-.466-.11-2.669-.232-2.9-.58.116.232.348.464.464.7,1.239,1.858,2.2,3.307,2.2,4.64a.612.612,0,0,1-1.044.464,4.938,4.938,0,0,1-1.393-2.088c-1.589-3.612-6.265-8.352-8.352-10.325a18.1,18.1,0,0,0-15.778-4.872c-5.219.934-15.761,7.506-7.888,17.053,1.833,2.224,5.684,3.945,5.568,4.061C68.289,59.987,64,81.18,73.087,88.051A18.878,18.878,0,0,0,86.2,91.531a30.339,30.339,0,0,0-1.044,4.408,28.071,28.071,0,0,1-12.761-4.06c-5.721-3.249-6.941-7.673-8.236-14.153-.116-.58-1.045-.464-.929.116.342,4.1,1.553,8.606,4.177,11.717,2.067,2.45,6.7,5.5,11.717,6.961a21.443,21.443,0,0,0,12.645.232A12.442,12.442,0,0,0,96.753,94.2c.464-.348,0-1.16-.58-1.044-1.508.464-2.9,1.4-4.408,1.856a12.77,12.77,0,0,1-4.757.812c.233-.812,1.409-4.758,1.277-5.8-.1-.814-.815-.594-1.393-.464a12.494,12.494,0,0,1-2.784.232c-5.64,0-10.6-3.111-11.833-5.568-5.35-8.025-1.708-25.609.116-35.035,5.685,2.088,14.617,1.276,18.1.348,2.743,5.487,8.638,9.232,9.4,13.457.249,1.389,0,2.784.58,4.176s2.436,2.552,3.828,1.508c1.044-.7,4.058-5.218,6.032-2.552,2.665,3.6-1.624,6.961-2.552,8a5.14,5.14,0,0,0-1.624,3.6c-.54,8-1.653,14.033-2.668,21.926a1.883,1.883,0,0,0,1.508,1.972,33.618,33.618,0,0,0,9.745.928c5.1-.457,13.8,2.664,14.153,2.2,2.515-3.277,3.828-8.236,3.944-12.3C132.022,79.5,120.764,78.736,118.563,67.517Zm-49.536-26.1c-.177.975-1.74.116-1.972-.58-.116-.348-.348-1.276,0-1.624C67.559,38.778,69.373,39.509,69.027,41.415Zm12.761-9.4c-4.524-.7-10.162-.43-13.109,3.6-.343.468-1.16,2.436-1.972,1.276-1.856-2.321,3.136-5.094,4.872-5.8,3.373-1.372,7.309-1.74,10.673-.116C82.832,31.206,82.368,32.018,81.788,32.018Zm47.448,62.3a8.575,8.575,0,0,1-1.044,3.829c-.348.464-1.16.348-1.044-.348a23.148,23.148,0,0,0,.7-4.061,14.133,14.133,0,0,0-5.8-12.413c-.58-.348,0-1.276.464-.928A15.3,15.3,0,0,1,129.236,94.315Z" fill="#023047"></path><path d="M111.371,21.229c1.491.956,8.932,4.061,9.86,4.061.58.116.7-.812.232-1.044-.7-.464-7.992-3.272-9.512-4.061A.6.6,0,1,0,111.371,21.229Z" fill="#2a9d8f"></path><path d="M64.155,90.835a18.306,18.306,0,0,1-4.061-10.673.465.465,0,0,0-.928,0A17.772,17.772,0,0,0,63.11,91.647a8.723,8.723,0,0,0,2.9,2.552c.464.232.928-.348.58-.7C65.9,92.575,64.967,91.763,64.155,90.835Z" fill="#023047"></path><path d="M132.6,15.545c.356.339,1.16.116,1.044-.464-.232-1.624-3.828-7.657-4.64-9.281-.348-.7-1.265-.121-.928.58C128.795,7.877,131.352,14.355,132.6,15.545Z" fill="#2a9d8f"></path><path d="M153.714,50.348c-.232-.116-.348-.232-.58-.232a.56.56,0,0,0-.464.928c.831,1.146,4.64,6.148,5.336,6.5a.588.588,0,0,0,.812-.812A71.77,71.77,0,0,0,153.714,50.348Z" fill="#2a9d8f"></path><path d="M172.508,39.1a54.713,54.713,0,0,0-8.7-.464.639.639,0,0,0,0,1.276c1.392,0,7.192.348,8.585.348C172.972,40.255,173.088,39.327,172.508,39.1Z" fill="#2a9d8f"></path><path d="M168.331,14.269c.58-.348.234-1.152-.464-1.044-.811.125-7.308,2.9-8.7,3.6-.58.232-.116,1.392.464,1.044C161.139,17.285,167.751,14.733,168.331,14.269Z" fill="#2a9d8f"></path><path d="M148.03,11.252c.348,0,.7-.116.7-.464.116-.812.812-4.292.928-5.22a.544.544,0,0,0-1.044-.232,13.745,13.745,0,0,0-1.161,5.336A.622.622,0,0,0,148.03,11.252Z" fill="#2a9d8f"></path><path d="M58.47,98.376s-10.441,8-17.865,25.406c0,0,17.4,8.817,23.9,14.5,0,0,14.965,1.972,18.329,3.016-2.9-10.441-10.093-36.659-10.093-36.659S63.458,103.944,58.47,98.376Zm-6.032,13.573a43.461,43.461,0,0,0-5.105,6.148c-.348.58-1.284,0-.928-.58a41.6,41.6,0,0,1,5.337-6.728c.348-.348,1.276-1.392,1.74-.58C53.83,110.905,52.786,111.6,52.438,111.949Z" fill="#2a9d8f"></path><path d="M56.5,84.107c-.232,3.933,1.519,9.259,4.756,11.833a5.932,5.932,0,0,0,3.829,1.624.553.553,0,0,0,.232-1.044A14.257,14.257,0,0,1,62.3,95.011C60,93.327,58.51,89.8,58.006,86.775a11.441,11.441,0,0,1-.348-2.784C57.542,83.526,56.614,83.526,56.5,84.107Z" fill="#023047"></path><path d="M157.774,147.332l2.9-.464C154.99,98.26,114.5,102.784,114.5,102.784c-9.745,14.849-20.65,11.485-20.65,11.485l17.866,32.367s9.888-2.735,16.125-.116a14.308,14.308,0,0,1,6.032,4.292C159.273,146.956,155.33,147.5,157.774,147.332ZM151.858,134.8a.694.694,0,0,1-1.276.348c-.815-1.288-.933-2.909-1.74-4.525-5.4-12.966-15.739-21.124-28.075-23.9-.577-.129-.464-1.16.116-1.16a31.312,31.312,0,0,1,9.513,2.9c10.471,4.806,17.931,14.4,20.418,22.157.224.7.464,1.393.7,2.089A3.692,3.692,0,0,1,151.858,134.8Z" fill="#2a9d8f"></path><path d="M30.4,52.552c-.812-1.392-1.514-3.484-.58-4.988,1.153-1.861,3.933-1.725,5.568-.581,5.09,3.563-1.342,8.346-.232,13.342.348.928,1.517,2.441,2.436.928.7-1.157-.09-2.894.232-4.177.378-1.5,1.312-2.89,1.74-4.408a7.165,7.165,0,0,0-5.916-8.817,5.6,5.6,0,0,0-6.381,4.177,5.307,5.307,0,0,0,.232,3.248c.349,1.044,1.161,2.2,2.321,2.2C30.4,53.6,30.628,53.016,30.4,52.552Z" fill="#2a9d8f"></path><path d="M38.98,67.517a1.709,1.709,0,0,0,1.741-1.74,1.784,1.784,0,0,0-1.741-1.74,1.708,1.708,0,0,0-1.74,1.74A1.784,1.784,0,0,0,38.98,67.517Z" fill="#2a9d8f"></path><path d="M46.057,27.61a6.9,6.9,0,0,1,0-4.525c3.371-7.865,11.417-2.076,11.6,3.133.107,3.016-1.972,5.22-4.06,7.308-2.626,2.626-4.276,4.506-4.525,8.237a1.162,1.162,0,0,0,1.16,1.16c1.044,0,1.151-1.045,1.277-1.856.827-5.345,9.111-8.158,8.468-15.081-.566-6.1-6.724-9.695-11.021-8.585-2.34.6-4.766,3.155-5.336,6.961a7.4,7.4,0,0,0,.116,2.2,3.286,3.286,0,0,0,1.276,1.972C45.593,28.654,46.181,28.072,46.057,27.61Z" fill="#2a9d8f"></path><path d="M49.537,49.188a1.709,1.709,0,0,0,1.74-1.741,1.784,1.784,0,0,0-1.74-1.74,1.741,1.741,0,0,0,0,3.481Z" fill="#2a9d8f"></path><path d="M119.143,154.988a8.92,8.92,0,0,1,7.193,1.277c3.864,2.9,3.521,4.8,4.408,5.684.348.348,1.044.116.928-.348,0-1-1.086-2.312-1.856-3.6-3.114-4-7.864-5.236-11.021-3.945C118.331,154.408,118.563,155.22,119.143,154.988Z" fill="#023047"></path><path d="M119.491,150a14.024,14.024,0,0,1,11.717,4.06c.939,1.035,1.517,2.313,2.32,3.365.352.461,1.039.233.928-.348a7.707,7.707,0,0,0-1.972-3.481,13.85,13.85,0,0,0-13.109-4.408C118.8,149.188,118.911,150,119.491,150Z" fill="#023047"></path><path d="M134.572,150.348c-1.046-2.527-5.038-4.163-7.656-4.872-4.507-1.221-11.125-1.318-15.35.594-6.131-10.2-9.8-17.561-14.929-27.741-2.219-4.4-4.57-8.792-6.844-13.225-.356-.692-1.4-.114-1.044.58,7.23,14.241,14.14,29.356,22.853,43.272,2.16,3.449,6.656,10.683,9.165,13.921.455.587,1.265-.11.928-.7-.628-1.093-1.287-2.144-1.956-3.185a4.853,4.853,0,0,1,3.348,1.329,16.375,16.375,0,0,1,2.785,3.248c.367.752,1.4.345,1.16-.232a10.615,10.615,0,0,0-2.785-4.06,6.933,6.933,0,0,0-3.48-1.74,3.469,3.469,0,0,0-1.937.052c-1.755-2.693-5.021-7.828-6.622-10.457a26.582,26.582,0,0,1,16.912.66,10.038,10.038,0,0,1,4.408,3.132C133.992,151.392,134.811,150.925,134.572,150.348Z" fill="#023047"></path><path d="M156.15,147.68a51.843,51.843,0,0,1-6.96,19.953c-6.62,11.033-17.492,19.817-26.567,23.55-5,2.058-10.666,3.115-15.893,1.277A16.843,16.843,0,0,1,100,187.7c-5.847-6.381-8.569-14.589-10.788-23.2C78.119,121.442,77.919,119.334,73.13,105a.522.522,0,0,0-.275-.826c-1.044-.348-2.2-.464-3.248-.812-1.276-.348-2.429-.6-3.6-1.044-4.418-1.686-7.432-4.2-9.165-8.469-.333-.818-1.384-.582-1.16.116a14.18,14.18,0,0,0,5.452,7.425A24,24,0,0,0,72.164,105.2c1.22,4.486,5.454,21.083,9.04,35.231-4.775-1.176-19.04-3.1-25.4-2.725-.7-.116-.58,1.044.116,1.16,20.384,1.359,17.848,2.26,25.633,2.933,5.691,22.461,5.329,21.274,6.193,24.443-9.319.894-20.9,2.945-28.462,3.715-7.262.738-15.714,1.728-21-3.133-5.555-5.111-4.443-15.818-2.668-23.2a79.531,79.531,0,0,1,7.054-18.768c-.56-.293-1.023-.534-1.368-.712-4.734,9.183-8.468,18.854-8.818,29.457-.134,4.06.348,8.469,2.552,11.949,7.544,11.911,26.691,4.87,53.156,2.3A83.551,83.551,0,0,0,92,178.654c3,6.8,7.265,11.445,10.905,13.69,10.234,6.31,23.018.246,32.482-7.077,11.51-8.906,20.9-22.8,22.274-37.935Z" fill="#023047"></path></g></svg>