<svg viewBox="0 0 140 140" height="140" width="140" xmlns="http://www.w3.org/2000/svg"><g transform="matrix(0.7,0,0,0.7,0,0)"><path d="M27.823,32.873c.521-2.768,2.419-13.825,1.963-16.895s.636-2.295,1.383-.069,2.875,2.226,4.258.726S37,15.515,37.2,16.5s1.113,1.5,1.7.65,1.258-1.134.864,1.838-1.9,15.063-2.813,15.844-2.489,1.051-2.558,0-1.071-.518-1.963-.324a1.286,1.286,0,0,1-1.839-.851.879.879,0,0,0-1.576-.069C28.431,34.442,27.572,34.206,27.823,32.873Z" fill="#2a9d8f"></path><path d="M160.915,132.514c4.914-.23,5.992,6.387.524,6.713S154.721,132.8,160.915,132.514Zm4.8,4.839c-.822,4.631-8.3,4-9.16.436-3.491,2.965-.048,8.163,5.606,7.6,5.213-.546,6.519-6.457,3.554-8.061Z" fill="#2a9d8f"></path><path d="M164.917,26.617c-2.227-2.073-5.434-.643-5.447,1.8-2.475,1.03-2.338,4.984,1.071,6.221-.131,1.044-.283,2.074-.394,3.125-.055.532.823.594.9.1.159-.995.345-1.984.511-2.972,3.049.449,5.116-1.472,5.04-4.037,0-.567-.864-.691-.906-.09-.318,4.7-6.221,3.685-6.913.878a2.109,2.109,0,0,1,.864-2.233c.934,2.295,4.548,2.074,5.773.408a2.351,2.351,0,0,0-.512-3.166Zm-.284,2.537c-.856,1.243-4.037,1.383-4.209-.691-.126-1.479,1.8-2.675,3.511-1.445C164.619,27.537,165.171,28.374,164.633,29.154Z" fill="#023047"></path><path d="M182.454,33.4c-.165-1.666-10.009-.851-14.855-.809-.525,2.537-3.539,3.228-5.371,3.18,0,1.071-.263,3.387-1.639,3.456s-1.113-1.832-1.182-4.189c-.85-.2-1.832-.463-2.813-2.447-1.7-.284-15.492-1.016-15.457,0,.878,23.006-1.224,36.893.691,38.29s36.154,1.382,38.159.608S184.012,49.138,182.454,33.4ZM154.223,56.653c-.754,0-.692-1.085.041-1.154,3.277-.291,14.075-.837,17.552-.574a.692.692,0,0,1-.056,1.383C171.76,56.482,158.264,56.533,154.223,56.653Zm19.459-8.717c-7.107.264-14.2.8-21.284,1.383-.726.062-.747-1.044-.035-1.12,7.072-.747,14.171-1.217,21.278-1.542a.64.64,0,1,1,.041,1.279Z" fill="#2a9d8f"></path><path d="M52.425,83.537c-.335-1.211-9.408-.691-15.436-.574a6.5,6.5,0,0,1-5.115,3.968c.456,2.641.788,4.148-.823,4.328-2.032.228-2.143-.906-2.447-3.879-2.661.222-6.394-1.451-6.567-3.269-1.307.138-14.026-.187-14.849.387a105.617,105.617,0,0,1,2.973,20.7c.539,11-4.106,21.567-2.973,22.528s45.846.436,46.717-.525S56.709,98.983,52.425,83.537Zm-33.25,22.708c-.691-.046-.546-1.092.138-1.064q11.448.422,22.9,1.009c.906.048.692,1.438-.172,1.383C34.4,107.186,26.782,106.76,19.175,106.245Zm23.268,7.342q-8.923.1-17.848.249c-.692,0-.92-1.065-.187-1.113,6.284-.408,12.443-.042,18.664-.5,2.019-.152,2.178,1.334-.649,1.383Zm2.24-14.123c-5.785.521-19.7.484-25.826.339-.691,0-.608-1.051.069-1.065,7.148-.145,18.941-.477,25.681-.574C45.34,98.157,45.437,99.4,44.683,99.464Z" fill="#2a9d8f"></path><path d="M106.905,138.811c1.893,6.056-3.7,5.607-6.719,4.756-.436.982-2.074,4.3-3.8,3.685s-1.01-2.661.3-4.839c-.657-.394-2.226-1.486-2.53-2.883-2.074.263-17.282,1.217-17.033,2.537,4.106,25.149-.872,37.281,1.313,38.677s39.818.18,40.688-.96,4.632-23.4.485-40.951C119.618,138.122,110.3,138.733,106.905,138.811ZM87.612,164.568a.546.546,0,0,1,.124-1.078c6.221.422,13.887.131,19.562.4a.638.638,0,0,1,0,1.265A183.936,183.936,0,0,1,87.612,164.568Zm22.2-5.039c-1.32.463-18.609-.692-21.271-.795-.691,0-.691-1.162,0-1.134,2.835.091,19.964.263,21.43.892.5.221.277.891-.131,1.037Z" fill="#2a9d8f"></path><path d="M30.927,88.6c-.111-.746-.035-1.928-.83-1.756s-.373,1.666-.18,2.593c.332,1.624,1.155.891,1.175.546A6.634,6.634,0,0,0,30.927,88.6Zm.649-10.21c2.192,0,4.722,2.129,4.058,4.21-1.279,4.023-10.59,4.479-12.519,1.044-.864-1.535.926-4.452,3.028-4.929.069-1.113.138-1.915.173-2.807a11.712,11.712,0,0,0,4.839-.3c.11.8.276,1.784.456,2.765Zm-5.737-3.781c1.382.691,5.136.256,5.959-.526.988-1.306-.049-3.857-3.2-3.567-3.864.332-4.009,3.194-2.758,4.079Z" fill="#023047"></path><path d="M105.6,130.012c-2.2-1.054-5.184-1.32-5.3,1.05-.179,3.664,6.706,5.938,7.743,2.62C108.578,131.947,106.973,130.671,105.6,130.012Zm-6.954,11.627c-4.147-2.523-3.8-6.222.291-5.945.435-.692.691-1,1.119-1.687.291-.456,1.085.048.8.5-.47.767-.746,1.14-1.216,1.9a.535.535,0,0,1-.533.284c-1.126-.1-2.682,0-2.35,1.568.518,2.517,6.221,4.307,7.6,3.277a1.7,1.7,0,0,0-.263-2.15c-.615-.4.159-2.2.36-2.89.083-.3,1.127-.746.968.526a6.122,6.122,0,0,1-.5,1.6c.919.739,1.133,2.994.124,3.76-1.313.989-3.954.471-5.475-.235-.691,1.161-1.382,2.33-2.073,3.456-.305.506-1.106,0-.858-.449.65-1.189,1.328-2.364,1.984-3.546Zm7.6-7.6c-1.445.588-4.3-.574-4.777-2.344-.3-1.127.436-2.074,3.519-.691,2.378,1.058,2.37,2.571,1.286,3.014Z" fill="#023047"></path><path d="M155.888,78.353c-1.03,1.071-1.991,2.239-2.985,3.318L141.06,94.114a52.71,52.71,0,0,1-5.287-3.954c5.406-5.676,9.138-9.25,14.82-14.559,1.2,2.5-.476,3.4,4.148,1.618a1.38,1.38,0,0,1-.159.435.52.52,0,0,0,.464.768,6.129,6.129,0,0,0,.857-.1Zm33.569,18.816a159.768,159.768,0,0,1-15.436-15.208c.92-.691,2.225-.871,5.481-3.36,3.208,4.9,9.713,10.66,14.006,14.939-1.541,1.735-2.247.753-2.343,1.908C189.782,94.881,189.782,95.869,189.457,97.169Zm-.277,1.3c.373.262.651-.125.879-.422a10.09,10.09,0,0,0,.636-1.673c.566.2,1.513.691,1.5-.691.815-.152,1.465-1.044,2.163-1.466.408-.242.913-.629.47-1.064-4.382-4.383-11.212-10.369-14.517-15.284-.691-1-1.734.124-2.377.6-3.256,2.385-5.773,2.765-4.839,3.933C173.058,82.3,182.7,94,189.18,98.469ZM141.351,95.13c.484-.256,14.593-14.876,16.265-17.095.318-.422-.22-.809-.656-.692a5.683,5.683,0,0,1-1.2,0c.158-1.016-.34-1.548-.782-1.244a13.3,13.3,0,0,1-2.917,1.03c-.083-.442-.539-2.108-1.12-2.288-.3-.1-.5-.477-.788-.242a198.113,198.113,0,0,0-15.339,15.208c-.817.912,4.251,4.148,5.267,4.943A1.15,1.15,0,0,0,141.351,95.13Z" fill="#2a9d8f"></path><path d="M173.586,84.56c-6.465-.307-12.872-1.037-19.308-1.562a.491.491,0,0,0-.09.975,175,175,0,0,0,19.287,1.755C174.228,85.728,174.339,84.6,173.586,84.56Zm2.958,11.648c-8.164,0-16.321-.408-24.464-.961A.567.567,0,0,0,152,96.374c8.13.733,16.3,1.037,24.458,1.113C177.284,97.487,177.367,96.208,176.544,96.208Zm-24.05,6.284c-.691-.062-.871.968-.186,1.043a229.59,229.59,0,0,0,23.461,1.383c.81,0,.692-1.251-.1-1.258C175.666,103.516,167.006,103.874,152.494,102.492Zm23.814,9.146c-6.733-.168-18.256.165-24.373-1.28-.56-.131-.816.844-.256.989,6.311,1.652,17.558,1.3,24.484,1.569C176.994,112.95,177.139,111.658,176.308,111.638Zm.236,6.221c-8.987,0-14.759.353-24.132-.526-.622-.055-.851.9-.208.968,6.111.692,18.506,1.259,24.506.553C177.305,118.785,177.1,117.859,176.544,117.859Zm7.784,7.887c-.076-8.668.726-19.155.691-27.215,0-.691,1.016-.774,1.037-.1.235,8.986-.463,17.4-.554,26.268,0,1.922-.441,2.2-1.126,2.24-13.079.692-27.879,2.019-40.515-.477-1.258-.248-1.252-.442-1.245-1.838.035-9.3.941-19.419,1.382-28.792,0-.643,1.037-.691,1.01-.055-.381,9.4-1.155,20.738-1.245,29.628C158.032,127.4,169.991,126.514,184.328,125.746Z" fill="#023047"></path><path d="M152.425,138.887c-4.147,0-8.26-.179-12.387-.193-.734,0-1.072.525-.968,1.342a311.407,311.407,0,0,1,2.689,39.042c0,.478.449.525.8.574a107.327,107.327,0,0,0,39.569-1.182c.864-.186,1-.581,1.016-.864.905-12.754,1.79-25.578,2.647-38.345,0-.408.049-.961-.5-.961-5.206,0-10.923.27-16.059.076-.692,0-.587.981.056,1.024,4.935.31,10.369.068,15.4.075-.29,3.235-2.765,37.778-2.765,37.778-13.39,2.91-25.46,2.986-38.9,1.383-.491-16.867-.892-26.213-2.889-38.9,4.1.152,8.205.132,12.3.318a.574.574,0,0,0,0-1.148Zm19.633,28.82c.919,0,1.085,1.382.159,1.431q-9.519.123-19.038-.422c-.843-.055-.636-1.32.187-1.285C163.449,167.855,169.567,167.707,172.058,167.707Zm.553-6.913c.691-.033.8,1.19.09,1.251a171.962,171.962,0,0,1-19.895.325c-.692,0-.636-1.105.069-1.092C159.463,161.388,166.01,161.111,172.611,160.794Zm1.3-6.519c.595-.056.892.919.242,1.106-4.638,1.335-15.208.906-20.047.353-.691-.076-.463-1.079.194-1.023C162.034,155.4,166.569,154.962,173.91,154.275Z" fill="#023047"></path><path d="M10.161,28.989c-.235,13.244-.74,26.268-1.189,39.471a.9.9,0,0,0,.722,1.046c2.438.486,8.42.844,12.253,1.56.8.153.982-1.1.18-1.251-2.89-.539-9.3-1.514-12.091-1.382.754-12.893,1.12-26.131,1.383-39.071,1.68.3,11.351.5,13.784.788.594.069.484-1.085-.048-1.127-4.425-.332-9.775-.753-14.144-.836A.767.767,0,0,0,10.161,28.989ZM39.616,42.648c.733,0,.691,1.286,0,1.279a171.809,171.809,0,0,1-20.821-1.1.56.56,0,0,1,.159-1.106C26.868,42.513,40.625,42.648,39.616,42.648Zm-7.6,8.295c.6.054.4,1-.111,1.1-1.5.29-11.862-.692-13.431-.892a.547.547,0,0,1,.117-1.079C23.06,50.377,27.575,50.546,32.012,50.943Zm4.535,7.245c.587.041.38.933-.1,1.051-2.544.65-14.468-.947-17.448-1.383-.691-.11-.594-1.182.1-1.078,6.221.926,11.309,1.03,17.441,1.445Zm12.747,12.54c-4.908,0-9.388.076-14.33-.173a.539.539,0,0,0,0,1.078c1.382.111,12.2.325,13.943.222.919-.056,1.521-.616,1.638-1.86,1.168-12.775,2.026-26.268,2.012-39.071,0-.4-.588-.5-.9-.5-3.74-.076-7.473-.276-11.2-.58-.746-.056-.905,1.078-.159,1.154,3.153.311,8.081.65,11.2.65C50.849,44.819,50.193,58.354,49.294,70.728Z" fill="#023047"></path><path d="M91.565,24.315c-.308-.869-3.864-1.783-4.051-3.56-.082-.878,7.66-2.391,8.344-1.272,1.092,1.77-2.267,3.906-2.17,4.362.691,3.263,1.707,6.263,2.7,9.45.526,1.694,1.929,1.569.878-1.68-.8-2.495-1.624-4.984-2.433-7.479,1.244-1.051,3.671-4.3,1.68-5.855-1.327-1.037-10.051-.07-10.293,2.115-.2,1.846,2.765,3.968,4.21,4.479-.249,3.353-.519,6.706-.754,10.058a.505.505,0,0,0,.989.132C90.95,33.5,91.954,25.41,91.565,24.315Z" fill="#023047"></path><path d="M59.981,133.544c-18.043.117-36.983,2.067-54.189,3.712-.567.055-1,.062-.691,1.1a52.487,52.487,0,0,1,1.548,8.655c.042.312.125.691.532.608C26.717,145.15,42.851,144.5,61,143.906c.8,0,.581-1.133.574-1.154-.353-.692-1.542-1.5-1.065-2.13,1.6-2.073-.435-3.567.222-5.475C60.735,135.058,60.43,133.541,59.981,133.544ZM6.317,138.231c17.925-1.431,35.29-2.938,53.457-3.45a6.337,6.337,0,0,0-.062,2.765c.11.6.5,1.383.248,1.977s-1.431.692.325,3.166c-17.351.6-35.393,1.639-52.64,3.844A82.28,82.28,0,0,0,6.317,138.231Z" fill="#2a9d8f"></path><path d="M12.193,150.362c.138-.691-.878-.821-1.03-.165a81.228,81.228,0,0,0-.622,35.062.982.982,0,0,0,1.147.774c15.368-1.888,32.166-2.717,48.03-3.83.692-.055.692-.47.65-1.231a287.416,287.416,0,0,1-1.009-34.045.658.658,0,0,0-1.314,0,232.871,232.871,0,0,0,1.265,34.024c-15.208.865-32.566,1.694-47.58,3.872a92.833,92.833,0,0,1,.5-34.481Zm34.426,18.562c.864-.036.933,1.327.083,1.327-7.978-.055-16.1.263-24.1.366-.761,0-.844-1.168-.076-1.189C30.526,169.242,38.648,169.259,46.619,168.924Zm-2.005-8.378c.035,0,2.489-.747,1.1.925-.608.692-20.738,1.985-23.123,2.178-.691.055-.691-1.009,0-1.072C24.476,162.4,45.934,160.546,44.614,160.546Zm-.892-5.773c.83-.034.8,1.217,0,1.279-7.6.587-15.1,1.2-22.694,1.908-.588.055-.692-.947-.132-1.03C27.208,156,37.3,155.034,43.722,154.773Z" fill="#023047"></path><path d="M128.535,120.174a509.717,509.717,0,0,1-61.524,4.058L66.327,112.8a3.623,3.623,0,0,0,3.982-3.67,4.051,4.051,0,0,0-3.664-3.948,69.21,69.21,0,0,1-.111-8.019c4.659.138,5.074-6.913.125-7.673-.125-2.71-.692-4.514-.588-7.715,6.222-.035,3.8-7.431-.518-7.673L65.013,67c5.026,1.1,6.07-7.867-.11-7.957-.263-2.178-.415-4.362-.609-6.546,6.962-1.231,4.68-9.194-.456-8.78-.332-2.765-.546-5.53-.615-8.3,3.318.055,14.911-1.134,18.333-1.382.691-.049.5-1.189-.159-1.162-6.153.291-12.167,1.231-18.52,1.383-.58,0-.732.283-.739.815a64.984,64.984,0,0,0,.587,9.257c.062.325.256.691.692.594,3.974-.85,6.09,5.468.919,6.305-.8.124-1.2.373-1.141.8.36,2.5.187,5.074.553,7.6a.759.759,0,0,0,.906.65c4.2-.124,4.445,6.063.366,5.392-.864-.145-1.064.3-1.085.692,0,.629.283,6.525.546,8.136a1.058,1.058,0,0,0,1.023.836c2.392.166,5.282,4.632.8,5.323-.809.125-1.417-.283-1.417,1.231,0,3.4.525,7.085.518,7.832a1.01,1.01,0,0,0,.858.933c3.511.242,3.511,4.915.767,5.178-1.59.152-1.59,0-1.68,1.341a51.13,51.13,0,0,0,.138,8.447c.049.3.139.691.553.691a2.987,2.987,0,0,1,2.966,2.869,2.323,2.323,0,0,1-2.82,2.233c-.636-.159-1.024.305-.954,1.189.055.774.608,10.929.753,11.966.076.553.235.816.926.816a477.788,477.788,0,0,0,61.621-3.851c.843-.1.85-1.445,0-1.334Zm-1.48-89.8c.81.058,1.037.387,1.058,1.127.222,6.449.131,12.933.442,19.355.547,11.434,2.164,22.812,2.392,34.246s.166,22.447.242,33.962a.692.692,0,0,1-1.334,0c0-6.5-.11-30.4-.276-36.133-.448-15.466-3.105-25.206-2.489-51.265-7.528-.262-13.66-.691-22.48-.5-.692,0-.574-.982.062-1.023A192.341,192.341,0,0,1,127.055,30.371Z" fill="#2a9d8f"></path><path d="M87.148,103.9c-1.645-1.756-8.571-3.028-9.933,3.035-.885,3.912,1.382,7.873,5.392,8.3,5.53.553,8.675-6.871,4.541-11.3ZM81.68,51.275c-5.993-1.562-10.127,5.316-7.6,9.18,1.487,2.3,5.261,3.8,7.881,2.98a6.321,6.321,0,0,0-.249-12.16Zm.546,10.687c-4,1.853-6.65-1.438-7.044-1.873-2.627-2.917,1.023-8.385,5.475-7.846a5.108,5.108,0,0,1,1.569,9.719Zm-7.341,9.789a6.753,6.753,0,0,0-.525,4.286C75.286,82.6,85.669,82.8,86,74.765,86.243,68.861,77.367,67.5,74.885,71.751Zm.581,4.1a6.616,6.616,0,0,1,.228-3.2c1.514-3.594,9.056-2.765,9.083,1.673C84.819,80.71,76.424,81.706,75.466,75.85ZM87.217,90.588c-.829-5.565-8.882-6.74-11.433-1.2-1.092,2.378-.1,6.8,2.3,8.2C82.233,100,87.943,95.455,87.217,90.588Zm-8.689,5.917A5.32,5.32,0,0,1,76.841,89.9c1.929-4.286,8.3-3.961,9.125.884C86.616,94.8,81.384,98.513,78.528,96.505Zm4.576,17.42c-3.387,0-5.634-3.732-4.935-6.643.884-3.664,5.2-5.108,7.8-2.917C89.3,107.189,87.968,113.925,83.1,113.925Z" fill="#023047"></path><path d="M116.68,52.907c-2.075-.3-22.024.753-25.985,1.147-.65.062-.471,1.113.152,1.113,6.352.055,19.749-1.175,25.833-1.078C117.281,54.089,117.26,52.991,116.68,52.907Zm-8.068,55.3c-1.334-.123-13.2.988-14.648,1.133a.567.567,0,1,0,.049,1.133c1.382-.068,13.424-.774,14.648-1.084C109.221,109.253,109.228,108.265,108.612,108.209Zm-4.5-4.4q-4.99.393-9.982.754a.575.575,0,0,0,.069,1.147c3.837-.235,7.659-.491,11.489-.76C108.509,104.759,108.087,103.5,104.112,103.812Zm16.916-12.235c-9.312,1.037-19.626,1.527-28.806,2.4a.526.526,0,0,0,0,1.044c9.117-.311,19.7-1.064,28.819-2.15.816-.1.8-1.382-.041-1.292ZM92.706,88.445c-.8.125-.65,1.383.145,1.238a174.233,174.233,0,0,1,22.7-1.632c.746,0,.767-1.306,0-1.313A138.83,138.83,0,0,0,92.706,88.445ZM100.753,77.3c-.573-.431-8.04.11-9.146.159-.643,0-.595,1.161.062,1.147l8.047-.193C101.416,78.366,101.009,77.5,100.753,77.3ZM90.66,73.12a.56.56,0,0,0,0,1.113c7.957-.222,16.66-.927,24.616-1.639.83-.076.808-1.382-.034-1.306C116.939,71.288,93.714,72.853,90.66,73.12Zm16.8-15.3c-3.456.017-10.846.691-14.517.926a.546.546,0,0,0,0,1.085c2.7.173,11.752-.691,14.662-.808C108.28,59,108.156,57.818,107.458,57.822Z" fill="#023047"></path><path d="M85.745,68.716c-1.6.906-3.961,5.613-5.254,7.369-.829-.919-1.977-1.86-2.765-2.765-.5-.553-1.141.111-.65.691.878,1.03,1.687,2.122,2.627,3.1,1.307,1.383,2.212-.871,2.586-1.424.691-1.072,4.057-5.869,4.327-6.747C86.733,68.419,86.111,68.509,85.745,68.716Z" fill="#2a9d8f"></path><path d="M85.89,48.4c-2.174,3.247-3.408,6.526-5.2,9.789l-3.2-2.9c-.567-.511-1.3.381-.76.9,2.668,2.565,3.643,3.767,4.4,3.456.4-.179,4.784-9.138,5.717-10.79C87.093,48.33,86.58,47.369,85.89,48.4Z" fill="#2a9d8f"></path><path d="M102.633,27.481a27.725,27.725,0,0,0-5.323-.048c1.147,3.857,2.378,6.954.3,7.646s-3.049-4.273-4-7.466l-1.2.069c0,3.76.414,8.53-2.434,8.53-2,0-.9-4.348-.691-8.3-3.415.29-6.18.65-6.291,1.009-.262.83,1.224,8.385,2.358,8.821s16.805-.913,17.282-1.265S103.29,27.957,102.633,27.481Z" fill="#2a9d8f"></path></g></svg>