<svg viewBox="0 0 140 140" height="140" width="140" xmlns="http://www.w3.org/2000/svg"><g transform="matrix(0.7,0,0,0.7,0,0)"><path d="M115.424,109.663a18.7,18.7,0,0,0,2.113,6.7,5.471,5.471,0,0,0,4.3,2.623,23.913,23.913,0,0,0,8.381-1.311.381.381,0,0,0-.218-.729,30.9,30.9,0,0,1-7.215,1.093,4.7,4.7,0,0,1-4.3-2.041c-3.484-5.446-2.2-15.879-2.041-22.228a.157.157,0,0,0-.146-.146c-.364-.728-.656-1.384-1.02-2.113-1.628-3.494-.387-4.786.146-6.924.073-.218-.291-.437-.437-.291a6.477,6.477,0,0,0-1.312,5.028,8.883,8.883,0,0,0,2.259,4.446A57.347,57.347,0,0,0,115.424,109.663Z" fill="#023047"></path><path d="M137.652,102.885c3.187-.651,5.721.414,7.069,3.279.146.292.657.146.583-.145-.072-2.332-2.623-3.863-4.737-4.154-2.988-.438-5.9.874-8.6,1.967-1.677.656-3.28,1.458-4.883,2.187a.475.475,0,0,0-.146.656,75.9,75.9,0,0,1,5.174,12.316c.073.146.147.219.292.146a.334.334,0,0,0,.364.292,25.244,25.244,0,0,0,5.831-1.822c-.419,1.986-.654,3.834-1.531,12.608a22.686,22.686,0,0,0-.219,4.956.266.266,0,0,0,.511,0c.358-.986.388-1.865.656-4.811.145-1.457.291-2.842.364-4.3a69.432,69.432,0,0,0,.583-8.673,11.5,11.5,0,0,0,3.644-2.186c.146-.146,0-.365-.145-.292a9.75,9.75,0,0,0-2.406.947,63.61,63.61,0,0,1-7.433,3.061v-.073a57.8,57.8,0,0,0-4.592-12.243A52.927,52.927,0,0,1,137.652,102.885Z" fill="#023047"></path><path d="M155.143,80.657c-2.038.165-4.081.437-6.121.728-.292,0-.22.438.073.438,5.757-.438,11.588-.583,17.344-.656a25.2,25.2,0,0,0-1.529,15.96,19.3,19.3,0,0,0,1.384,3.936c-5.393-.583-10.787-1.166-16.179-1.6-.51-.073-.512.741,0,.8,13.431,1.588,14.272,1.617,20.187,2.405a13.186,13.186,0,0,0,3.79,0c.218-.073.438-.364.364-.583a24.024,24.024,0,0,1-1.384-8.162c0-9.83,3.927-13.147,2.7-13.556C173.813,80.086,159.721,80.285,155.143,80.657Zm19.751.437c-1.02,1.53-2.041,6.049-2.332,7.507a27.872,27.872,0,0,0,.8,13.045,29.511,29.511,0,0,1-6.195-.364,27.4,27.4,0,0,1-2.04-10.2c0-4.807,1.238-7.447,2.187-10.057C167.97,81.167,174.019,81.167,174.894,81.094Z" fill="#023047"></path><path d="M138.819,81.458c-4.188,0-4.31-.022-8.673.146-2.864.13-16.976.839-21.208,1.385-.438.073-.292.729.073.729,4.373,0,8.745-.438,13.118-.656,17.171-.859,13.363-.959,16.69-1.166C139.109,81.969,139.109,81.458,138.819,81.458Z" fill="#023047"></path><path d="M186.191,136.919a2.57,2.57,0,0,0-2.771.365,5.086,5.086,0,0,0-1.311,2.988c-.073.291.438.437.51.146a5.3,5.3,0,0,1,1.166-2.406,1.876,1.876,0,0,1,2.332-.29c1.552.93,3.007,3.958,5.175,6.121.583.584,1.238,1.021,1.822,1.531a4.058,4.058,0,0,1,1.093,1.53c-.468.468-2.161.13-3.207-.218-7.452-2.484-5.393-1.676-6.559-2.114-.146-.073-.218.219-.072.219,6.573,2.465,8.14,3.6,10.057,2.915.874-.364.582-1.239.218-1.895a9.8,9.8,0,0,0-1.894-1.968C189.866,141.992,188.8,138.226,186.191,136.919Z" fill="#023047"></path><path d="M132.7,187.061c1.908-.82,2.052-1.125,3.134-1.531.146-.072,0-.291-.073-.218-2.308.863.552-.482-6.705,2.623-1.133.472-2.546,1.294-2.842,2.479,0,.436.437.728.8.874a6.715,6.715,0,0,0,2.915.365c3.976-.251,7.324,1.592,9.693.8a2.426,2.426,0,0,0,1.749-2.04,4.969,4.969,0,0,0-1.02-3.208c-.146-.291-.583,0-.437.292a5.454,5.454,0,0,1,.728,2.623,1.792,1.792,0,0,1-1.457,1.677c-1.383.251-3.969-.367-5.32-.656-3.862-.6-3.653-.069-5.466-.218a2.4,2.4,0,0,1-1.239-.292c-.219-.146-.219-.218-.073-.437C128.24,188.65,129.846,188.484,132.7,187.061Z" fill="#023047"></path><path d="M28.187,61.927c0,.146.146.364.292.291,3.789-1.384,7.579-2.842,11.369-4.3C70.754,46.472,86.8,44.779,89.479,43.707a.333.333,0,0,0,.291-.365,17.01,17.01,0,0,0-6.194-11.806c-5.6-4.317-14.122-4.528-20.917-3.134a.261.261,0,0,0,.073.51c4.664-.218,9.547-.51,14.139.729,8.608,2.318,10.1,8.076,12.1,13.41-6,0-40.946,9.414-60.345,18.584-2.743-8.23.913-19.858,14.576-26.164,3.538-1.684,9.742-3.668,9.912-4.008a10.909,10.909,0,0,0-1.166-2.769c-.166-.167-7.987,2.008-11.369-5.321C36.993,15.309,45.312,8.04,54.132,8.36c5.92.169,9.947,4.009,10.641,8.309a9.571,9.571,0,0,1-3.644,8.454c-.948.8-3.571,1.894-3.571,2.113a9.747,9.747,0,0,0,.8,2.842.486.486,0,0,0,.948-.218c-.146-.438-.8-2.041-.948-2.405a7.984,7.984,0,0,0,3.061-1.239,10.866,10.866,0,0,0,4.519-7.725c.4-4.634-3.084-9.692-9.256-10.86-9.313-1.8-19.954,5.2-17.491,14.431,1.353,4.961,5.147,7.917,10.713,7.36a14.369,14.369,0,0,0,1.749-.291c.073.437.583,2.113.583,2.186a47.218,47.218,0,0,0-15.814,7.07C28.228,44.466,25.336,54.883,28.187,61.927Z" fill="#023047"></path><path d="M59.307,19.875a5.8,5.8,0,0,0-5.466-6.7,8.857,8.857,0,0,0-7.871,3.863c-2.608,3.981.087,8.381,5.757,8.381C55.107,25.253,58.719,23.46,59.307,19.875ZM46.261,18.417a7.758,7.758,0,0,1,5.976-4.227,5.42,5.42,0,0,1,6.268,4.155c.6,3.729-2.955,6.121-6.195,6.121C48.427,24.855,44.668,22.242,46.261,18.417Z" fill="#023047"></path><path d="M84.669,31.317a8.662,8.662,0,0,1,3.863,4.519c.218.583,1.967,5.1,1.967,5.1a27.279,27.279,0,0,1,5.029-.655c1.385,5.465,10.713,39.063,11.734,42.124.072.219.291.291.583.219,2.842-1.021,9.547-1.094,11.587-1.385a.261.261,0,0,0,.073-.51c-1.166-3.863-11.3-39.574-11.879-41.4-1.087-3.26-1.8-6.6-4.737-8.673a12.789,12.789,0,0,0-8.454-1.894C91.447,28.912,83.266,30.547,84.669,31.317Z" fill="#2a9d8f"></path><path d="M184.441,146.321a30.785,30.785,0,0,0-3.352-5.612c-4.449,2.225-12.3,4.956-19.678,12.827-.219.219-.437-.073-.291-.291,1.166-1.458,3.789-4.3,3.789-4.3-.073-.365-1.895-8.017-2.842-11.369-.219-.729-1.968-6.851-2.842-8.746,1.342-.488,3.792-1.284,3.935.146a3.9,3.9,0,0,1-1.312,2.915c-.218.219,0,.51.292.437a3.245,3.245,0,0,0,1.968-4.154,122.853,122.853,0,0,1-5.175-11.369c-.874-2.114-1.822-4.227-2.769-6.413.232-.931,3.163-6.694,3.163-7.863,0-.364-.583-.51-.729-.218-.364.8-2.143,5.457-2.726,7.5-1.132-2.427-2.152-5.56-4.591-7.871a.207.207,0,0,0-.292.291c1.895,1.822,2.7,4.373,3.644,6.778,8.22,19.179,7.786,17.97,7.8,18a2.075,2.075,0,0,0-.947,0c-6.435.8-15.689,8.4-24.415,9.11a.219.219,0,0,0,0,.437,18.917,18.917,0,0,0,4.081-.51c-.38,2.283-7.079,45.873-5.393,46.716a64.671,64.671,0,0,0,6.414,1.9c0-1.347-2.347,9.576,15.45-48.9a.187.187,0,0,1,.365.073c-.365,1.967-4.009,16.762-4.737,19.24,5.292,8.468,11.487,10.742,19.385,4.372C174.675,157.836,182.473,148.872,184.441,146.321Z" fill="#023047"></path><path d="M116.08,88.236c.173-2.768,1.773-3.78,1.02-4.081-.625-.313-1.38,1.636-1.458,2.332a2.792,2.792,0,0,0,0,1.093c0,.219.074.8.292.875C116.006,88.455,116.08,88.382,116.08,88.236Z" fill="#023047"></path><path d="M117.829,88.236a8.125,8.125,0,0,1,1.02-3.425c.147-.292.583-.656.583-1.021a.266.266,0,0,0-.291-.291c-.51,0-.8.729-1.021,1.093a5.556,5.556,0,0,0-.656,3.571C117.464,88.455,117.756,88.382,117.829,88.236Z" fill="#023047"></path><path d="M120.307,84.374A6.41,6.41,0,0,0,119.578,87c0,.365-.146,1.6.365,1.749.776.13-.02-1.525.655-4.227C120.671,84.3,120.453,84.155,120.307,84.374Z" fill="#023047"></path><path d="M142.535,79.709c-1.344-.384-3.677,2.21-2.623,3.79.218.364.364.073.364-.219.289-1.731.439-2,1.968-2.915C142.389,80.365,143.045,79.855,142.535,79.709Z" fill="#023047"></path><path d="M142.025,83.062a.254.254,0,0,0,.437.145,4.7,4.7,0,0,1,1.967-2.478c.22-.145.584-.364.584-.655C145.013,78.584,142.025,80.541,142.025,83.062Z" fill="#023047"></path><path d="M145.6,80.147a4.817,4.817,0,0,0-1.093,1.6c-.074.292-.583,1.676,0,1.676.479,0,.425-1.626,1.9-2.769.218-.219.582-.656.146-.875C146.179,79.564,145.887,79.928,145.6,80.147Z" fill="#023047"></path><path d="M148.8,79.782c-.436-.146-.873.291-1.165.51a4.142,4.142,0,0,0-1.385,2.77c0,.218.219.655.51.364.364-.364.438-1.02.729-1.458C147.874,81.33,149.76,80.021,148.8,79.782Z" fill="#023047"></path><path d="M139.693,94.8c.475.368.329.378.073,2.187a4.066,4.066,0,0,0,.655,2.915,3.116,3.116,0,0,0,2.187,1.166h.729c0,.146-.145,1.239,0,1.385a.353.353,0,0,0,.51,0,3.277,3.277,0,0,0,0-1.458,2.249,2.249,0,0,0,1.457-.948.262.262,0,0,0-.364-.364,3.389,3.389,0,0,1-2.842.656,2.55,2.55,0,0,1-1.677-2.624,19.088,19.088,0,0,1,.22-2.04c0-1.327-.371-1.025-.729-1.385-.105-.208.432-.5.655-.729a5.832,5.832,0,0,0,1.6-2.405c.072-.146-.146-.218-.292-.073a9.037,9.037,0,0,1-2.551,2.77C139.11,94.066,139.324,94.509,139.693,94.8Z" fill="#023047"></path><path d="M149.677,90.787a2.875,2.875,0,0,0-2.04-.875,20.47,20.47,0,0,0-1.312-2.405,2.967,2.967,0,0,0-1.822-.947c-2.52-.5-4.584,1.561-2.4,3.5.874.8,2.113,1.385,2.915,2.259.656.729.51,1.312.145,2.26-.29.8.146.947.511.583.583-.51,1.166,0,1.021.656a1.128,1.128,0,0,1-1.167,1.02.469.469,0,0,0-.219.874,4.248,4.248,0,0,0,2.114.438,29.3,29.3,0,0,0-.438,3.644,8.208,8.208,0,0,1-2.55,1.239.156.156,0,0,0,.073.291c1.169.334,4.275-.781,4.373-2.332a.462.462,0,0,0-.364-.437c-.293-.073-.438.146-.583.364.072-.947.145-1.895.145-2.842C150.177,97.491,151.677,92.653,149.677,90.787Z" fill="#023047"></path><path d="M123.076,97.419a32.007,32.007,0,0,0-1.895-4.737,3.29,3.29,0,0,0,1.677-2.7c.145-1.02.072-2.04.292-3.061a5.163,5.163,0,0,0,.218-1.02c0-.292-.292-.364-.51-.219a2.308,2.308,0,0,0-.511,1.385c-.072.729-.145,1.53-.145,2.332-.173,2.768-1.735,2.929-1.385,3.28a12.4,12.4,0,0,0,.729,2.332L122.2,97.2c2.094,7.331,1.662,11.257,2.186,14.139.073.219.364.219.364,0,.741-3.257-.332-9.751-1.384-13.118,5.32.364,10.64.728,15.887,1.166.511.073.511-.729,0-.8C133.862,98.221,128.469,97.856,123.076,97.419Z" fill="#023047"></path><path d="M108.136,96.763c2.041.292,4.082.437,6.122.656.511.073.511-.729,0-.8-1.968-.218-4.009-.291-5.976-.656C107.845,95.961,107.626,96.69,108.136,96.763Z" fill="#023047"></path><path d="M177.3,80.584a19.9,19.9,0,0,1,8.672,2.259,10.662,10.662,0,0,1,5.175,5.393c1.353,3.936-.66,9.3-6.486,11.952a23.392,23.392,0,0,1-9.183,1.749c-.292,0-.292.511,0,.511a21.33,21.33,0,0,0,8.818-1.094c6.233-2.25,9.051-7.951,8.017-12.608-1.408-5.79-9.065-9.409-15.013-9.037A.441.441,0,0,0,177.3,80.584Z" fill="#2a9d8f"></path><path d="M107.99,95.888a2.117,2.117,0,0,0,.948-2.478,4.856,4.856,0,0,0-1.75-2.259c.921-.836,3.189-1.643,2.479-4.956-.146-.583-.364-1.53-.948-1.749-.145-.073-.365.073-.437.219-.146.437.218.874.364,1.239.583,1.9.146,3.425-1.6,4.3-.437.218-1.166.437-.656,1.093.874,1.02,3.28,2.842,1.384,4.227A.221.221,0,0,0,107.99,95.888Z" fill="#023047"></path><path d="M107.116,96.18c.146.071.291-.146.145-.218-3.445-1.989-6.571-2.882-12.534-5.466a3.455,3.455,0,0,1,.29-2.478c4.3-1.385,8.674-2.624,12.9-4.082a.266.266,0,0,0-.147-.51A139.071,139.071,0,0,0,93.56,87.507c-.874.292-4.154-.072-4.154,1.385,0,.073-1.384,4.665-1.6,5.685-.292,1.239-1.676,7-1.6,7-1.386-.729-2.405-1.967-3.644-2.842-.293-.219-.729.146-.438.437,1.021,1.021,2.041,2.041,3.134,2.988.875.729,1.676.51,1.968-.583,1.033-3.614,1.337-6.853,2.988-11.806,0,0,1.968.656,2.987.874a33.066,33.066,0,0,1,3.426,1.312C98.607,92.7,105.238,95.271,107.116,96.18Z" fill="#023047"></path><path d="M85.689,95.6c-1.822.291-3.644.729-5.466,1.02a.278.278,0,0,0-.218.365c2.843,9.953,1.639,8.429,2.259,9.255.48.769,1.261.071,9.037-1.53a.479.479,0,0,0,.364-.583,33.772,33.772,0,0,0-1.676-5.248c-.219-.583-1.166-.364-.947.292.51,1.6,1.093,3.207,1.53,4.81-.115-.46-7.366,2.108-7.579,1.9-.037-.1-1.835-8.741-2.26-8.6,1.677-.364,3.353-.8,5.029-1.166A.266.266,0,0,0,85.689,95.6Z" fill="#023047"></path><path d="M88.313,120.667a5.758,5.758,0,0,0-2.259.583c-.219.146-.219.584.072.656a5.1,5.1,0,0,0,2.333-.218c.895-.15,6.637-1.326,7.36-1.457a.479.479,0,0,0,.365-.583,57.278,57.278,0,0,0-2.843-9.11c-.072-.22-.364-.22-.51-.22a38.116,38.116,0,0,0-9.037,2.187c-.145,0-.364.146-.291.364.874,3.5.944,4.584,1.676,6.779.219.583,1.166.364.947-.293-.71-2.131-1.133-4.538-1.967-6.486,2.769-.583,5.611-1.312,8.454-1.676a51.9,51.9,0,0,1,2.478,8.09C94.315,119.468,88.413,120.649,88.313,120.667Z" fill="#023047"></path><path d="M49.322,110.538c8.527-1.532,17.346-2.843,25.727-5.248a1.131,1.131,0,0,0-.583-2.186c-6.7.874-13.337,2.915-19.823,4.809-1.9.511-3.717,1.24-5.539,1.822A.416.416,0,0,0,49.322,110.538Z" fill="#023047"></path><path d="M90.208,137.284a.461.461,0,0,0,.655.291c.438,0,8.892-1.6,9.183-1.967.365-.365.219-.875.073-1.312-.095-.332-2.609-7.776-2.915-8.235-.219-.365-.655-.218-.947-.146-.584.146-5.466,1.166-7.288,1.75-.219.072-.219.509.072.436a65.948,65.948,0,0,0,7.58-1.385c0,.1,2.935,8.09,2.624,8.09-.145.073-7.871,1.6-8.236,1.676-.073-.51-2.259-6.923-2.769-8.381-.073-.219-.437-.146-.365.073C88.24,129.851,90.006,136.55,90.208,137.284Z" fill="#023047"></path><path d="M56.829,141c4.61-.768,9.183-1.968,13.7-3.134,4.446-1.166,8.964-2.113,13.41-3.279a1.132,1.132,0,1,0-.583-2.187c-7.192,1.017-14.939,3.809-26.674,7.871C56.1,140.418,56.32,141.086,56.829,141Z" fill="#023047"></path><path d="M52.966,125.842c6.014-.467,19.849-4.286,21.718-4.737,1.458-.364,4.227-.51,5.248-1.9a.93.93,0,0,0-.292-1.239,4.526,4.526,0,0,0-2.769.219c-12.8,3.2-20.032,4.666-23.978,6.924A.372.372,0,0,0,52.966,125.842Z" fill="#023047"></path><path d="M64.554,72.275a7.506,7.506,0,0,0,3.28-1.02c.51-.437.145-1.093-.365-1.312-1.312-.437-2.769.073-4.081.365-17.356,3.958-20.851,4.376-25.071,6.486a.664.664,0,0,0,.365,1.239,50.875,50.875,0,0,0,7.871-1.749C49.532,75.688,55.04,74.121,64.554,72.275Z" fill="#023047"></path><path d="M41.6,85.831a44.035,44.035,0,0,0,7.434-1.676c9.511-2.378,7.7-1.879,16.616-3.79,1.531-.291,3.79-.291,5.1-1.385.51-.437.146-1.093-.365-1.311-2.186-.8-5.028.583-7.142,1.02-1.515.317-17.6,3.667-22.009,5.83C40.65,84.884,40.868,85.9,41.6,85.831Z" fill="#023047"></path><path d="M78.183,61.344a5.849,5.849,0,0,0-5.831,3.061,3.621,3.621,0,0,0,.146,3.644c.51.947,1.385.655,1.093-.219-.51-1.676,1.093-3.5,2.7-3.936A3.448,3.448,0,0,1,80.369,66.3c.875,2.624-1.385,3.426-2.7,5.1a4.783,4.783,0,0,0-.218,5.1c.583,1.02,2.478.947,2.7-.365.219-1.53-1.093-2.478.511-3.79,1.967-1.676,3.133-3.716,2.405-6.34A6.6,6.6,0,0,0,78.183,61.344Z" fill="#023047"></path><path d="M81.972,81.24A1.541,1.541,0,0,0,80.515,80,1.5,1.5,0,0,0,79.2,82.26C79.916,83.686,82.26,82.823,81.972,81.24Z" fill="#023047"></path><path d="M141.952,93.411a.382.382,0,0,0,.583.145c.437-.218.8-1.312.073-1.312A.845.845,0,0,0,141.952,93.411Z" fill="#023047"></path><path d="M142.608,97.638a.27.27,0,0,1-.219.072h-.146a.548.548,0,0,0-.29.146c-.2.194-.217.51.072.51.482.193,1.508-.379,1.676-1.384v-.656a1.455,1.455,0,0,0-.291-.583c-.364-.365-.81.078-1.239.291a4.117,4.117,0,0,0-.583.365c-.218.145-.364.291-.583.437a.2.2,0,0,0,.145.364,1.36,1.36,0,0,0,.51-.145,4.631,4.631,0,0,0,1.312-.729c0,.59.028.628-.073.729l-.072.072c-.146.438-.146.438-.219.511Z" fill="#023047"></path><path d="M28.114,44.8C20.906,46.535,9.8,47.083,6.1,53.546c-1.6,2.842-1.093,6.267-.728,9.328,1.465,11.513,5.195,29.088,7.725,41.1.94,4.441,7.81,40.42,15.742,67.34,1.493,5.228,2.652,11.26,13.774,12.172,11.531.848,27.2-4.88,36.877-7.945,39.622-13.2,53.735-14.308,56.774-25.215,2.249-7.879-3.709-23.778-5.977-31.338-.073-.219-.364-.438-.582-.365-3.266,1.13-8.637,1.716-11.88.218a.522.522,0,0,0-.8.657c1.895,6.485,3.353,13.044,5.248,19.459-1.785.594-76.548,23.087-80.095,24.195-.02-.1-12.174-48.844-14.576-60.052-2.478-11.369-8.235-40.157-8.818-43.145,7.321-1.91,6.805-1.63,7.069-1.9a1.223,1.223,0,0,0,.218-.874,40.351,40.351,0,0,1,.875-7.142,11.675,11.675,0,0,1,1.822-4.883C28.989,44.872,28.114,44.727,28.114,44.8Z" fill="#2a9d8f"></path></g></svg>