<svg viewBox="0 0 140 140" height="140" width="140" xmlns="http://www.w3.org/2000/svg"><g transform="matrix(0.7,0,0,0.7,0,0)"><path d="M194.888,112.267c.158-.1.158-.42-.053-.472a13.638,13.638,0,0,0-5.036-.525c-.262.052-.262.419,0,.419a38.843,38.843,0,0,1,4.3.473c-16.011,10.827-27.041,17.891-45.958,28.592-.1.056-13.12,7.235-13.22,7.134-.472-.156-50.679-16.106-54.141-17.312-.367-.1-1.312-.577-1.417-.472a14.349,14.349,0,0,1-8.918,3.2,11.116,11.116,0,0,1-9.549-5.719,14.926,14.926,0,0,1-.63-2.78,20.737,20.737,0,0,0-3.147-1.259c-.157-.053-.21.158-.052.21.524.21,1.993.892,2.2,1a4.488,4.488,0,0,0,.734.314,6.027,6.027,0,0,0,1.417,4.46c2.936,3.918,8.428,5.331,13.168,3.829a12.78,12.78,0,0,0,4.932-2.78c11,4.766,40.6,13.36,55.348,17.785.158.053,11.3-5.748,24.027-13.115C176.758,124.766,188.9,116.256,194.888,112.267Z" fill="#023047"></path><path d="M74.748,129.212c.1,0,.268,0,.32-.051a29.242,29.242,0,0,1,10.226-.946c6.9.473,13.785,3.548,22.926,6.715,17.765,6,22.629,6.358,25.444,7.765a.309.309,0,0,0,.472-.262c.491-.286,54.891-30.249,54.929-30.324a5.737,5.737,0,0,0-.315-2.465,22.158,22.158,0,0,0-3.672-7.4,20.092,20.092,0,0,0-1.994-2.36c-.2-.051-6.312-.438-8.761.052-.158.053-.105.262.052.21,1.049-.157,7.555.105,7.817.105-5.521,1.867-52.255,19.832-52.62,19.988a83.358,83.358,0,0,0-11.017-1.626,143.945,143.945,0,0,0-22.349.314c-13.693.82-22.769,2.245-22.874,2.256s-.1.263.052.21c12.76-1.093,30.993-2.814,43.7-2.1a98.314,98.314,0,0,1,11.018,1.259,9.8,9.8,0,0,1,1.207.209A36.946,36.946,0,0,1,131.2,124.6c2.224,5.261,2.774,11.74,2.571,17.417-2.349-.985-11.822-3.241-23.661-7.187-9.78-3.175-16.211-6.364-23.346-7.03a29.483,29.483,0,0,0-11.7,1.049c-.21-.262-7.135-1.154-8.5-1.364a.159.159,0,0,0,0-.21c-1.232-2.711-3.551-4.058-5.3-5.457-.21-.156-.578.158-.315.316,1.877,1.482,3.869,2.6,5.246,5.351C64.437,127.481,73.559,129.4,74.748,129.212Zm55.049-8.626c6.54-2.119,53.026-20.183,53.129-20.228a22.846,22.846,0,0,1,5.719,11.542c-.1.1-52.53,28.922-54.351,30.061C134.485,134.994,133.644,126.465,129.8,120.586Z" fill="#023047"></path><path d="M19.925,77.9c10.017,4.34,17.471,9.846,25.5,17.1,1.993,1.837,3.987,3.725,5.876,5.666a.222.222,0,1,0,.314-.314C39.9,88.293,29.976,81.924,20.554,77.694c3.27-.861,59.865-13.935,59.965-13.955.158-.053.1-.315-.052-.263-3.535.615-4.666.806-8.657,1.679-2.1.472-51.465,12.329-51.623,12.381C19.872,77.379,19.61,77.8,19.925,77.9Z" fill="#023047"></path><path d="M75.011,119.559c-.1.053-.053.21.052.157,3.62-1.153,7.24-2.413,10.912-3.462,13.547-3.7,26.217-4.9,44.489-2.886.1,0,7.449-2.1,11.017-3.2,7.981-2.5,16.269-5.4,20.985-7.188.1-.036,21.976-8,22.3-8.185.262,0,.367-.419.1-.472a166.059,166.059,0,0,0-28.435-1.783l-.315.472a171.088,171.088,0,0,1,27.6,1.574c-2.039.556-28.618,10.7-41.025,14.584-3.62,1.154-12.067,3.568-12.119,3.515a93.734,93.734,0,0,0-11.437-1,103.349,103.349,0,0,0-42.862,7.083A4.159,4.159,0,0,1,75.011,119.559Z" fill="#023047"></path><path d="M145.363,93.328c-.315.052-.315.472,0,.472,2.413-.21,4.879-.368,7.293-.525a2.184,2.184,0,0,0,.262-.472C150.4,92.96,147.881,93.118,145.363,93.328Z" fill="#023047"></path><path d="M110.843,90.022c-6.184-10.212-11.4-14.834-17.68-20.932-.1-.105-.315.052-.21.21,3.095,3.2,6.3,6.348,9.233,9.7,6.492,7.7,9.363,13.734,11.489,17.051.249.246.137.034.263-.472A62.177,62.177,0,0,0,110.843,90.022Z" fill="#023047"></path><path d="M125.427,75.333a.248.248,0,0,0-.262-.263,5.034,5.034,0,0,0-1.626.263,4.121,4.121,0,0,0-.21,1.469H121.44a13.869,13.869,0,0,0-.052-1.469.3.3,0,0,0-.315-.263c-1.871.342-1.941.279-1.941.473-1.444,6.906-2.857,8.186-5.141,19.988-.026.1-.643,3.288-1.1,6.872a.135.135,0,0,0,.263.053c3.262-18.472,4.721-18.672,6.506-26.7.472-.052.891-.157,1.363-.209.138,1.23-.11,1.678.315,1.678h2.414a.248.248,0,0,0,.262-.262,5.328,5.328,0,0,1,.105-1.312c.052-.157.839-.1,1-.157a13.966,13.966,0,0,1,.1,1.469.248.248,0,0,0,.262.262c.735.053,1.522.1,2.257.158a.248.248,0,0,0,.262-.263V75.6h2.1c.1.577.21,1.155.314,1.732,0,.1.158.21.263.21.629.052,1.311.1,1.941.157.421,0,.178-.415.315-1.784h2.2a14.865,14.865,0,0,0,.052,1.521.248.248,0,0,0,.262.263c.683,0,1.365,0,1.994-.053.383,0,.234-.413.367-1.626.683,0,1.365-.052,1.994-.105a10.26,10.26,0,0,0,.263,2.256c.209.314,1.993.158,2.465.105a.247.247,0,0,0,.262-.263V76.225a12.111,12.111,0,0,0,1.942-.158,14.717,14.717,0,0,0,.052,2.151c.053.735.053,1.47.053,2.151a84.561,84.561,0,0,1-.63,12.8c-.672,5.212-.829,4.889-.682,5.036-.892.106-7.555.945-10.02,1.312.23-.231.069-4.018-.21-5.509-.547-3.551-6.111-4.716-8.447.893a19.71,19.71,0,0,0-1.049,5.508c0,.105.21.157.21.053.63-2.728.734-5.876,3.042-7.87a3.984,3.984,0,0,1,2.309-1s-.735,8.5-.682,8.762a185.561,185.561,0,0,0-20.618,4.931c-.158.053-.105.262.053.21a229.442,229.442,0,0,1,40.921-7.187c.314-.053.314-.525,0-.525-1.732.1-3.515.263-5.247.419a80.479,80.479,0,0,0,1.679-17.312c0-.4-.044-5.3-.524-5.141-1.9.251-2.519-.164-2.519.262-.052.577-.105,1.154-.105,1.731-.315,0-1.731.157-1.836,0a21.373,21.373,0,0,1-.157-2.151.281.281,0,0,0-.262-.262c-3.331.418-2.58-.518-2.833,1.783H135.71c-.137-1.376.1-1.783-.315-1.783h-2.728a.248.248,0,0,0-.262.262,13.878,13.878,0,0,0-.052,1.47c-.473-.053-1-.053-1.469-.106l-.315-1.731c0-.1-.158-.21-.262-.21h-2.571a.247.247,0,0,0-.262.262V76.8c-.578-.052-1.208-.052-1.784-.105A4.807,4.807,0,0,1,125.427,75.333Zm3.778,24.972c.052-.157.367-8.656.315-8.656a2.959,2.959,0,0,1,3.147,2.36c.21.84.263,4.722.315,5.667C132.982,99.676,130.359,100.1,129.205,100.305Z" fill="#2a9d8f"></path><path d="M138.491,74.966c0,.157.262.157.262,0,.141-2.487.441-8.408.367-10.913A4.059,4.059,0,0,0,136.864,64a8.483,8.483,0,0,0-.63,1.731c-.262,0-.524-.052-.787-.052,0-.263,0-1.364-.052-1.627a.445.445,0,0,0-.367-.367c-.315-.052-1.941-.367-2.046.21a14.8,14.8,0,0,0-.158,1.521c-.314-.052-.576-.052-.891-.105a7.849,7.849,0,0,0-.472-1.573c-.158-.21-1.68-.158-1.784-.1,0,0-.21,2.046-.263,2.938-.42,7.647-.469,7.23-.416,8.132a.113.113,0,0,0,.21.053c.251-1.068.947-10.008.993-10.809a5.325,5.325,0,0,1,1,.1,6.059,6.059,0,0,1,.315,1.469.248.248,0,0,0,.262.263,10.1,10.1,0,0,1,1.26.105.241.241,0,0,0,.314-.263,8.125,8.125,0,0,1,.262-1.679,9.86,9.86,0,0,1,1.365.158v1.731c0,.157.1.21.262.262a9.277,9.277,0,0,0,1.207.1.347.347,0,0,0,.262-.21c.105-.314.472-1.626.525-1.678.1-.158,1.206-.053,1.468,0C138.624,65.575,138.445,71.9,138.491,74.966Z" fill="#2a9d8f"></path><path d="M135.763,52.669c-2.394,2.094-5.262,2.855-9.339,4.512a.274.274,0,0,0,.053.524c2.833.158,5.666.263,8.5.42-.158,1.364-.316,2.728-.42,4.04a.113.113,0,0,0,.21.052c.9-5.233.764-4.405,1.416-9.286C136.182,52.669,135.92,52.512,135.763,52.669Z" fill="#2a9d8f"></path><path d="M120.706,88.449c.944.105,3.515.052,3.515-.263a7.243,7.243,0,0,0-.368-3.672,1.3,1.3,0,0,0-2.255-.42c-1,1-1.155,2.728-1.26,4.04C120.391,88.239,120.391,88.449,120.706,88.449Z" fill="#2a9d8f"></path><path d="M129.1,87.924c.944.1,3.515.052,3.515-.262a7.256,7.256,0,0,0-.367-3.673,1.305,1.305,0,0,0-2.256-.419c-1,1-1.155,2.728-1.259,4.039C128.785,87.767,128.785,87.924,129.1,87.924Z" fill="#2a9d8f"></path><path d="M132.2,73.025c.945.1,3.515.052,3.515-.263a7.243,7.243,0,0,0-.367-3.672,1.305,1.305,0,0,0-2.256-.42c-1,1-1.154,2.728-1.259,4.04C131.88,72.815,131.88,72.972,132.2,73.025Z" fill="#2a9d8f"></path><path d="M137.756,87.767c.944.105,3.515.052,3.515-.263a7.254,7.254,0,0,0-.367-3.672,1.305,1.305,0,0,0-2.256-.42c-1,1-1.154,2.728-1.259,4.04C137.441,87.557,137.441,87.714,137.756,87.767Z" fill="#2a9d8f"></path><path d="M173.221,77.589c-.787,0-1.574.105-2.361.105a.106.106,0,1,0,0,.21c3.169,0,11.153.877,13.536,1,.957,0,.819-2.5.682-3.462-.388-1.812-1.665-2.8-3.358-1.836-.42-2.1-1.155-4.565-3.043-5.824a2.985,2.985,0,0,0-2.886-.367c-1.688.657-2.907,2.868-3.567,4.564a3.063,3.063,0,0,0-3.042-.524,3.3,3.3,0,0,0-2.047,2.046c-.052.262.315.419.42.209a3.377,3.377,0,0,1,1.679-1.626,2.585,2.585,0,0,1,2.885.63c.157.157.368.052.473-.1.592-1.584,1.643-3.589,3.094-4.46,1.842-.982,3.685.555,4.513,2.519a13.6,13.6,0,0,1,1.049,3.515c.052.157.262.262.367.157,1.354-1.083,2.4-.315,2.781.944a6.806,6.806,0,0,1-.158,3.1A86.912,86.912,0,0,0,173.221,77.589Z" fill="#2a9d8f"></path><path d="M166.138,74.966a3.816,3.816,0,0,0-1.731,1.049,8.143,8.143,0,0,0-2.833-5.719,2.936,2.936,0,0,0-3.358-.419,8.608,8.608,0,0,0-4.407,5.456,3.352,3.352,0,0,0-5.246,3.515.274.274,0,0,0,.525-.158,2.974,2.974,0,0,1,1.311-3.147,2.861,2.861,0,0,1,3.358.419c.157.158.42.1.42-.105.769-3.417,3.473-5.614,5.194-5.77,2.243-.2,4.539,3.592,4.406,6.61a.3.3,0,0,0,.473.21,4.079,4.079,0,0,1,1.679-1.312,1.762,1.762,0,0,1,1.836.577,3.588,3.588,0,0,1,.734,2.2,4.01,4.01,0,0,1-.157,1.311c-.105,0-18.414-.262-18.414-.262-.106,0-.106.21,0,.21,8.259.413,18.379.677,18.571.629.367-.1.472-.419.525-.787a4.95,4.95,0,0,0-.84-3.672A1.936,1.936,0,0,0,166.138,74.966Z" fill="#2a9d8f"></path><path d="M76.742,115.886c2.935-1.257,6.387-3.2,13.273-6.085,7.194-3.095,15.181-6.054,17.575-6.82,1.312-.472,2.623-.892,3.882-1.417.158-.052.105-.314-.052-.262-8.638,2.3-29.154,11-34.783,14.427C76.48,115.729,76.585,115.939,76.742,115.886Z" fill="#023047"></path><path d="M56.177,85.248c.1,0,.1.158,0,.21a2.056,2.056,0,0,1-1.469-.157c-.053-.053-.787-.472-.735-.525-1.367,1.52-.533,3.093,1.731,2.571a6.827,6.827,0,0,0,1.732-.63c.1-.052,1.626-.734,1.626-.682-.052-.315-.157-.629-.21-.944a1.63,1.63,0,0,0,1.522-.367,2.342,2.342,0,0,0,.472-2.309,2.1,2.1,0,0,1-.158-.787c.053-.209.263-.314.263-.577s-.263-.472-.368-.682c-.1-.157-1.049-1.941-1.1-1.888.052-.053.052-.1.105-.158a1.166,1.166,0,0,0-.263-.577c-1.863-2.949-7.14-.463-6.243,3.305.263,1.1.787,2.1,1.05,3.148C54.062,84.473,55.145,85.363,56.177,85.248Zm4.2-4.354c.157.21,0,.315-.105.472a.74.74,0,0,0-.053.472,3.623,3.623,0,0,1,.053,2.151c-.669,1.2-2.623.727-2.623-1.731-.088-1.492.155-3.147,1.573-3.62A23.272,23.272,0,0,0,60.374,80.894Z" fill="#023047"></path><path d="M62.367,84.881c-.052.158.053.315.21.21a2.168,2.168,0,0,0,.787-1.469c0-.105-.052-.367-.21-.367-.262-.053-.21.315-.21.472C62.944,84.25,62.543,84.53,62.367,84.881Z" fill="#023047"></path><path d="M63.312,85.039c-.053.1.1.209.157.1a2,2,0,0,0,.525-1.049c.145-.58-.227-1.015-.42-.629C63.469,83.779,63.811,84.44,63.312,85.039Z" fill="#023047"></path><path d="M64.256,84.934c-.053.105-.21.262-.21.367,0,.3.84-.248.84-1.312,0-.446-.473-.492-.473.1A1.363,1.363,0,0,1,64.256,84.934Z" fill="#023047"></path><path d="M63.207,87.924c.209,0,.419-.262.524-.42a7.188,7.188,0,0,0,1.679-3.043c.052-.1-.157-.157-.21-.052a8.727,8.727,0,0,1-1.941,2.99.934.934,0,0,0-.262.368C63.049,87.819,63.1,87.924,63.207,87.924Z" fill="#023047"></path><path d="M59.429,82.363c-.314,0-.472-.367-.787-.262-.314.157-.209.734-.209,1,.109.873.792,1.2,1.416.577.053-.052.21-.209.157-.314-.052-.263-.314,0-.419.052a.483.483,0,0,1-.63.053c-.21-.21-.157-.682-.157-.945a.8.8,0,0,0,.629.158c.21,0,.525-.105.577-.315,0-.053-.052-.21-.1-.158A.814.814,0,0,1,59.429,82.363Z" fill="#023047"></path><path d="M81.464,88.4a2.066,2.066,0,0,0-1.26-.052c-1.2.266-1.525.687-2.308,1.731a9.283,9.283,0,0,0-.883,1.4c-.071-.119-.144-.237-.219-.352-.524-.839-2.57-.157-3.41,0-1.993.367-3.934.84-5.876,1.364-.157.052-5.559-6.085-8.289-6.033-.7.014-4.833,2.884-6.138.419a2.009,2.009,0,0,1,.735-2.517l-.158-.158c-.58-.645-2.983.665-2.833,3.83.053,1.312.735,2.465.892,3.777.21,1.994.525,4.04.682,6.033,0,4.387-1.33,9.923-2.885,19.254-12.809-3.841-24.729-7.611-36.987-10.439a72.561,72.561,0,0,1,.735-8.29C14.433,90.3,17.222,85.52,18.036,83.2a161.531,161.531,0,0,1,32.684,21.93c.21.21.577-.158.315-.315A162.824,162.824,0,0,0,18.561,83.045a73.479,73.479,0,0,0,7.817-1.732c.105-.052.105-.262-.053-.262-6.383,1.125-7.438,1.459-8.072,1.73-.218,0-.232-.136-.395.006-.668.577-2.155,4.724-2.393,5.294a49.175,49.175,0,0,0-3.042,14.165c-.105,1.312-.105,2.571-.158,3.883-3.191,1.252-5.529,2.01-7.187,3.357-.157.1-.053.367.1.42,12.092,1.7,25.61,5.465,37.353,9.023a52.221,52.221,0,0,0,5.142,1.627c.217.044.787-.288.209-.578C44,118.521,31.841,115.133,28.9,114.312c-16.995-4.37-22.158-4.605-23.031-4.826a41.049,41.049,0,0,1,6.4-3.095c0,.1-.052.419-.052.472-.276.183,11.973,2.879,37.2,10.7-.158,1.1-.827,4.62-1,5.352-.049.21.21.314.315.262.839,0,1.731.052,2.57.052.368,0,.381,5.151,0,5.666a6.267,6.267,0,0,0-1.049,1.47c-.892,2.045,2.938,2.937,4.25,3.252.839.21,3.147.629,3.567-.472.262-.735-.734-1.26-1.206-1.627-.263-.209-2.991-2.413-2.886-2.675.2-.457.734-4,1.259-5.666,3.72-.417,4.974-2.119,13.693-8.394a11.733,11.733,0,0,1-.315,2.833,4.013,4.013,0,0,0-.315,2.36,1.754,1.754,0,0,0,.315,1.155c1,1.206,2.688.118,3.515-.682.853-.826,3.069-1.569,3.305-2.78a.663.663,0,0,0-.476-.8,10.232,10.232,0,0,0-3.668.172,49.474,49.474,0,0,0,2.046-8.656c.262-1.836,1.154-4.878-1.1-5.823a78.092,78.092,0,0,0-9.286-3.147c.157-1.05.315-2.047.472-3.1a16.575,16.575,0,0,0-2.728-1.364c-.105-.053,0-.263.1-.158a13.354,13.354,0,0,0,1.732.578,23.386,23.386,0,0,1-1.469-1.942c-.053-.105.105-.209.157-.157.682.787,3.515,4.092,6.505,4.669a21.243,21.243,0,0,0,5.771,0c.944-.052,5.771-.577,5.719-.839a25.86,25.86,0,0,0-1.991-5.273c.744-.764,1.515-2.023,1.938-2.386a4.059,4.059,0,0,1,2.1-.683C81.411,88.763,81.726,88.554,81.464,88.4ZM54.078,126.117c-.022.1-.577,2.64-.577,2.833a8.158,8.158,0,0,1-1.417-.315,12.87,12.87,0,0,0,.1-1.521,16.662,16.662,0,0,0-.472-3.778c.158,0,2.308.053,3.2,0A10.618,10.618,0,0,0,54.078,126.117Zm13.85-15a21.194,21.194,0,0,1-3.043,3.094c-.157.105-.37-.054-.21-.209a30.087,30.087,0,0,0,3.2-3.567,4.76,4.76,0,0,1,.944-1.154c.105-.106.21,0,.21.105A4.428,4.428,0,0,1,67.928,111.113Zm1.312,3.515a11.66,11.66,0,0,1,2.255-.892c-.314,1.259-.613,2.471-1,3.672-.05.158-1.417.315-1.417.368A25.233,25.233,0,0,0,69.24,114.628Zm-.368-8.552c.105-.053.263.053.158.158-1.154,1.521-2.571,2.832-3.777,4.249-3.964,4.6-5.567,7.315-8.814,9.024-.1.052-.158-.106-.1-.157C60.538,116.947,64.33,109.542,68.872,106.076Z" fill="#023047"></path><path d="M81.831,89.655c.245,0,.275-.367.105-.367a1.984,1.984,0,0,0-1.627.158c-.105.1,0,.262.105.209A4.74,4.74,0,0,1,81.831,89.655Z" fill="#023047"></path><path d="M80.939,90.337a1.918,1.918,0,0,1,.944.053c.158.052.787.157.578-.21-.105-.157-.315-.157-.473-.21a1.552,1.552,0,0,0-1.1.105C80.677,90.18,80.782,90.39,80.939,90.337Z" fill="#023047"></path><path d="M78.631,93.223a1.716,1.716,0,0,0,1.731-.84c.157-.367.21-.839.577-1.049a1.454,1.454,0,0,1,1.049-.052c.105.052.21-.158.105-.21a1.559,1.559,0,0,0-1.1-.21,1.278,1.278,0,0,0-.787.682,3.42,3.42,0,0,1-.419.892c-.315.315-.787.262-1.154.472C78.631,93.013,78.368,93.223,78.631,93.223Z" fill="#023047"></path><path d="M117.243,66.939a6.957,6.957,0,0,0-.053-1.049,7.254,7.254,0,0,0-3.567-5.142,37.533,37.533,0,0,0-14.27-3.987c-.262,0-.367.158.053.367a10.91,10.91,0,0,1,2.413,1.941,3.035,3.035,0,0,1,.787,2.886c-.052.262.157.367.315.21a1.827,1.827,0,0,1,2.36.052,3.9,3.9,0,0,1,1.155,2.571c0,.157.1.21.262.157,5.552-2.561,6.748-1.319,9.129,2.728a6.506,6.506,0,0,0-1.26.735c-2.294,1.435-4.027,4.016-6.5,5.351l-2.99,1.521c-.157.053-.315.053-.473.105-.157,0-.105.21.053.263,4.108.178,6.821-3.156,8.814-3.725-.1.262-.053.524-.157.787-.053.157-.158.262-.21.419-.106.21-.211.63.157.473a1.122,1.122,0,0,0,.524-.577c.106-.21.106-.473.211-.735.052-.157.209-.262.314-.367,0,0,.368-.21.315-.21a5.929,5.929,0,0,0-.105.734,5.492,5.492,0,0,0-.367.578c-.3.6.651.2.839-.368.105-.262.158-.734.525-1a3.075,3.075,0,0,0,1.469-.63c1.054-.773,2.082-2.211,2.833-2.361a25.159,25.159,0,0,0,2.78-.42,6.759,6.759,0,0,0,1-.262c.105-.052.157-.157.052-.21-.157-.157-.419-.157-.944-.105.262-.262.578-.314.735-.577a.4.4,0,0,0,.052-.472c-.105-.21-.472-.1-.63-.1a6.277,6.277,0,0,1-1.678-.157,2.237,2.237,0,0,0-2.151.105c-.105.105-.21.21,0,.21a8.347,8.347,0,0,1,1.154,0,3.237,3.237,0,0,1-.944.367,2.863,2.863,0,0,1-.944.052,25.95,25.95,0,0,0,2.045-6.19c.366-2.684-.691-4.286-2.255-6.453a12.469,12.469,0,0,0-2.729-2.781c-.157-.1-.262.053-.209.21a6.3,6.3,0,0,1,1.049,2.308,2.6,2.6,0,0,1-.787,2.361c-.158.1-.1.21.053.263a2.006,2.006,0,0,1,1.363,1.521,1.838,1.838,0,0,1-.944,1.836c-.209.053-.209.158,0,.263.735.367,1.836,1.1,2.046,1.993A9.946,9.946,0,0,1,117.243,66.939Z" fill="#2a9d8f"></path><path d="M59.062,79.74c-.279.086-.3.663.052.839a.3.3,0,0,0,.368-.21C59.534,80.159,59.427,79.627,59.062,79.74Z" fill="#023047"></path><path d="M88.493,73.077A57.836,57.836,0,0,0,82.618,68.2c-.1-.1-.263.105-.158.21a73.369,73.369,0,0,1,20.723,27.228c.1.262.525.052.472-.21C101.435,89.084,95.528,79.665,88.493,73.077Z" fill="#2a9d8f"></path><path d="M73.7,69.824c-.155-.107-.315.158-.157.263A68.493,68.493,0,0,1,79.1,74.861c12.261,11.54,15.472,22.042,17.1,24.6a.178.178,0,0,0,.314-.158c-.427-2.454-5.747-14.539-16.316-24.342A66.321,66.321,0,0,0,73.7,69.824Z" fill="#2a9d8f"></path><path d="M76.794,82.94a40.332,40.332,0,0,0,2.886,3.253c.1.105.315-.053.262-.21a3.9,3.9,0,0,0-.472-.787,61.018,61.018,0,0,0-4.459-5.246,64.443,64.443,0,0,0-9.181-8.027c-.158-.105-.315.105-.21.262A94.6,94.6,0,0,1,76.794,82.94Z" fill="#2a9d8f"></path><path d="M83.352,92.8c-.157-.21-.472,0-.315.21,2.855,4.533,4.077,8.323,4.617,8.971.105.157.315,0,.315-.157a2.9,2.9,0,0,0-.315-1.154A34.842,34.842,0,0,0,83.352,92.8Z" fill="#2a9d8f"></path><path d="M71.233,88.763a12.615,12.615,0,0,0,.735,1.05c.157.21.524.052.367-.21-.123-.246-.7-1.416-1.049-1.941-.367-.63-.84-1.259-1.259-1.836C66.381,80.584,60.846,75.661,56.806,73.5c-.157-.105-.315.157-.157.262a61.052,61.052,0,0,1,6.767,5.456A50.574,50.574,0,0,1,71.233,88.763Z" fill="#2a9d8f"></path><path d="M76.952,99.833c-.1-.159-.367,0-.262.158A41.905,41.905,0,0,1,79,105.026a5.958,5.958,0,0,0,.682,1.68.2.2,0,0,0,.315-.053,3.945,3.945,0,0,0-.368-1.731A24.9,24.9,0,0,0,76.952,99.833Z" fill="#2a9d8f"></path><path d="M50.773,78.533c-.105-.157-.262-.262-.367-.419a11.107,11.107,0,0,0-2.728-1.942c-.158-.105-.315.158-.158.263a31.527,31.527,0,0,1,2.466,2.151c.672.672.568.6.839.734a.189.189,0,0,0,.263-.262A1.053,1.053,0,0,0,50.773,78.533Z" fill="#2a9d8f"></path><path d="M157.115,89.865a19.034,19.034,0,0,0,1.783-3.672.722.722,0,0,0-.681-.892,5.153,5.153,0,0,0-.893.052,26.674,26.674,0,0,0,2.781-3.987.311.311,0,0,0-.367-.367,6.228,6.228,0,0,0-2.151,1.889c-.787.892-1.469,1.836-2.2,2.833a.7.7,0,0,0,.578,1.049,8.412,8.412,0,0,0,1.154-.053c-.578,1.312-4.617,8.132-4.775,9.024a.387.387,0,0,0,.63.367C153.809,95.531,156.421,91.065,157.115,89.865Z" fill="#2a9d8f"></path><path d="M61.9,84.461a1.084,1.084,0,0,1,.21-.314c.072-.145-.226-.178-.367.1-.733.732-.078,1.552-.42,2.151-.158.262.262.472.42.262.262-.367.105-.892.105-1.312A.905.905,0,0,1,61.9,84.461Z" fill="#023047"></path></g></svg>