<svg viewBox="0 0 140 140" height="140" width="140" xmlns="http://www.w3.org/2000/svg"><g transform="matrix(0.7,0,0,0.7,0,0)"><path d="M20.839,109.19a6.251,6.251,0,0,0,1.9-.566.187.187,0,0,0-.048-.338,3.708,3.708,0,0,0-1.916.3,15.487,15.487,0,0,0-5.664,2.989.156.156,0,0,0,.193.241A24.458,24.458,0,0,1,20.839,109.19Z" fill="#2a9d8f"></path><path d="M16.971,113.106c1.506-.179,2.659-.744,4.724-.867a3.131,3.131,0,0,0,1.229-.133.169.169,0,0,0,0-.289,2.5,2.5,0,0,0-1.458-.157,13.523,13.523,0,0,0-4.579,1.145C16.74,112.866,16.8,113.106,16.971,113.106Z" fill="#2a9d8f"></path><path d="M46.676,152.934c2.636.541,3.1,3.849,3.616,5.255a3.27,3.27,0,0,0,2.253,1.867c4.654,1.684,9.9.266,18.1,8.087.229.217.546-.111.35-.35a20.587,20.587,0,0,0-6.134-4.772c-5-2.706-8.279-2.306-11.653-3.35a4.54,4.54,0,0,1-1.952-.952,4.333,4.333,0,0,1-.76-1.916c-.556-1.967-1.626-4.122-3.892-4.435-2.711-.374-5.182,1.94-6.447,4.109a.148.148,0,0,0,.229.181,28.692,28.692,0,0,1,2.6-2.675A4.728,4.728,0,0,1,46.676,152.934Z" fill="#2a9d8f"></path><path d="M141.516,129.387c.222-.295.484-.705.928-.554a.681.681,0,0,1,.4.458c.047.145.036.29.169.4a.161.161,0,0,0,.193.024c.472-.2.116-1.242-.663-1.422-.556-.128-1.419.358-1.254,1.025C141.314,129.423,141.454,129.47,141.516,129.387Z" fill="#2a9d8f"></path><path d="M146,129.99a.629.629,0,0,1,.76-.567c.362.117.364.48.578.723a.19.19,0,0,0,.289-.036c.275-.543-.433-1.148-.928-1.193-.566-.052-1.18.5-.964,1.073C145.78,130.111,145.975,130.134,146,129.99Z" fill="#2a9d8f"></path><path d="M144.336,128.869c0,2.992-2.229,3.281.036,3.941a.2.2,0,0,0,.157-.362c-.191-.123-.81-.329-.663-.458a4.447,4.447,0,0,0,.735-3.145A.136.136,0,0,0,144.336,128.869Z" fill="#2a9d8f"></path><path d="M143.758,134.6a1.346,1.346,0,0,0,1.928.458c.409-.279,1-1.382.325-1.663a.138.138,0,0,0-.168.072c-.1.169-.027.3-.037.482-.036.658-.737,1.281-1.867.482C143.819,134.351,143.709,134.5,143.758,134.6Z" fill="#2a9d8f"></path><path d="M145.975,175.385c1.868.422,3.773.658,5.652.928,5.638.809,5,.488,13.039-2.555a15.247,15.247,0,0,0,2.724-1.108.225.225,0,0,0-.169-.41c-.823.132-.88.263-5.278,1.94a38,38,0,0,1-5.014,1.759c-2.723.619-6.059-.6-10.918-.855C145.816,175.084,145.835,175.385,145.975,175.385Z" fill="#2a9d8f"></path><path d="M148.625,24.8c-10.118-9.81-29.571-8.554-39.153,5.268-6.935,10.006-6.16,23.916-1.41,31.745l-5.054,10.662a.805.805,0,0,0,.965,1.126c3.273-1.229,6.793-2.75,11.056-4.777,14.425,9.079,38.692,3.29,42.2-17.209A31,31,0,0,0,148.625,24.8Zm3.29,36.1c-7.876,11.4-25.314,12.991-35.642,6.809a3.063,3.063,0,0,0-1-.569c-.53-.106-1,.292-1.281.425-3.672,1.729-4.908,2.288-8.674,3.8,4.686-9.925,4.478-9.329,4.446-9.523.036-.768-1.844-2.34-2.927-7.359-2.629-12.176,1.118-23.283,10.023-29.713,9.4-6.787,23.125-6.1,30.631,1.172C156.771,34.932,158.8,50.939,151.915,60.9Z" fill="#023047"></path><path d="M84.54,122.6a.2.2,0,0,0,.084.338,3.5,3.5,0,0,1,1.278.3c.408.244.56.67.9.964a.23.23,0,0,0,.373-.1C87.624,122.92,85.411,121.8,84.54,122.6Z" fill="#2a9d8f"></path><path d="M81.672,122.53c-.88.023-2.046.557-2.193,1.531a.23.23,0,0,0,.385.217,2.8,2.8,0,0,1,1.82-.989A.38.38,0,0,0,81.672,122.53Z" fill="#2a9d8f"></path><path d="M80.5,125.748c-.462.439-.1,1.406.615,1.241C82.4,126.693,81.02,124.817,80.5,125.748Z" fill="#2a9d8f"></path><path d="M84.986,125.88c-.462.44-.1,1.407.615,1.242C86.882,126.826,85.5,124.95,84.986,125.88Z" fill="#2a9d8f"></path><path d="M84.468,129.1c.1-.276-.325-.53-.506-.3-.24.3-.731.515-1,.1s-.06-1.181,0-1.639a23.529,23.529,0,0,0,.338-3.314.18.18,0,0,0-.35-.048,14.1,14.1,0,0,0-.578,2.82,5.377,5.377,0,0,0-.133,2.3A1.189,1.189,0,0,0,84.468,129.1Z" fill="#2a9d8f"></path><path d="M85.516,130.182a14.772,14.772,0,0,1-2.711,1.41.333.333,0,0,0-.362.386,4.386,4.386,0,0,0,.651,2.109c.931,1.058,3.455.426,2.868-3.724A.313.313,0,0,0,85.516,130.182ZM83.4,133.448a5.32,5.32,0,0,1-.361-1.518,6.059,6.059,0,0,0,2.386-.964C85.654,133.927,83.913,134.449,83.4,133.448Z" fill="#2a9d8f"></path><path d="M75.478,179.952c-.079-.334-1.243-5.566-1.545-5.727,1.019-2.914-.013-7.323-1.034-10.24a.168.168,0,0,0-.325.084,25.458,25.458,0,0,1,1.169,6.194,8.156,8.156,0,0,1-.543,4.254c-1.093,2.208-4.1,3.261-8.026.8a57.68,57.68,0,0,1-7.833-6.4c-2.842-2.743-2.638-2.814-3.386-3.362-1.353-.993-2.889-.257-4.712-1.206a5.487,5.487,0,0,1-2.832-3.53.366.366,0,0,0-.53-.217,6.328,6.328,0,0,0-2.748,5.073c-.009.374.53.362.567,0a6.333,6.333,0,0,1,2.169-4.17,6.118,6.118,0,0,0,2.109,2.881,6.335,6.335,0,0,0,4.085,1.229c2.151.155,2.022,1.736,8.592,7.146,2.433,2,5.3,4.609,8.641,4.615a4.548,4.548,0,0,0,4.412-2.6c.241,1.8.7,3.573,1.107,5.359C74.914,180.566,75.581,180.387,75.478,179.952Z" fill="#2a9d8f"></path><path d="M121.44,141.836c-2.69,7.4.985,14.1-2.23,24.68-.713,2.349-1.71,5-4.085,6.122-2.907,1.369-5.116-.982-7.351-3.327,0-.1.125-12.524-.675-13.1a9.4,9.4,0,0,1-2.591-3.856,37.638,37.638,0,0,1-3.446-13.521,6.93,6.93,0,0,1,5.411-.928c3.33.927,4.47,4.059,5.7,7.291.966,2.539.927,3,1.241,3.519a29.363,29.363,0,0,0-2.061,7.628,31.8,31.8,0,0,0-.313,8.255.151.151,0,0,0,.3,0c.691-14.612,3.2-15.309,4.435-19.993.825-3.134-.37-6.178-.181-7.568.207-1.519,2-1.325,2.808-.433a17.461,17.461,0,0,1,1.711,2.566c.218.35.77.025.554-.325-.883-1.432-1.831-3.675-3.844-3.591-2.94.122-1.587,4.121-1.446,5.832.234,2.839-.524,4.49-1.567,6.713-1.241-3.448-2.244-6.269-3.434-7.906-2.05-2.818-6.495-3.892-9.327-1.59-.012-.229-.024-.458-.024-.687a.345.345,0,0,0-.35-.35c-3.783.426-3.87.288-3.941.6-.206.922-.153.833-.229.831a3.151,3.151,0,0,1-2.072-.626c-1.692-1.354-1.757-4.6-1.724-6.773a2.792,2.792,0,0,0,.651-5.543c.422-2.11.723-4.239-.12-6.206a6.463,6.463,0,0,0,1.506-.241c.333,2.393,2.06,3.209,3.374,2.687a2.61,2.61,0,0,0,1.627,1.253,1.44,1.44,0,0,0,1.615-.976,2.264,2.264,0,0,0-1.434-2.856c.471-1.814-1.011-3.888-4.242-3.6a3.071,3.071,0,0,0-1.567-1.531,3.079,3.079,0,0,0,2.23-2.313c.086-.47-.06-.606.614-.8a4.086,4.086,0,0,0,.989-.385c.974-.581,1.556-2.137.361-2.844-1.167-.691-2.7.084-3.591.952a3.536,3.536,0,0,0-5.4,2.169,4.3,4.3,0,0,0-2.723.807,2.268,2.268,0,0,0-2.145-1.373,2.782,2.782,0,0,0-3.579-3.037,4.171,4.171,0,0,0-2.037-1.3c-2.1-.583-3,.995-1.651,2.145a2.179,2.179,0,0,0,1.362.518c-.481,1.395.448,3.075,2.663,3.254a2.925,2.925,0,0,0-.4.856,3.067,3.067,0,0,0-2.241-.808c.127-2.191-2.325-3.808-4.748-2.3-.482-1.446-2.373-2.457-3.64-1.229-.746.723-.478,1.55.145,2.241a3.26,3.26,0,0,0,2.157,1.289c.25,1.727,1.974,3.068,4.821,2.411a3.141,3.141,0,0,0,.554,1.12,3.74,3.74,0,0,0-3.712,2.447,2.911,2.911,0,0,0-2.988,2.109,1.658,1.658,0,1,0-.29,3.265,1.908,1.908,0,0,0,1.278-.687c.434-.418.487.08,1.6-.168a2.594,2.594,0,0,0,1.928-1.916,3.36,3.36,0,0,0,2.88-.543c.4.6-.912,7.158-.35,12.172a4.626,4.626,0,0,0,4.869,4.422c-.069,1.834-.334,2.59-3.278,3.314-.024.012-.048.012-.072.024-.466-1-.512-1.421-.892-1.325a25.636,25.636,0,0,0-3.832,1.362c-.723.309-.451-.018-2.133.457a11.532,11.532,0,0,0-7.026,5.929c-.193.386.386.724.579.338a11.434,11.434,0,0,1,4.085-4.483,9.884,9.884,0,0,1,4.422-1.555c2.481,7.52.388,13.06.1,15.052-.026.18.217.313.313.132,1.037-1.946,1.419-5.447,1.434-7.724a24.137,24.137,0,0,0-1.2-7.664,22.676,22.676,0,0,1,3.145-1.109c1.471,3.41,3.594,6.8,7.135,8.351,3.763,1.646,7.244.333,9.351-3.193a20.622,20.622,0,0,0,2.121-6.339l2.976-.289a38.559,38.559,0,0,0,3.76,15.1c.466.962,1.684,3.418,2.784,3.784.8,19.865-.91,22.013-.566,23.548a.265.265,0,0,0,.482.06c.544-1.1.926-9.343.964-10.629,1.422,1.784,3.374,3.89,5.76,3.8,5.028-.2,6.832-7.552,7.472-12.521.877-6.823-.943-12.5,1.036-19.161C122.151,141.619,121.571,141.474,121.44,141.836Zm-29.465,5.206c-3.265,1.976-7.147.037-9.435-2.519a16.768,16.768,0,0,1-2.507-3.832,5.845,5.845,0,0,0,2.808-1.241,2.484,2.484,0,0,0,.614-2.712,10.482,10.482,0,0,0,6.291-2.892c.181-.169-.048-.422-.253-.325-1.895.9-3.556,2.319-5.736,2.506a4.355,4.355,0,0,1-4.483-2.2,7.742,7.742,0,0,1-.494-3.025c-.148-6.71.556-8.558.494-10.352a11.378,11.378,0,0,1,5.5-1.108c1.366.021,3.33.01,4.411.7.907.578.192,1.084.192,5.025a4.876,4.876,0,0,0,.314,2.458.91.91,0,0,0,1.434.277c.418-.377.316-.889.952-1.4a2.278,2.278,0,0,1,3.025,1.819,2.208,2.208,0,0,1-2.615,2.41.329.329,0,0,0-.41.314c-.024,1.976-.074,4.278.759,6.122.577,1.277,2.1,2.675,3.591,2.181C95.723,142.245,94.723,145.379,91.975,147.042Z" fill="#2a9d8f"></path><path d="M117.957,134.256c2.183-5.555,5.39-6.622,5.688-7.291a.236.236,0,0,0-.2-.35c-.663,0-1.4.791-1.88,1.2a12.313,12.313,0,0,0-3.916,6.339A.164.164,0,0,0,117.957,134.256Z" fill="#2a9d8f"></path><path d="M120.162,136.847c-.215.3.276.685.519.4a8.237,8.237,0,0,0,1.819-4.422c.06-.6-.1-1.166-.771-1.278a1.617,1.617,0,0,0-1.47.783.179.179,0,0,0,.253.254,1.887,1.887,0,0,1,.771-.482c.362-.061.568.3.578.614a5.027,5.027,0,0,1-.325,1.506A9.214,9.214,0,0,1,120.162,136.847Z" fill="#2a9d8f"></path><path d="M123.03,133.087a.177.177,0,0,0,0,.337,1.664,1.664,0,0,0,.241.06c.27,3.33-1.52,4.094-1.759,4.833a.181.181,0,0,0,.181.229c1.186-.132,2.833-3.106,2.06-5.339a.257.257,0,0,0-.241-.181A3.62,3.62,0,0,0,123.03,133.087Z" fill="#2a9d8f"></path><path d="M124.705,134.967a.161.161,0,0,0-.192.253c1.735,2.1-1.466,4.6-2.169,5.471-.108.133-.013.409.192.325C124.572,140.184,126.85,135.887,124.705,134.967Z" fill="#2a9d8f"></path><path d="M98.037,134.219c-.024.169.218.314.3.133,1.5-3.251,3-12.045,12.4-15.678a.162.162,0,0,0-.085-.313c-3.2.781-5.92,3.118-7.905,5.675A26.741,26.741,0,0,0,98.037,134.219Z" fill="#2a9d8f"></path><path d="M140.974,114.191a10.292,10.292,0,0,1,3.037,1.193c.168.062.265-.169.157-.277a4.607,4.607,0,0,0-3.158-1.193C140.827,113.911,140.845,114.191,140.974,114.191Z" fill="#2a9d8f"></path><path d="M119.692,109.106c.193.686,1.432.4,1.892.229a.434.434,0,0,0,.253-.639C121.449,108.02,119.456,108.265,119.692,109.106Z" fill="#023047"></path><path d="M128.73,108.7c-.281-.7-2.2-.9-2.2,0,0,.8,1.434.637,1.9.53A.43.43,0,0,0,128.73,108.7Z" fill="#023047"></path><path d="M144.553,106.744a10.917,10.917,0,0,0-4.169-6.677,13.532,13.532,0,0,0,2.181-.831.248.248,0,0,0,0-.422,10,10,0,0,1-2.242-1.771,14.511,14.511,0,0,0,1.941-.7c.181-.083.134-.329,0-.422-2.114-1.468-4.3-2.856-6.448-4.278a6.2,6.2,0,0,1,1.928-.579.242.242,0,0,0,.121-.445,18.3,18.3,0,0,0-5.857-2.953,6.109,6.109,0,0,0,1.374-2.193c.071-.193-.132-.312-.289-.289-2.4.352-4.808.578-7.231.735a7.957,7.957,0,0,0,1.037-1.579.235.235,0,0,0-.265-.337,11.843,11.843,0,0,0-4.64,2.555c.145-.748.274-1.5.422-2.254.035-.181-.2-.384-.35-.205-7.038,8.591,1.494,2.484-11.556,4.471-.253.038-.229.373-.061.494.581.419,1.169.856,1.748,1.277a34.193,34.193,0,0,1-4.893,2.7.281.281,0,0,0-.06.434,3.439,3.439,0,0,0,2,.891,26.51,26.51,0,0,1-3.362,3.567.252.252,0,0,0,0,.362,5.793,5.793,0,0,0,2.109,1.072,12.7,12.7,0,0,0-2.133,6.689.247.247,0,0,0,.458.12,2.2,2.2,0,0,1,1.338-.952,22.918,22.918,0,0,0-.639,5.688.241.241,0,0,0,.361.2,4.4,4.4,0,0,1,2.073-.747,9.666,9.666,0,0,0,.289,7.062.246.246,0,0,0,.386.048c.3-.319.578-.639.844-.964.284,1.462,2.646,4.792,3.506,6a.241.241,0,0,0,.446-.121c.044-.831.085-1.662.133-2.506a4.857,4.857,0,0,1,2.277,2.639.24.24,0,0,0,.458,0,26.844,26.844,0,0,0,.952-2.82,7.258,7.258,0,0,1,3.013,2.868c1.227,1.053,1.5-1.67,1.567-1.783,3.181,2.652,2.908,13.578,2.928,13.678a.192.192,0,0,0,.349.048c1.027-1.7-.572-7.513.422-12.485.169.506.35,1,.518,1.506a.266.266,0,0,0,.507,0,6.547,6.547,0,0,1,2.337-3.061,5.771,5.771,0,0,0,.579,2.567c.108.229.409.121.482-.06.71-1.772,1.518-3.675,3.121-4.82.277.651.542,1.3.82,1.952a.278.278,0,0,0,.457.12,9.953,9.953,0,0,0,2.013-3.434,9.067,9.067,0,0,1,1.554,1.506.274.274,0,0,0,.434-.06,9.932,9.932,0,0,0,.434-7.23,2.909,2.909,0,0,1,1.555,1.241.283.283,0,0,0,.518-.145,25.717,25.717,0,0,0,.048-5.664,2.833,2.833,0,0,1,1.808.567C144.372,107.177,144.589,106.936,144.553,106.744Zm-2.458-.772c-.652.072.177.828-.241,5.459a3.578,3.578,0,0,0-1.952-1.06c-.181-.036-.422.12-.338.337a9.4,9.4,0,0,1-.048,6.905,9.9,9.9,0,0,0-1.675-1.47.276.276,0,0,0-.4.169,9.518,9.518,0,0,1-1.723,3.242c-.253-.615-.526-1.227-.771-1.844a.268.268,0,0,0-.4-.157,9.488,9.488,0,0,0-3.35,4.688,5.164,5.164,0,0,1-.253-2.217.266.266,0,0,0-.4-.229,6.9,6.9,0,0,0-2.723,2.988c-.169-.482-.341-.963-.507-1.446a.261.261,0,0,0-.433-.108c-.63.618-.631,4.475-.687,5.664-.33-1.336-1.59-5.982-2.82-6.6a.235.235,0,0,0-.289.036c-.892,1.037.233,1.685-1.133,1.771a6.784,6.784,0,0,0-3.242-2.88.24.24,0,0,0-.349.145,19.427,19.427,0,0,1-.8,2.518,5.187,5.187,0,0,0-2.6-2.518.244.244,0,0,0-.361.2c-.041.734-.072,1.458-.109,2.193-.566-.808-1.112-1.625-1.626-2.47-.607-1-1.459-2.157-1.447-3.375a.246.246,0,0,0-.457-.12,10.923,10.923,0,0,1-.916,1.121,8.989,8.989,0,0,1,0-6.689.234.234,0,0,0-.229-.3,5.1,5.1,0,0,0-2.314.627,21.841,21.841,0,0,1,.711-5.5.249.249,0,0,0-.229-.314,2.7,2.7,0,0,0-1.591.663,11.936,11.936,0,0,1,2.23-6.013.255.255,0,0,0-.145-.374,5.646,5.646,0,0,1-2.024-.868,28.836,28.836,0,0,0,3.555-3.844c.12-.156-.049-.407-.229-.4a2.888,2.888,0,0,1-1.808-.506,33.1,33.1,0,0,0,4.832-2.747.276.276,0,0,0,0-.47c-.519-.373-1.024-.747-1.542-1.121a23.644,23.644,0,0,1,7.76.193c.542.1-.8.3,2.832-4.182-.144.711-.289,1.42-.421,2.133a.224.224,0,0,0,.373.217,11.336,11.336,0,0,1,4.411-2.748,7.542,7.542,0,0,1-1.073,1.411.235.235,0,0,0,.169.4c2.5-.141,4.989-.385,7.472-.711a5.7,5.7,0,0,1-1.41,1.916.241.241,0,0,0,.108.4,18.169,18.169,0,0,1,5.664,2.675,6.694,6.694,0,0,0-1.928.735.237.237,0,0,0,0,.41c2.133,1.422,4.278,2.844,6.411,4.254a13.473,13.473,0,0,1-1.82.6.248.248,0,0,0-.108.409,9.683,9.683,0,0,0,2.217,1.916,11.715,11.715,0,0,1-2.169.735.246.246,0,0,0-.06.446,10.321,10.321,0,0,1,4.242,6.1A2.713,2.713,0,0,0,142.1,105.972Z" fill="#2a9d8f"></path><path d="M124.73,110.238a.18.18,0,0,0,0-.3c-.362-.17-1.2,0-.82-1.085a4.915,4.915,0,0,0,.217-2.675c-.036-.169-.277-.12-.289.036a10.974,10.974,0,0,1-.265,1.868c-.123.482-.511,1.049-.41,1.555A1.086,1.086,0,0,0,124.73,110.238Z" fill="#2a9d8f"></path><path d="M124.489,112.166c-.26.378-.049,1.013-.711,1.013-.567,0-.788-.639-.76-1.121.011-.181-.242-.193-.3-.036a1.2,1.2,0,0,0,1,1.651,1.075,1.075,0,0,0,1.037-1.507A.149.149,0,0,0,124.489,112.166Z" fill="#2a9d8f"></path><path d="M131.671,103.586a7.983,7.983,0,0,1-1.494-1.639,3.322,3.322,0,0,1,.952-.385.246.246,0,0,0,.144-.35,5.891,5.891,0,0,0-2.446-2.229c.325-.193.664-.371,1.012-.542a.231.231,0,0,0-.06-.422,15.277,15.277,0,0,0-4.35-.771,5.633,5.633,0,0,0,.554-1.748c.026-.18-.146-.364-.326-.253-2.357,1.461-4.107,2.253-6.386,1.567-.2-.062-.436.194-.3.385a9.385,9.385,0,0,1,.94,1.639,7.991,7.991,0,0,0-2.4.241.265.265,0,0,0-.06.482c.64.287,1.289.579,1.928.88-1.036.976-2.088,1.912-3.169,2.832-.17.144-.049.374.12.446a2.462,2.462,0,0,0,1.832.036,9.6,9.6,0,0,1-1.338,2.229c-.133.168-.072.507.193.47.6-.046.47-.327.253.531-.248.98-.808,3.224-1.036,4.2a.22.22,0,0,0,.361.217,8.165,8.165,0,0,1,1.9-1.265c-.77,3.692-1.558,4.163-1.072,4.338a3.163,3.163,0,0,0,2.494-.144c-.048.337-.11.686-.156,1.024a.218.218,0,0,0,.313.241,5.039,5.039,0,0,0,2.012-1.265,9.071,9.071,0,0,1,.9,4.037.232.232,0,0,0,.35.192,11.145,11.145,0,0,0,3.567-4.579,7.892,7.892,0,0,1,1.374,1.9.255.255,0,0,0,.47-.132c-.006-1.627,1.168-2.76,2.325-3.736a10.914,10.914,0,0,0,.663,1.4.267.267,0,0,0,.482-.061,5.107,5.107,0,0,0-.289-4.061c.325.1.653.186.988.29.182.056.419-.144.338-.338a14.957,14.957,0,0,0-1.326-2.518c.506.036,1.233.595,1.579.518.505-.114.343-.661.217-1.013A5.266,5.266,0,0,0,131.671,103.586Zm1.506,3.061c-.28-.02-.865-.663-1.747-.4a.264.264,0,0,0-.157.386,14.873,14.873,0,0,1,1.253,2.242c-.361-.109-.735-.215-1.1-.314-.217-.059-.458.2-.313.41a4.731,4.731,0,0,1,.8,3.591,10.4,10.4,0,0,1-.446-1.048.268.268,0,0,0-.434-.121,6.677,6.677,0,0,0-2.687,3.555,7.118,7.118,0,0,0-1.338-1.554.243.243,0,0,0-.4.108,10.14,10.14,0,0,1-3.146,4.375,9.712,9.712,0,0,0-1.145-4.122.215.215,0,0,0-.373,0,2.964,2.964,0,0,1-1.687,1.29c.06-.362.113-.723.168-1.073.027-.168-.143-.359-.313-.241a2.734,2.734,0,0,1-2.326.41,26,26,0,0,0,1.217-4.314.205.205,0,0,0-.3-.229,12.975,12.975,0,0,0-1.868,1.084c.031-.123,1.073-4.326,1.073-4.459.578-.277,1.085-.71,1.687-1,1.02-.491,1.907-.052,8.664-.47a9.107,9.107,0,0,0,3.375-.554,5.022,5.022,0,0,1,1.711,2.338C133.442,106.719,133.394,106.756,133.177,106.647Z" fill="#2a9d8f"></path><path d="M122.729,106.346c-.327-.4-1.036-.391-1.518-.374a2.189,2.189,0,0,0-1.446.446.149.149,0,0,0,.06.241c.1.024,2.676.142,2.8.1A.251.251,0,0,0,122.729,106.346Z" fill="#2a9d8f"></path><path d="M127.634,105.888a3.036,3.036,0,0,0-1.579.47.176.176,0,0,0,.085.325,17.015,17.015,0,0,0,2.916-.205.248.248,0,0,0,.048-.373C128.745,105.752,128.128,105.842,127.634,105.888Z" fill="#2a9d8f"></path><path d="M63.27,96.127c-.168-2.855-.776-11.321-1.566-14.076a5.611,5.611,0,0,0-3.17-3.916c-1.724-.684-3.663-.49-5.471-.434-7.2.223-12.359-.1-22.908.386-4.493.2-9.836-.012-12.618,3.4-1.326,1.626-1.553,3.736-1.59,5.76-.13,7.026.086,15.553.385,18.968a.187.187,0,0,0,.374,0c.058-6.638-.458-18.366.06-21.342a6.342,6.342,0,0,1,3.591-4.76c2.11-1.036,4.519-1.123,6.821-1.241,8.949-.46,12.839-.434,21.776-.482,6.2-.033,9.495-.719,11.255,1.916,1.09,1.631,1.264,3.724,1.495,5.616q.431,3.543.711,7.11c.4,5.25,1.448,13.3-3.085,15.943a16.084,16.084,0,0,1-5.483,1.627c-9.636,1.612-19.51.611-29.368.554a.332.332,0,0,0,0,.663c9.193.2,18.463.911,27.62-.289,3.471-.455,8.149-.963,9.99-4.435C63.815,103.84,63.48,99.694,63.27,96.127Z" fill="#2a9d8f"></path><path d="M40.94,89.186c-2.042-.783-14.958.134-17.907.952a.315.315,0,0,0,.084.614c3.965.1,6.964-.687,14.328-.687a21.126,21.126,0,0,1-4.832,8.448c-2.941-2.835-3.967-5-5.471-6.532a.283.283,0,0,0-.47.277c.791,2.257,3.459,5.413,5.182,7.074-1.7,1.734-5.859,4.971-5.881,5-.215.291.145.651.446.579,1.455-.348,5.108-3.568,6.3-4.784,1.616,1.424,4.929,3.791,7.073,3.832a.4.4,0,0,0,.2-.735c-1.218-.8-3.041-.949-6.495-3.917A22.058,22.058,0,0,0,36.963,94.3a13.775,13.775,0,0,0,1.362-4.23,8.041,8.041,0,0,0,2.627-.2A.357.357,0,0,0,40.94,89.186Z" fill="#023047"></path><path d="M31.637,88.487a.345.345,0,0,0,.59,0,2.721,2.721,0,0,0,.205-1.76,7.473,7.473,0,0,0-.337-1.9.4.4,0,0,0-.783.109,17.819,17.819,0,0,0,.036,1.916A3.425,3.425,0,0,0,31.637,88.487Z" fill="#023047"></path><path d="M55.473,94.789a5.5,5.5,0,0,0-2.53.012c-.567.046-1.133.085-1.7.121-.092-4.18-.111-4.458.084-5.025s.315-.669,3.88-4.122a.513.513,0,0,0-.361-.868c-7.588-.053-8.791-.1-10.147.133a.364.364,0,0,0,0,.7c1.245.222,2.162.256,8.894.193-2.122,2.121-2.537,2.356-2.977,3.121-.71,1.234-.362,3.039-.362,5.917-1.827.1-4.318.044-5.374.229a.4.4,0,0,0,0,.771,23.581,23.581,0,0,0,5.4.084c.048,1.435.093,2.868.048,4.3-.052,1.65-.591,3.53-2.41,3.964-2.374.567-2.89-2.616-3.025-4.266-.011-.132-.215-.18-.241-.036a5.95,5.95,0,0,0-.193,3.013c.877,2.772,3.951,3.065,5.712,1,1.491-1.748,1.137-4.218,1.085-8.026,2.984-.194,3.614-.109,4.2-.518C55.69,95.33,55.775,94.92,55.473,94.789Z" fill="#023047"></path><path d="M45.3,154.525c-2.109-.111-4.327,3.417-4.327,4.664a.244.244,0,0,0,.41.168c.5-.515.6-1.491,1.579-2.735a5.007,5.007,0,0,1,2.446-1.711A.208.208,0,0,0,45.3,154.525Z" fill="#2a9d8f"></path><path d="M42.29,162.418a6.919,6.919,0,0,1,3.085-4.338.248.248,0,0,0-.241-.41,6.027,6.027,0,0,0-3.157,4.712C41.964,162.563,42.24,162.587,42.29,162.418Z" fill="#2a9d8f"></path><path d="M42.314,131.544a2.151,2.151,0,0,0-1.193.265.2.2,0,0,0,.1.374,5.2,5.2,0,0,1,1.061.084c.313.052.6.241.928.133a.311.311,0,0,0,.18-.434C43.182,131.616,42.7,131.577,42.314,131.544Z" fill="#2a9d8f"></path><path d="M46.749,130.255a1.532,1.532,0,0,0-.808,1.072.2.2,0,0,0,.326.193,5.4,5.4,0,0,1,.879-.59c.29-.145.7-.109.928-.362C48.358,130.253,47.889,129.622,46.749,130.255Z" fill="#2a9d8f"></path><path d="M44.555,130.436c-.084-.133-.337-.049-.265.108.281.724,1.086,2.469,1.145,2.591.095.194.783,1.39.084,1.374a.307.307,0,0,0,0,.614c.82.025,1.047-.823.808-1.47C46.169,133.224,44.948,131.048,44.555,130.436Z" fill="#2a9d8f"></path><path d="M45.58,137.208c-.253.362-.52.846-.988.434a2.147,2.147,0,0,1-.434-1.277.176.176,0,0,0-.338,0c-.339,2.21,1.746,2.807,2.35,1.084C46.3,137.089,45.773,136.931,45.58,137.208Z" fill="#2a9d8f"></path><path d="M189.672,99.742a16.41,16.41,0,0,0-4.99-9.845c-3.969-3.662-10.036-4.02-14.846-1.868a15.013,15.013,0,0,0-8.58,13.015,15.926,15.926,0,0,0,2.205,9.411c-.868,1.965-1.76,3.93-2.6,5.905-.087.2.073.556.337.446,2.041-.846,4.037-1.784,6-2.8C176.458,119.528,191.58,113.821,189.672,99.742Zm-2.555,9.749c-4.025,6.04-13.32,7.721-19.523,4.061-.664-.392-.206-.094-5.905,2.386,2.544-5.8,2.439-5.389,2.387-5.591a4.791,4.791,0,0,0-.531-.88,16.906,16.906,0,0,1-1.193-11.629c2.772-10.421,15.36-13.51,21.9-7.508C189.3,94.973,191.05,103.589,187.117,109.491Z" fill="#2a9d8f"></path><path d="M172.644,97.272a40.294,40.294,0,0,0-.181,4.4c-.06-.421-1.261-.451-1.808-.53-.445-.065-.891-.145-1.337-.169.06-1.47.167-2.964.1-4.434-.012-.254-.43-.349-.47-.061-.183,1.321-.267,2.74-.47,6.833a6.3,6.3,0,0,0-.012,2.338c.083.217.424.314.542.072a5.2,5.2,0,0,0,.217-2.048c.025-.7.061-1.4.085-2.1.458.12.94.166,1.41.241a4.376,4.376,0,0,0,1.554.144c.219-.044.2-.321.193-.156-.053,3.157-.352,3.6-.048,4.386a.268.268,0,0,0,.482.06,4.694,4.694,0,0,0,.265-2.048,57.314,57.314,0,0,0,.06-6.953A.291.291,0,0,0,172.644,97.272Z" fill="#2a9d8f"></path><path d="M176.44,101.092c-1.319-.641-1.626,1.783-1.6,2.567.038,1.3,1.035,2.7,2.482,2.289a2.792,2.792,0,0,0,1.748-3.1A2.033,2.033,0,0,0,176.44,101.092Zm.964,3.964c-.892.519-1.628-.289-1.76-1.144-.072-.47-.108-2.459.675-2.447-.056.67,1.642-.176,1.977,1.41A2.074,2.074,0,0,1,177.4,105.056Z" fill="#2a9d8f"></path><path d="M182.405,105.008c-1.2.627-.8-2.459-1.121-3.47a.234.234,0,0,0-.446,0,4.526,4.526,0,0,0-.084,2.06,4.045,4.045,0,0,0,.41,1.8,1.027,1.027,0,0,0,1.036.482C182.977,105.747,182.805,104.827,182.405,105.008Z" fill="#2a9d8f"></path><path d="M180.838,99.248c.423.254,1.006-.382.241-.82a.372.372,0,0,0-.506.507A1.093,1.093,0,0,0,180.838,99.248Z" fill="#2a9d8f"></path><path d="M120.873,34.981c.024-.289-.385-.3-.47-.06-.535,1.531-3.333,15.044-3.326,15.81,0,.217.336.337.434.121a19.523,19.523,0,0,0,.94-3.784C118.553,46.612,120.762,36.331,120.873,34.981Z" fill="#2a9d8f"></path><path d="M124.838,52.888a.763.763,0,0,1-1-.036c-.878-.752.2-3.3-.157-5.82-.072-.506-.146-1.215-.663-1.495-.991-.537-1.916.868-2.325,1.6.036-.373.067-.735.108-1.109.021-.193-.3-.229-.337-.048A26.314,26.314,0,0,0,119.933,51a.266.266,0,0,0,.531,0c.016-.6.036-1.205.072-1.807.383-1.978,2.144-4.367,2.531-2.374.525,2.706-.842,4.853.132,6.23a1.11,1.11,0,0,0,1.9.036A.166.166,0,0,0,124.838,52.888Z" fill="#2a9d8f"></path><path d="M140.528,45.441a7.6,7.6,0,0,0-2.326-.277,9.669,9.669,0,0,0,1.205-4.206c-.01-.265-.421-.422-.542-.145a21.956,21.956,0,0,0-1.362,4.315c-.349-.012-.7-.029-1.06-.049-.3-.016-.289.435,0,.458s.6.061.9.085c-.458,1.084-.911,2.183-1.362,3.266-.357.857-1.024,2.9-2.241,2.771-.743-.08-.6-.874-.627-3.7a.3.3,0,0,0-.591,0,6.052,6.052,0,0,1-.518,2.145c-.164.357-.772,1.5-1.133,1.663-.647.285-.938-1.362-.976-1.82a4.693,4.693,0,0,1,.386-2.157c.094-.314-.41-.542-.542-.229a8.61,8.61,0,0,0-.277.831,11.38,11.38,0,0,1-1.29,2.6c-.369.45-.816.216-.843-.289a14.809,14.809,0,0,1,.373-3.808.284.284,0,0,0-.47-.277,6.487,6.487,0,0,0-1.615,2.2c-.107.242.226.456.362.217a7.448,7.448,0,0,1,.976-1.362,14.222,14.222,0,0,0-.229,2.254c-.011.639-.157,1.8.675,2.012.916.24,1.525-.985,1.928-1.747,0,1.91,1.427,3.962,3.218.157a2.216,2.216,0,0,0,.518,1.7c1.024.868,2.29-.542,2.747-1.362a23.816,23.816,0,0,0,1.338-3c-.1,1.689-.258,3.585.578,4.422a1.229,1.229,0,0,0,1.977-.169.251.251,0,0,0-.434-.253c-.356.5-1.054.2-1.3-.229a3.24,3.24,0,0,1-.289-1.494,18.736,18.736,0,0,1,.3-4.278,8.43,8.43,0,0,0,2.495.06C140.624,45.715,140.672,45.5,140.528,45.441Z" fill="#2a9d8f"></path><path d="M132.84,45.405a.465.465,0,0,0,0-.928A.465.465,0,0,0,132.84,45.405Z" fill="#2a9d8f"></path><path d="M57.438,47.791c.022-.819-1.194-.589-1.651,1.012C56.51,48.755,57.416,48.61,57.438,47.791Z" fill="#023047"></path><path d="M85.564,71.591c-1.44-3.38-2.964-6.736-4.458-10.1,6.529-9.837,5.436-29.2-9.207-36.984-8.4-4.468-19.375-3.9-26.259,2.434-8.049,7.41-11.106,20.321-6.58,30.428,5.748,12.838,24.068,17.142,35.96,9.918C78.358,69,81.761,70.6,85.227,72.037,85.492,72.147,85.651,71.8,85.564,71.591ZM52.629,49.659a7.406,7.406,0,0,1-.289,2.518c-.122.265-.521.17-.6-.072a3.688,3.688,0,0,1-.024-1.386c.037-.683.289-4.341.289-4.374a3.95,3.95,0,0,1-1.808.325,10.966,10.966,0,0,1-2.506.121c-.085,1.88-.247,3.747-.47,5.615-.062.518-.888.531-.82,0,.9-6.991.283-9.147.663-11.785.036-.253.439-.231.494,0a21.3,21.3,0,0,1,.157,5.688,11.525,11.525,0,0,1,2.241-.386c.6-.075,1.507-.386,2.061-.06a31.992,31.992,0,0,1,.482-4.748c.059-.278.44-.181.458.06C53.063,42.638,53.024,43.325,52.629,49.659Zm5.809,1.783c-.683,1.092-2.435.471-3.073-.337a3.17,3.17,0,0,1,.386-3.893c1.095-1.223,2.458-.649,2.422.579-.04,1.35-1.374,1.615-2.483,1.542a1.566,1.566,0,0,0,1.434,1.832,2.556,2.556,0,0,0,.9-.241A.355.355,0,0,1,58.438,51.442Zm4.832.687c-.153.891-1.36.77-1.916.374-.914-.653-.747-1.928-.626-2.892a65.329,65.329,0,0,1,1.482-8.328c.059-.229.455-.193.422.061-.447,3.343-1.139,8.238-1.169,9.219-.028.915.392,1.689,1.337,1.2A.326.326,0,0,1,63.27,52.129Zm3.808-.265c-.153.89-1.36.77-1.916.374-.914-.653-.747-1.928-.626-2.893a65.345,65.345,0,0,1,1.482-8.327c.059-.229.456-.193.422.061-.447,3.343-1.139,8.238-1.169,9.218-.028.916.392,1.69,1.337,1.206A.326.326,0,0,1,67.078,51.864Zm4.821.217c-2.179,1.268-5.064-2.238-1.82-5.7.158-.168.5,0,.41.241-.363,1-1.07,1.952-1.037,3.073.027.88.759,2.082,1.8,1.747,1.192-.384,1.409-2.654.928-3.627a1.2,1.2,0,0,0-1.29-.615.3.3,0,0,1-.216-.506,1.263,1.263,0,0,1,1.735.061C73.617,47.757,73.632,51.073,71.9,52.081Zm5.507-14.232a.235.235,0,0,1,.47,0c.168,2.062.165,6.125.157,7.291a8.073,8.073,0,0,1-.133,2.181.271.271,0,0,1-.518,0,7.911,7.911,0,0,1-.145-2.3C77.215,42.25,77.243,39.865,77.406,37.849Zm.422,15.425a.427.427,0,0,1-.543-.084.954.954,0,0,1,.266-1.567.2.2,0,0,1,.192.036C78.347,51.408,78.588,52.8,77.828,53.274Z" fill="#023047"></path><path d="M162.533,161.225a2.932,2.932,0,0,0,1.048-.9.25.25,0,0,0-.277-.362c-.575.117-.553.357-2.591,1.591-.916.554-1.929.974-2.795,1.59a.186.186,0,0,0,.144.338A16.13,16.13,0,0,0,162.533,161.225Z" fill="#2a9d8f"></path><path d="M164.666,160.876c-2.465,2.465-3.744,2.665-5.555,3.483-.374.168-.085.663.253.614a9.716,9.716,0,0,0,5.627-3.856C165.124,160.924,164.835,160.707,164.666,160.876Z" fill="#2a9d8f"></path><path d="M164.365,164.588c-3.243,1.731-3.937,1.3-4.7,1.988a.232.232,0,0,0,.1.386,4.5,4.5,0,0,0,2.447-.639,11.357,11.357,0,0,0,2.374-1.374A.211.211,0,0,0,164.365,164.588Z" fill="#2a9d8f"></path><path d="M22.365,143.337l.108-.489c-4.771-.44-8.736-.438-9.25-.181a27.491,27.491,0,0,0,1.495-3.278,33.319,33.319,0,0,0,1.892-17.052c.018-.935.965-.817,1.759-2.277a4.528,4.528,0,0,0-.41-4.893,10.734,10.734,0,0,1,4.266-.735.271.271,0,0,0,0-.542,9.488,9.488,0,0,0-4.748,1,.229.229,0,0,0-.048.349,3.985,3.985,0,0,1,.181,4.893c-.482.651-1.486.988-1.615,1.844-.148.98,1.527,7.492-1.53,16.269a49.505,49.505,0,0,1-3.194,6.88c-.073.169.135.376.277.217a12.685,12.685,0,0,0,1.6-2.542C13.151,143.286,16.987,142.847,22.365,143.337Z" fill="#2a9d8f"></path><path d="M20.465,153.969A30.07,30.07,0,0,1,12.38,151.6c-5.192-2.554-6.85-5.679-6.749-9.761.1-4.194,2.254-9.264,4.025-13.052,3.044-6.509,3.984-7.091,3.085-9.242a12,12,0,0,1-.988-3.363,7.016,7.016,0,0,1,2.639-6.194c2.013-1.7,4.552-2.327,6.941-3.277a.232.232,0,0,0-.12-.447c-5.764,1.4-10.929,4.531-9.99,10.412a19.22,19.22,0,0,0,1.108,3.411c.487,1.372-.41,2.651-1,3.856-2.652,5.417-5.706,11.187-6.254,16.787-.5,5.106,1.451,8,5.375,10.5a29.248,29.248,0,0,0,9.92,3.418C20.4,154.417,20.434,154.193,20.465,153.969Z" fill="#2a9d8f"></path><path d="M39.687,153.935a45.323,45.323,0,0,0-3.432-9.955c-13.4-1.874-13.513-2.306-13.62-1.843a163.084,163.084,0,0,0-3.447,23.571.267.267,0,0,0,.266.265c3.3.3,6.865.5,10.978.579a8.422,8.422,0,0,0,2.073-.049c-.193,3.893-1.2,7.657-1.459,11.545a.293.293,0,0,0,.278.278c11.285.329,22.288.418,33.32-1.025a.284.284,0,0,0,.265-.349c-3.123-1.744-8.4-6.622-11.05-9.412a2.5,2.5,0,0,0-2.242-1.1,8.354,8.354,0,0,1-2.109-.313,6.944,6.944,0,0,1-3.868-3.121,5.549,5.549,0,0,0-1.085,2.772,1.129,1.129,0,0,1-2.253-.1,6.788,6.788,0,0,1,.542-2.567,1,1,0,0,1-1.7-.771A5.972,5.972,0,0,1,41.7,160.2a1.082,1.082,0,0,1-1.554-.964,3.947,3.947,0,0,1,.518-1.735,1,1,0,0,1-1.241-1.422C40.061,154.978,39.986,155.536,39.687,153.935Z" fill="#023047"></path><path d="M46.447,146.367a24.451,24.451,0,0,0-.231-2.872,8.036,8.036,0,0,0,2.64-1.037,1.245,1.245,0,0,0,.447-.177,15.112,15.112,0,0,1,3.567-.8.588.588,0,0,0,.168-.036,16.254,16.254,0,0,1,8.148,1.627c6.163,3.266,12.263,13.5,15.159,20.016a.34.34,0,0,1-.18.446c-.808.133-6.327,1.012-7.267,1.157a25.344,25.344,0,0,0-11.376-4.953c-.662-.121-4.806-.681-5.664-1.578A4.4,4.4,0,0,1,51.3,156.6c-.8-2.7-2.261-4.945-5.016-5.079A25.818,25.818,0,0,0,46.447,146.367Z" fill="#023047"></path><path d="M52.605,127.194c-.7-3.283-2.133-6.529-5.049-8.243-2.291-1.347-5.133-1.179-7.664-.831-4.941.678-7.489,5.832-7.857,10.339-.714,8.745,5.929,16.254,7.652,25.476.049.264.325,1.181.169,1.434a7.9,7.9,0,0,1,6.423-3.869,26.5,26.5,0,0,0,.168-5.133c-.017-1.319-.265-4.329-.9-5.351a4.961,4.961,0,0,0,2.169-.627,6.044,6.044,0,0,0,.7,1.82c.255.517.855.084.891.072a15.112,15.112,0,0,1,3.567-.8.547.547,0,0,0,.507-.386C54.374,136.434,53.577,131.775,52.605,127.194Zm-12.786,9.279a.371.371,0,0,0-.494-.133c-1.57.765-2.627-1.518-2.542-2.771.089-1.329,1.355-.44,3.121-1.386,2.158-1.156,3.3-3.519,3.88-5.809a5.343,5.343,0,0,0,4.338,1.157c.121.784.325,1.567.47,2.338a35.449,35.449,0,0,1,.627,6.435,11.134,11.134,0,0,1-.831,2.579C46.416,141.249,42.408,140.948,39.819,136.473Z" fill="#2a9d8f"></path><path d="M159.4,126.338c-1.549-14.19-16.057-13.143-19.848-6.375-2.7,4.822-4.97,9.782-8.351,10.268a.332.332,0,0,0-.145.554,4.515,4.515,0,0,0,2.905,1.241,5.68,5.68,0,0,1-2.881,4.037.318.318,0,0,0,0,.543,6.218,6.218,0,0,0,2.724.735,8.531,8.531,0,0,1-2.928,5.218.317.317,0,0,0,.144.53,22.511,22.511,0,0,0,11.665-.518,4.578,4.578,0,0,0,1.736-.808c.869-.805.83-2.12.759-3.205a.341.341,0,0,0-.422-.326,3.286,3.286,0,0,1-3.242-1.783,8.389,8.389,0,0,1-.819-4.025,25.491,25.491,0,0,1,1.2-8.134c1.82,2.386,3.906,4.683,6.8,5.724a5.867,5.867,0,0,0,2.253.446c.771-.049,1.326-.9,2.1-.711,1.942.462,1.112,4.252-.952,3.687a.361.361,0,0,0-.434.241,8.594,8.594,0,0,0,.458,5.519.428.428,0,0,0,.47.241,10.638,10.638,0,0,0,6.4-6.917A15.456,15.456,0,0,0,159.4,126.338Zm-12.184.639a4.654,4.654,0,0,1-2.53-1.663c-.449-.48-1.567-1.579-1.205-2.3a.124.124,0,0,1,.108-.06c.54.009.768.671,1.784,1.687a17.444,17.444,0,0,1,2.121,1.856A.324.324,0,0,1,147.216,126.977Z" fill="#023047"></path><path d="M189.189,152.561c-5.928-5.552-12.188-11.138-20.98-13.931a16.671,16.671,0,0,0-8.7-.566,11.922,11.922,0,0,0-5.85,2.791c-.236-.434-.557-1.019-.778-1.534-.095.04-.192.079-.289.116a.471.471,0,0,1-.4-.125,7.633,7.633,0,0,0,1.053,1.992c-.234-.034-3.316,2.472-7.352,1.146a12.415,12.415,0,0,0-2.266-.855,10.748,10.748,0,0,0-4.844.711c-8.482,2.958-13.485,11.891-16.389,20.341-1.181,3.435-2.59,7.435-1.507,11.063s4.724,5.517,8.315,5.7c3.519.179,7.04-.922,10.3-2.121,4.064-1.492,8.874-3.648,11.424-4.905a4.848,4.848,0,0,0,1.434-.795,1.062,1.062,0,0,0,.133-.807c2.229-.926,3.62-.793,5.76-.989,1.541-.141,4.512-.623,5.122-2,.048-.109-.037-.253-.157-.217-1.308.393-1.016,1.275-6.038,1.663a12.275,12.275,0,0,0-4.784.976c-.226-.96-.671-4.334-.771-4.434,1.1-.458,1.794-2.063,2.579-2.784,1.37-1.258,3.672-.678,4.977-2.133a.284.284,0,0,0-.337-.446,12.346,12.346,0,0,1-2.5,1.084c-1.933.438-2.319.579-3.519,2.3a4.234,4.234,0,0,1-1.289,1.41c-.048-.265-.094-.53-.133-.795-.023-.157-.181-.229-.325-.253-8.55-.932-18.762,1.87-21.081,3.05a15.9,15.9,0,0,1-1.88,1c-.144.05-.239-.154-.145-.253,1.2-1.256,6.077-3.081,8.254-2.885-.946-2.982-1.823-6.009-2.574-9.047a35.334,35.334,0,0,1-.747-3.566c-.481,0,2.787-.1,3.266-.109a101.192,101.192,0,0,1,12.569.711c7.133.7,8.65-.183,16-2.133,2.383-.632,3.713-1.025,5.845-1.735a108.242,108.242,0,0,1-.4,14.2,66.1,66.1,0,0,1-.964,7.772.331.331,0,0,0,.4.4c1.508-.228,3.013-.482,4.519-.735-.036-.109-.06-.229-.084-.337-.629.365-3.818-.489-3.676-2.507.077-1.1.2-2.193.326-3.278.854-7.208.133-6.454.711-6.327,2.329.515.662,2.845.867,4.483,1.9-1.673,5.933-3.529,8.52-4.447-.832-.379-1.568-.9-3.362-1.723a3.564,3.564,0,0,1-1.241-.687.213.213,0,0,1,.144-.361,2.549,2.549,0,0,1,1.193.422,27.818,27.818,0,0,1,3.833,2.157,22.97,22.97,0,0,1,4.5-1.049.234.234,0,0,1,.06.458,13.084,13.084,0,0,1-1.832.434,38.88,38.88,0,0,0-11.617,5.013c1.246,1.692,2.3,6.4,2.205,7.689,4.37-.716,17.363-2.216,19.559-5.628C196.634,161.438,192.892,156.028,189.189,152.561Zm-31.549-.193c-5.2,1.209-9.626-.017-16.5-.325-1.969-.089-6.3-.147-8.159.012,1.663-2.338,5.218-1.863,7.713-1.748,11.894.548,10.078,2.286,17.823-.313a45.189,45.189,0,0,1,8.255-1.952c1.466-.2,2.4-.163,3.458.795C167.647,149.795,160.082,151.8,157.64,152.368Z" fill="#2a9d8f"></path><path d="M60.152,177.807a7.157,7.157,0,0,0,.576,2.254c.1.2.395.1.4-.109a17.54,17.54,0,0,0-.336-2.207Z" fill="#2a9d8f"></path><path d="M37.447,178.474c-.175,1.71-.38,2.067-.387,2.961a.163.163,0,0,0,.3.084A7.67,7.67,0,0,0,38,178.483Z" fill="#2a9d8f"></path></g></svg>