<svg viewBox="0 0 140 140" height="140" width="140" xmlns="http://www.w3.org/2000/svg"><g transform="matrix(0.7,0,0,0.7,0,0)"><path d="M123.642,104.278c.447-.011,1.417-1.289,1.866-1.639,2.011-1.574,3.6-1.669,4.125-2.091a.374.374,0,0,0-.169-.679,1.938,1.938,0,0,0-.961.17,14.4,14.4,0,0,0-3.448,1.922C124.829,102.243,122.455,104.306,123.642,104.278Z" fill="#2a9d8f"></path><path d="M121.5,102.639a34.652,34.652,0,0,1,4.182-2.77c.283-.113.841-.28.735-.678-.121-.45-.735-.339-1.074-.226a13.83,13.83,0,0,0-4.408,3.165C120.627,102.44,121.014,102.976,121.5,102.639Z" fill="#2a9d8f"></path><path d="M119.63,100.717c1.7-.961,3.366-2.022,5.086-2.939.112-.059.057-.282-.056-.282a7.506,7.506,0,0,0-5.256,3C119.234,100.6,119.46,100.774,119.63,100.717Z" fill="#2a9d8f"></path><path d="M116.86,98.739c1.543-.406,2.254-1.482,5.822-2.374.113,0,1.978-.508,1.187-.847-.283-.17-.566-.057-.905-.057a12.631,12.631,0,0,0-3.5,1.074,7.755,7.755,0,0,0-2.826,1.752C116.462,98.511,116.578,98.8,116.86,98.739Z" fill="#2a9d8f"></path><path d="M97.7,69.124a20.123,20.123,0,0,0,5.6.848.509.509,0,0,0,0-1.018,11.9,11.9,0,0,0-1.413,0,33.267,33.267,0,0,1-4.182-.169A.171.171,0,0,0,97.7,69.124Z" fill="#023047"></path><path d="M103.183,66.92c4.828-.358,8.78-3.025,13.282-3.109,1.469-.027,2.768.481,4.239.509a.409.409,0,0,0,.282-.678c-1.884-1.884-5.916-1.164-8.478-.4-3.168.95-6.1,2.6-9.381,3.335A.179.179,0,0,0,103.183,66.92Z" fill="#023047"></path><path d="M105.331,141.353c37.021-5.431,30.006-4.227,31.65-4.578.509-.108.339-.842-.113-.847-5.956-.067-25.795,3.727-31.65,4.86C104.709,140.788,104.935,141.411,105.331,141.353Z" fill="#023047"></path><path d="M113.978,78.675a.413.413,0,0,0,.509.339,3.569,3.569,0,0,0,1.639-.9,6.808,6.808,0,0,0,1.356-1.752.3.3,0,0,0-.226-.452c-.281-.063-.509.283-.678.4-.565.452-1.074.847-1.639,1.3C114.56,77.829,113.978,78.232,113.978,78.675Z" fill="#023047"></path><path d="M110.926,77.149c.113-.169.283-.226.17-.452-.28-.839-2.222.732-1.187,2.261.7,1.036,2.376.881,2.486.169a.523.523,0,0,0-.565-.621c-.339,0-.678.056-.961-.226A1.031,1.031,0,0,1,110.926,77.149Z" fill="#023047"></path><path d="M111.152,78.449h0C111.1,78.393,111.152,78.393,111.152,78.449Z" fill="#023047"></path><path d="M113.413,75.228a.6.6,0,0,0,.056.678c.58.608,2.035-.17,1.583-.961C114.721,74.367,113.738,74.74,113.413,75.228Z" fill="#023047"></path><path d="M114.374,72.91a.174.174,0,0,0,.056.34,7.8,7.8,0,0,1,1.7.056c.339.17.282.622.565.848a.609.609,0,0,0,.848,0c.46-.386.113-1.13-.283-1.413C116.475,72.272,115.142,72.782,114.374,72.91Z" fill="#023047"></path><path d="M106.235,101.056c2.949-.491,3.235.339,4.3.339a.592.592,0,0,0,.4-1.017c-.729-.729-3.123-1.123-5.03-.17A.464.464,0,0,0,106.235,101.056Z" fill="#023047"></path><path d="M135.568,95.631a6.965,6.965,0,0,0-6.33,2.769c-.276.344.279.788.621.452a7.83,7.83,0,0,1,5.539-2.035A.611.611,0,0,0,135.568,95.631Z" fill="#023047"></path><path d="M130.2,95.8c.413-.309,1.739-.647,1.357-1.3-.23-.393-.791-.282-1.13-.169A4.5,4.5,0,0,0,127.6,97.1a.49.49,0,0,0,.226.509C128.473,97.825,128.446,96.676,130.2,95.8Z" fill="#023047"></path><path d="M129.69,93.822a.41.41,0,0,0-.17-.678c-.44-.22-1.14.172-1.356.226a3.815,3.815,0,0,0-2.091,2.939.466.466,0,0,0,.9.226C126.977,95.361,129.459,94.053,129.69,93.822Z" fill="#023047"></path><path d="M129.69,90.205a.543.543,0,0,0,0-.509,6.7,6.7,0,0,0-1.47-1.187,46.128,46.128,0,0,1-3.617-3.56c-.286-.222-.791,0-.621.395a8.441,8.441,0,0,0,2.091,3,11.644,11.644,0,0,0,2.091,1.752,1.858,1.858,0,0,0,.735.395c-2.035.848-4.07,2.316-4.013,4.522a.351.351,0,0,0,.678.113c.76-2.366,3.338-3.544,5.595-3.956a10.414,10.414,0,0,1,5.369.4c.568.163,1.074.565,1.7.509a.5.5,0,0,0,.452-.735C137.594,90.132,132.81,88.957,129.69,90.205Z" fill="#023047"></path><path d="M110.191,98.852a.475.475,0,0,0,.17-.678,1.7,1.7,0,0,0-1.244-.509A6.287,6.287,0,0,0,105.5,98c-.341.106-.283.675.057.622C106.77,98.438,109.806,99,110.191,98.852Z" fill="#023047"></path><path d="M168.913,100.039a1.934,1.934,0,0,0,.452.169c1.265.159,1.525-1.118.791-1.582C169.306,98.088,167.944,99.555,168.913,100.039Z" fill="#023047"></path><path d="M177.956,101.508a1.018,1.018,0,0,0,1.582-.96c-.111-.5-.765-.755-1.469-.226A.851.851,0,0,0,177.956,101.508Z" fill="#023047"></path><path d="M173.833,102.252c.069.226-.088,1.121.562,1.121.4,0,.509-.339.509-.678a2.579,2.579,0,0,0-.283-1.3c-.226-.339-.624-.176-.9-.056a11.275,11.275,0,0,0-2.2,1.074.3.3,0,0,0,.226.508A16.342,16.342,0,0,0,173.833,102.252Z" fill="#023047"></path><path d="M188.468,99.7a13.9,13.9,0,0,0-3.787-.622.48.48,0,0,0-.452.4c0,.226.113.452.339.452,3.412.731,4.665,1.5,4.748.678C189.372,100.152,188.807,99.869,188.468,99.7Z" fill="#023047"></path><path d="M187.451,102.921a21.7,21.7,0,0,0-3.165-1.526c-.452-.169-.791.622-.339.848,3.145,1.573,2.932,1.922,3.843,2.2a.455.455,0,0,0,.509-.678A2.046,2.046,0,0,0,187.451,102.921Z" fill="#023047"></path><path d="M183.664,103.826a.439.439,0,0,0-.622.621,22.961,22.961,0,0,0,2.826,2.77c.735.226.735-.622.4-1.018A17.291,17.291,0,0,0,183.664,103.826Z" fill="#023047"></path><path d="M164.392,94.5c.113,0,.226-.113.282-.282.113-.509-.4-.961-.734-1.3-2.262-2.262-2.754-2.567-2.939-3.391-.1-.455-.686-.284-.735.113-.13,1.044.837,2.136,2.6,3.9C163.261,93.935,163.826,94.613,164.392,94.5Z" fill="#023047"></path><path d="M159.531,92.466c-.276-.289-.729.051-.509.339a11.96,11.96,0,0,0,3.335,3.221c.391.234.9.622,1.413.452a.423.423,0,0,0,.283-.452C163.683,95.165,161.779,94.813,159.531,92.466Z" fill="#023047"></path><path d="M158.966,96.987a8.987,8.987,0,0,0,3.108,1.582,1.751,1.751,0,0,0,1.413,0,.3.3,0,0,0,.057-.452,1.624,1.624,0,0,0-.735-.452c-2.747-.654-3.511-1.572-3.843-1.074A.237.237,0,0,0,158.966,96.987Z" fill="#023047"></path><path d="M152.636,69.406c-.192-9.409,17.806-4.6,21.251-12.49.791-1.809.791-4.069-.792-5.426a.64.64,0,0,0-.9.905c1.574,1.824.565,4.577-1.187,5.934C167.4,61.1,159.23,61.244,155.01,63.7c-1.865,1.074-3.843,3.5-3,5.821A.323.323,0,0,0,152.636,69.406Z" fill="#023047"></path><path d="M171.287,49.173c1.017.226,2.091-.113,3.165.226,2,.667,2.656,2.972,2.656,5.087,0,2.486-1.921,4.578-3.787,6.047-5.623,4.249-12.875,2.4-18.424,6.1-.226.17,0,.565.226.4,5.736-3.4,13.328-.982,19.442-5.822,2.091-1.639,3.956-3.9,4.013-6.669,0-2.8-.915-5.433-3.5-6.5a4.492,4.492,0,0,0-3.9.169A.5.5,0,0,0,171.287,49.173Z" fill="#023047"></path><path d="M148.058,97.552c-.4-.509-1.289.053-1.074.622.3.786.693,1.576,1.018,2.374a5.341,5.341,0,0,0,1.356,1.978c.609.523,1.639.621,1.978-.226a2.79,2.79,0,0,0-.056-1.357c-.588-2.937-2.133-6.071-.283-8.7,1.3-1.866,2.826-3.392,3.278-5.709a5.15,5.15,0,0,0-2.091-5.425c-.279-.176-.622.226-.4.452,1.809,1.582,1.7,4.295.678,6.273-1.073,2.091-3.221,3.561-3.673,5.934-.545,3,1.017,6.234,1.017,7.235C149.076,100.083,148.906,98.655,148.058,97.552Z" fill="#023047"></path><path d="M123.7,86.192c-1.632-1.365-2.487-4.634-2.6-5.2.564-1.317,1.251-4.694.848-6.274a.589.589,0,0,0-1.13,0,23.074,23.074,0,0,0-.453,3.391,11.747,11.747,0,0,1-4.8,7.008c-4.471,2.728-8.627,2.166-11.473,2.77,1.647-3.294,1.2-8.819-2.091-11.53a7.411,7.411,0,0,0-3.617-1.639,5.656,5.656,0,0,0-3.617.678c-.283.113-.057.565.226.509a6.377,6.377,0,0,1,5.934,1.582c2.822,2.667,3.232,8.583,0,11.926a32.293,32.293,0,0,1-3.667,3.131c-.732,1.746-1.139,2.807-1.306,3.086a36.346,36.346,0,0,1,10.851-.792,15.942,15.942,0,0,1,4.13.82c8.857-2.24,15.788-6.542,16.1-7.093C127.385,87.951,125.175,87.427,123.7,86.192Z" fill="#2a9d8f"></path><path d="M111.491,95.97c-.891-.721-3.6-1.041-4.691-1.131a38.4,38.4,0,0,0-10.851.792c.3-.5,1.361-3.488,3.673-8.422.114-.282-.226-.621-.452-.339-2.175,2.357-4.691,8.42-4.634,9.043a5.969,5.969,0,0,0-.961.226,7.645,7.645,0,0,0-2.543.9.31.31,0,0,0,.169.566c.829.059.909-.11,4.8-.905a37.726,37.726,0,0,1,10.343-.734C107.857,96.1,113.293,97.428,111.491,95.97Z" fill="#023047"></path><path d="M73,93.37c1.629.543,5.9,1.978,6.1,1.978.92-4.6,2.882-7.978,5.256-11.586a.314.314,0,0,1,.217-.147,9.954,9.954,0,0,0,.63-2.566.641.641,0,0,0-.185-.38C80.835,85.364,76.439,90.106,73,93.37Z" fill="#2a9d8f"></path><path d="M39.205,41.148c1.593,1.116,4.115,2.432,4.522,4.521a10.519,10.519,0,0,0,.9,2.148c.349.843.17,1.3.9,1.921-1.413,1.526.113,2.883,1.752,2.826a4.776,4.776,0,0,0,.226,1.526c.076.681.4,3.1.735,5.143.2,1.209.927,1.427.678-.565a37.972,37.972,0,0,0-.565-6.217,13.8,13.8,0,0,0,3.448-.678,31.08,31.08,0,0,0,1.729,4.606c.231-.245.457-.49.685-.735-.431-.988-1.1-2.528-1.4-3.306a5.831,5.831,0,0,0-.4-.9,4.314,4.314,0,0,0,.792-.622,1.133,1.133,0,0,0,.226-1.469,1.932,1.932,0,0,0-1.074-.566c.169.057.452-1.186.452-1.356-.057-.735-.622-.622-.9-1.13-.17-.4.226-.9.339-1.244a2.037,2.037,0,0,0-.113-1.243c1.582-1.3,2.922-3.8.339-4.8-1.781-.693-4,.117-5.708-.226-2.048-.585-4.1-2.571-6.048-2.656-1.812-.08-4.651.28-4.691,2.091C36.012,39.509,38.307,40.518,39.205,41.148Z" fill="#023047"></path><path d="M22.024,53.638c.85.5,1.921-.057,2.769-.339,2.473-.824,6.715-2.873,7.856-.17.384.91.452,1.7,1.526,1.865a9.108,9.108,0,0,0,.452,1.752,1.734,1.734,0,0,0,1.809.735c.113.791.376,1.642.509,2.374.543,3.011.963,6.059,1.638,8.986a.373.373,0,0,0,.735-.113,63.4,63.4,0,0,0-1.639-11.7c.9-.4,1.865-.678,2.713-1.13a73.555,73.555,0,0,0,3.146,10.178c.335-.3.665-.6,1-.9-.067-.643-2.207-4.838-3.406-9.9.036-.1,2.431-1.823-.17-4.069a6.166,6.166,0,0,0,.4-1.413,3.07,3.07,0,0,0-.17-1.018c-.236-.618-.621-1.582-1.413-1.582a4.412,4.412,0,0,0-.96-3.843c-1.425-1.288-3.489-.775-4.8.4a10.064,10.064,0,0,1-2.713,1.978c-2.419,1.019-6.2.125-8.591,3.222C21.914,49.967,20.39,52.669,22.024,53.638Z" fill="#023047"></path><path d="M139.806,74.323c-2.615-4.9-10.8-14.838-19.272-27.185-5.1-7.432-4.291-10.721-5.6-11.077C114.656,36.005,79,25.6,78.033,25.323c-2.6-.754-3.051-.9-4.126,1.582-.413.954-2.435,6.045-3.335,7.517C60.152,51.47,42.2,70.23,17.9,85.062c0,.056.226,1.921.226,2.26,5.619,5.724,17.516,13,27.185,20.064a.689.689,0,0,0,.791,0C71.3,89.132,97.149,61.6,110.53,41.826c.657-.8,1.176-4.465,3.9-4.465,0,4.385,15.872,26.048,18.425,29.559,1.974,2.715,3.73,5.595,5.934,8.138A.632.632,0,0,0,139.806,74.323Zm-63.864-42.5a.3.3,0,0,1,.169-.565c5.3,1.462,29.337,8.184,31.933,9.1a.645.645,0,0,1-.34,1.244c-2.717-.6-5.366-1.59-8.025-2.374C92.072,36.984,83.353,34.386,75.942,31.822ZM61.417,66.185c-.226.226-.566-.057-.453-.339a12.993,12.993,0,0,1,3.9-4.578.75.75,0,0,1,1.017.282C66.425,62.41,64.567,63.034,61.417,66.185Zm.339,3.165c2.846-3.6,5.612-5.592,8.138-8.591.62-.736,1.639.339,1.074,1.074C68.3,64.915,64.3,67.941,62.6,70.085c-.273.346-.621.96-1.13.9a.359.359,0,0,1-.339-.283C60.908,70.2,61.482,69.7,61.756,69.35Zm-7.687-.9c5.294-5.712,6.273-6.575,9.891-10.287,1.088-1.116,2.136-2.386,3.278-3.447a.639.639,0,0,1,.9.9c-1.742,1.966-9.048,9.306-13.621,13.225A.3.3,0,1,1,54.069,68.446Zm3.617,15.146a6.255,6.255,0,0,0,4.183-2.6,29.586,29.586,0,0,0,1.808-3.9c1.73-3.625,3.867-3.483,6.274-4.861,4.276-2.447,3.38-5.06,3.786-6.669.728-2.884,3.8-3.873,6.33-4.747,2.388-.824,2.6-.826,3.5-2.487,1.074-1.687,2.661-2.162,2.77-3.5a.553.553,0,0,1,1.074-.17c.7,2.091-1.361,3.057-2.205,4.183a11.4,11.4,0,0,1-1.356,2.034c-2.018,1.757-6.824,1.761-8.195,4.635a6.245,6.245,0,0,0-.339,2.2c-.255,2.941-2.544,5.029-5.03,6.217-1.3.621-2.883.961-3.956,2.034-1.815,1.815-1.992,5.036-4.465,6.952a6.717,6.717,0,0,1-3.957,1.357C57.4,84.327,57.292,83.655,57.686,83.592ZM46.1,107.047c-.691.346-.9-1.851-1.017-2.656-1.2-.57-5.407-3.376-6.16-3.9C33.256,96.548,26.712,92.212,21.8,87.379c-.171-.168.059-.455.226-.339.1.071,23.746,16.681,23.85,16.786,3.562-3.041,9.779-7.215,20.29-16.334,7.048-6.114,9.3-8.783,12.377-11.19.286-.223.512.228.34.452-3.762,4.869-25.7,23.556-32.668,27.467C46.349,105.033,46.785,106.819,46.1,107.047Z" fill="#2a9d8f"></path><path d="M154.128,153.706c-1.85.357-5.133,1.358-6.635,1.72-.124.027-75.083,15.882-80.538,15.882,2.027-3.04,2.5-8.935,2.431-12.6,0-.226,4.86-1.356,7.29-1.752,20.527-3.421,21.5-3.466,24.529-4.239a.375.375,0,0,0-.113-.734c-3.941.082-29.022,4.447-31.819,5.312a43.6,43.6,0,0,0-1.809-10.738c1.749-.15,23.018-3.172,25.885-3.956a.434.434,0,0,0-.113-.848c-2.491,0-24.323,3.251-26.224,3.674-1.907-5.573-5.293-11.068-10.512-13.791a.5.5,0,0,0-.509.848c4.573,2.857,7.4,7.63,9.156,12.66-13.985-7.1-26.87-16.866-39.732-22.946-.283-.113-.509.226-.226.395,14.139,7.4,27.416,17.778,40.58,24.36a81.48,81.48,0,0,1,1.695,9.777c-10.343-5.878-20.459-12.151-30.689-18.142-.283-.17-.565.282-.283.452,10.06,6.782,20.573,13,31.028,19.216.091,4.062-.334,9.489-2.2,13.112-5.286-3.857-41.32-25.753-49.453-30.35a9.962,9.962,0,0,0,.848-2.148,28.953,28.953,0,0,0,1.47-7.686c.508.339,7.8,5.313,9.608,6.443,1.808,1.187,9.212,5.821,11.134,6.782a.266.266,0,0,0,.282-.452c-1.752-1.3-3.73-2.374-5.539-3.561s-14.807-9.607-15.429-10a49.105,49.105,0,0,0-2.091-16.108,23.814,23.814,0,0,0-3.391-7.4c-.113-.17-.452,0-.339.169,2.2,4.013,3.165,8.7,3.843,13.225,1.178,7.852.648,12.765-.678,17.408-.113.395-.283.734-.4,1.13-2.26.565-4.521,1.13-6.782,1.639a.583.583,0,0,0-.339.848c.452.678,1.469,1.017,2.091,1.413,10.373,5.834,32.31,19.857,36.624,22.72C50,167.577,63.012,176.488,63.79,177.016c.4.273.848.735,1.357.735,1.327,0,76.26-16.422,91.426-19.815A11.932,11.932,0,0,1,154.128,153.706Z" fill="#023047"></path><path d="M181.064,142.54c-3.206-11.222-9.67-13.358-8.138-23.059.031-.317-.109-.485-.335-.529a.4.4,0,0,0-.5.244c-1.1,2.125-2.511,3.923-3.462,6.163-1.4,3.4-1.63,3.624-2.111,4.745a13,13,0,0,0-1.224-1.58,27.227,27.227,0,0,0-7.065-5.03,4.047,4.047,0,0,0-1.3-.452.585.585,0,0,0-.9,0c1.857,3.318,3.287,6.914,4.861,10.4,1.186,2.543,2.373,5.086,3.334,7.743,1.155,3.177,2.713,7.826,2.713,11.19a7.447,7.447,0,0,1-2.882,5.426,4.61,4.61,0,0,1-6.726-.565c-1.978-2.487-1.7-6.161-2.148-9.156s-1.413-6.274-4.012-8.026c-.226-.113,0-.448.169-.339,6.717,4.251,3.647,13.433,6.952,17.069,1.665,1.84,4.737,1.586,6.782-2.318a7.478,7.478,0,0,0,.339-4.578,60.5,60.5,0,0,0-3.872-12.417c-3.476.689-11.041,1.527-13.988,2,1.5.865,3.892,1.9,5.313,5.166,1.13,2.657.226,5.539,1.017,8.308a10.962,10.962,0,0,0,4.07,6.161c2.395,1.6,4.923.639,7.743.169,2.534-.39,13.257-2.7,13.451-2.825C182.873,153.052,182.308,146.892,181.064,142.54Zm-1.187,9.947c-.4,1.074-1.073,2.487-2.317,2.713a.416.416,0,0,1-.452-.622c.691-1.092,1.259-1.144,1.865-3.165,1.247-4.275-.412-8.218-1.808-12.32-.113-.226.282-.4.452-.17,1.413,2.826,2.711,5.648,2.882,8.873A11.446,11.446,0,0,1,179.877,152.487Z" fill="#2a9d8f"></path><path d="M144.61,139.6a13.108,13.108,0,0,0,3.9-.282c6.544-.873,10.525-1.346,13.112-1.865.794-.16.451-1.311-.339-1.187-15.416,2.412-15.456,2.2-16.786,2.769A.352.352,0,0,0,144.61,139.6Z" fill="#023047"></path><path d="M146.25,85.74a20.743,20.743,0,0,0-11.191-11.021c0-.894-6.854-6.693-17.294-26.563a31.479,31.479,0,0,1-3.165-7.913c-.3-1.343.586-.5-8.93,12.943A363.656,363.656,0,0,1,77.694,86.644c-7.237,7.794-18.623,19.336-29.108,18.912-.363.272-.726.536-1.089.8,4.23.583,8.48-.724,12.224-2.7a22.361,22.361,0,0,1,5.652-2.6C71.992,99.464,78.2,102.8,79.615,103.2a10.919,10.919,0,0,0,3.617,4.465c3.866,2.9,9.522,3.7,15.567.762.431.856-.266,4.927,1.05,4.664,3.108-.566,6.16-1.753,9.212-2.6,3.108-.848,10.964-2.091,11.643-1.865s1.13.9,1.752,1.243c2.2,1.272,4.069-.173,4.069-1.639a3.758,3.758,0,0,1,.056-.791c.113-.622,8.648-5.03,16.391-6.839a.594.594,0,0,0,.282-1.017,2.741,2.741,0,0,0-1.526-.283c-1.769-.208-6.4-.5-9.551-1.187a.233.233,0,0,0-.113.452,32.9,32.9,0,0,0,6.1,1.413c-.17.057-6.956,1.328-10.852,4.07a11.5,11.5,0,0,0-3,2.769c-1.978-1.469-9.5-7.291-11.643-8.082.226-.17,3.956-2.43,4.917-2.826a20.619,20.619,0,0,1,6.33-1.695c.509-.057.509-.905,0-.848a23.421,23.421,0,0,0-9.438,3.278,7.937,7.937,0,0,0-2.544,1.978c-.113.17,8.93,7.008,10.343,8.082-7.452-2.129-15.546,1.255-21.985,4.182a9.916,9.916,0,0,0-.832-2.793c1.187-.608,2.354-1.276,3.545-1.9a14.807,14.807,0,0,1,8.534-1.978.645.645,0,0,0,.339-1.187c-2.148-1.073-4.917-.452-7.065.34-2.317.9-4.465,2.26-6.669,3.334-4.126,2.035-9.156,2.543-13.169,0a9.521,9.521,0,0,1-4.577-9.5c.387-4.265,2.732-9.783,4.464-13.169a.291.291,0,1,0-.508-.282c-2.374,3.608-4.336,6.984-5.256,11.586.136.114-4.992-1.607-6.1-1.978,6.226-5.915,15.61-16.682,21.194-23.229a10.08,10.08,0,0,0,5.143,2.091,11.789,11.789,0,0,0,5.426-.452s.847,1.639,1.695,1.7a.425.425,0,0,0,.4-.283c.226-.509-.791-1.469-.961-2.035A1.74,1.74,0,0,1,109,69.972c2.761,2.76,9.393-.313,13,1.13-.113.339-.161.681-.282,1.017a15.238,15.238,0,0,1-3.73,5.369,11.385,11.385,0,0,1-5.143,3.448c-3.979,1.061-6.731-2.428-6.387-6.217.057-.283-.339-.283-.452-.056a5.588,5.588,0,0,0,.4,4.917c1.958,3.163,5.439,3.61,8.7,1.921a15.426,15.426,0,0,0,5.03-4.521c1.761-2.167,1.948-2.826,2.092-2.826a5.251,5.251,0,0,0,1.865-.4,9.877,9.877,0,0,1,1.921-.056,23.944,23.944,0,0,1,12.547,4.352,19.224,19.224,0,0,1,7.574,13.9c.185,3.522-1.326,4.8-2.205,6.047-.282.339.17.792.509.679,2.317-.622,3.278-3.505,3.334-5.6A19.241,19.241,0,0,0,146.25,85.74ZM125.734,70.2A9.854,9.854,0,0,1,122.8,73.08a5.435,5.435,0,0,0,.395-1.13c.307-1.073.623-2.375-.395-3a3.361,3.361,0,0,0-2.261-.113c-3.014.471-5.115,2.682-10.117,1.074a4.993,4.993,0,0,0-1.639-1.3,3.123,3.123,0,0,0-2.26-.169,2.993,2.993,0,0,0-1.922,2.26,19.7,19.7,0,0,1-2.487.565,13.813,13.813,0,0,1-7.743-1.356c.905-1.017,1.752-2.091,2.657-3.108,3.586-.18,7.258-4.062,12.038-6.387,3.448-1.639,8.591-1.978,11.643.622a9.675,9.675,0,0,1,3.221,4.069c-2.018-.175-3.575.925-7.46,2.035a16.933,16.933,0,0,1-3.787.395.376.376,0,0,0-.113.735c2.633.718,6.011-.467,8.534-1.413,2.041-.765,3.617-.933,4.748.9A1.885,1.885,0,0,1,125.734,70.2Z" fill="#023047"></path><path d="M195.646,128.693c-.161-4.8-.4-9.941-3.73-13.79-3.048-3.525-8.795-5.541-13.454-5.643a16.545,16.545,0,0,0-2.993-3.23,10.355,10.355,0,0,0,7.8-7.008,25.653,25.653,0,0,0,.508-4.183,12.649,12.649,0,0,1,1.639-4.182.62.62,0,0,0-.678-.9,16.651,16.651,0,0,0-3.674,1.3c-1.131-3.085-4.895-4.275-7.912-3.844a4.112,4.112,0,0,0,.622-1.073c.083-.581-.236-1.171-1.3-.905a24.051,24.051,0,0,0-5.935,2.657c-1.5-2.77-.339-7.376-2.091-11.756-1.13-2.826-3.447-5.595-6.612-6.16-3.1-.477-7.277,1.517-9.608,3.5a11.509,11.509,0,0,0-3.617,6.895c-.05.284.339.4.4.113a11.085,11.085,0,0,1,3.278-5.934c2.148-2.035,5.878-3.957,8.93-3.448,4.126.678,6.16,4.691,6.782,8.478.452,2.939-.057,6.33,1.469,8.986-1.373,1.144-1.79,1.564-1.921,1.695-.283.283.113.622.395.4a24.713,24.713,0,0,1,6.9-3.73c.393-.122,1.243-.4,1.3-.4,0,.189-2.046,2.514-2.092,2.826a.559.559,0,0,0,.679.678c.452-.056.734-.452,1.017-.791a12.3,12.3,0,0,0,.791-1.017s.339-.113.452-.17a6.4,6.4,0,0,1,7.009,3.617,5.362,5.362,0,0,0-.905.679.351.351,0,0,0,.4.565,24.3,24.3,0,0,1,4.182-1.752c-1.867,3.266-1.079,4.525-1.639,6.951a8.619,8.619,0,0,1-4.465,5.539c-4.521,2.43-11.856,1.241-14.355-3.5-.177-.335-.848-.226-.791.226.52,4.681,7.722,6.422,11.925,5.821,4.862,4.96,6.3,11.454,5.143,16.39a4.639,4.639,0,0,1-1.244,2.544c-.689.552-1.356.113-1.639-.622-.824-2.238.483-5.3,1.131-7.517.169-.565-.622-1.017-.961-.565-.113.17-.226.283-.339.452-.113-.226-2.487-5.765-5.821-9.156-.283-.282-.679.226-.566.4.057.113.113.169.17.283-.226,0-2.939.282-3.052.282a8.077,8.077,0,0,0-4.408-4.917.417.417,0,1,0-.4.735c1.845,1.332,4.334,4.382,3.222,6.33-1.074,1.808-2.826,0-3.561-1.018-.509-.734-.887-1.478-1.3-2.2-.955-1.678-3.083-3.94-4.126-5.764a7.472,7.472,0,0,1-.508-3.957.64.64,0,0,0-1.244-.169,8.155,8.155,0,0,0-.226,1.243,34.791,34.791,0,0,1-3.447-3.447c-.117-.167-.453-.113-.4.113a5.1,5.1,0,0,0,1.639,3,18.193,18.193,0,0,0,2.148,1.639c0,1.662,1.1,3.219,2.2,4.465a28.166,28.166,0,0,1,3.016,4.284c-4.816.285-16.009,1.71-20.367,2.272-29.5,3.775-71.714,12.74-85.737,17.86-.057-.113-.057-.227-.226-.34-2.549-2.216-14.762-9.947-17.634-11.755A197.765,197.765,0,0,0,7.273,101.678c.1-.023,17.928-4.325,18.029-4.352a5.42,5.42,0,0,0,2.261-.791.566.566,0,0,0-.283-.961,5.524,5.524,0,0,0-2.317.339c-1.409.352-3.046.641-8.365,2.091a85.357,85.357,0,0,0-10.625,3.165.4.4,0,0,0,.113.792c18.934,8.621,42.993,26.215,46.4,28.032a.611.611,0,0,0,.622,0c9.994-1.692,16.33-4.095,41.71-9.212a636,636,0,0,1,66.22-9.746c.785,1.172,1.534,2.015,2.392,2.173a3.452,3.452,0,0,0,3.9-2.826,21.6,21.6,0,0,0,4.012-.283c.17.283,3.109,5.652,3.561,6.669.226.509.678,1.7.735,1.752a7.923,7.923,0,0,0-.566,1.978c-1.443,6.353,2.66,7.908,4.691,5.652,1.606-1.783,1.865-4.8,1.865-7.065a17.04,17.04,0,0,0-2.489-8.826c2.163.59,4.484,1.022,6.276,2.327,4.616,3.361,5.651,10.4,5.482,15.655-.221,6.929-2.178,15.735-8.936,19.363a13.351,13.351,0,0,1-.836,5.991c3.4-.6,6.7-1.756,9.094-4.386C195.26,143.68,195.886,135.871,195.646,128.693Z" fill="#023047"></path></g></svg>