<svg viewBox="0 0 140 140" height="140" width="140" xmlns="http://www.w3.org/2000/svg"><g transform="matrix(0.7,0,0,0.7,0,0)"><path d="M173.8,173.3c-.948-8.607-15.717-12.218-23.263-13.922-.02.9.23,1.748.23,2.65a15.345,15.345,0,0,1,.18,2.425c-.161,1.3,1.085,1.63,1.883,2.3.774.67,1.161,1.986,1.677,2.863,1.47,2.579,3.74,4.746,4.591,7.583a1.7,1.7,0,0,1-.051,1.419,1.569,1.569,0,0,1-1.187.593c-3.277.409-7.592-2.378-10.085-4.514a23.249,23.249,0,0,1-4.462-4.927c-2.49-3.8-.876-1.178-2.98-12.3q-3.018-.435-6.053-.75c.442,3.675.482,2.357.753,6.4.109,1.6,1.2,6.729-.542,9.182-1.7,2.425-6.319,3.605-8.873,4.256-1.685.4-5.163,1.33-6.784,1.006-1.96-.412-3.92.18-5.855-.593-.851-.335-1.367-1.264-.542-1.909a28.155,28.155,0,0,1,3.276-2.218c8.61-4.919,9.568-4.907,9.492-5.133-.258.1-.881-2.4-.876-2.631a31.4,31.4,0,0,0-1.376-9.268c-18.184-1.126-34.607-.947-54.107,2.871a20.643,20.643,0,0,0-2.166.387c-.464.155-1.006-.155-1.445.1-.456.249-.521.932-1.186,3.147-.31,1.083-.335,2.141-.619,3.25a26.807,26.807,0,0,0-.8,3.456,2.36,2.36,0,0,1-.284,1.032,1.53,1.53,0,0,1-1.521.568,4.475,4.475,0,0,1-1.574-.671,3.885,3.885,0,0,1-2.657,1.857c-.332.055-.485.022-.567-.387a70.749,70.749,0,0,1-1.161-9.311c-6.99,1.883-14.315,5.21-19.474,10.4-4.354,4.354-3.49,10.263,2.476,12.741,12.072,5,24.737-2.682,36.756,1.445,25.975,8.924,52.8,11.865,79.238,2.785C160.312,187.255,174.781,182.2,173.8,173.3Z" fill="#2a9d8f"></path><path d="M69.234,46.5a1.7,1.7,0,0,0,.1-3.121.231.231,0,0,0-.284.232c.026.826,1.032,2.012.1,2.709C69.054,46.345,69.105,46.526,69.234,46.5Z" fill="#023047"></path><path d="M66.346,46.835a1.106,1.106,0,0,0-.155.7c.186,1.118,1.706,1.606,2.27.98a.516.516,0,0,0-.1-.8c-.545-.252-.694.131-1.367-.541-.1-.1-.309-.258-.361-.387S66.4,46.732,66.346,46.835Z" fill="#023047"></path><path d="M78.159,115.4c.039-4.283-.026-8.615-.31-12.9a.516.516,0,0,0-1.031,0c.077,4.282.361,8.615.8,12.9C77.669,115.73,78.156,115.756,78.159,115.4Z" fill="#023047"></path><path d="M73.877,90.22a3.219,3.219,0,0,1,2.089-.129,9.494,9.494,0,0,0,1.6.49.443.443,0,0,0,.412-.541c-.283-.852-1.263-1.084-2.063-1.11a3.453,3.453,0,0,0-2.3.929C73.413,90.04,73.671,90.323,73.877,90.22Z" fill="#023047"></path><path d="M74.058,92.722a1.944,1.944,0,0,1,1.625.026c.438.18.748.619,1.212.722a.459.459,0,0,0,.568-.438c0-1.055-1.968-1.961-3.637-.8C73.516,92.464,73.745,92.87,74.058,92.722Z" fill="#023047"></path><path d="M73.955,95.456a2.153,2.153,0,0,1,1.573.155c.439.206.774.645,1.238.722.946.172.924-1.432-.954-1.78a3.286,3.286,0,0,0-2.089.387A.288.288,0,0,0,73.955,95.456Z" fill="#023047"></path><path d="M62.064,82.276c2.012.025,4.024.18,6.036.18,1.6,0,3.74.361,5.21-.387a.314.314,0,0,0,0-.541c-1.5-.7-3.585-.232-5.21-.181-2.012.078-4.024.31-6.036.439A.245.245,0,0,0,62.064,82.276Z" fill="#023047"></path><path d="M61.78,86.325c1.832-.013,3.663-.051,5.494-.051,1.625.026,3.534.361,5.107-.078a.335.335,0,0,0,0-.644c-1.573-.645-3.688-.387-5.339-.31a40.613,40.613,0,0,0-5.314.542A.273.273,0,0,0,61.78,86.325Z" fill="#023047"></path><path d="M60.9,92.309c1.754-.106,3.534.129,5.288-.129.284-.051.361-.541.077-.644a7.824,7.824,0,0,0-5.468.077C60.439,91.742,60.49,92.334,60.9,92.309Z" fill="#023047"></path><path d="M56,77.762a5.8,5.8,0,0,1,.026-2.218c.129-.31,0-.826-.438-.774-1.873.229-3.829,1.4-7.687.645a.342.342,0,0,0-.619.1c-.2,1.026-.4,6.389.078,7.428a.312.312,0,0,0,.515,0c.5-1.078.253-6.162.155-6.861,2.218.7,5.107,1.084,7.222,0a24.255,24.255,0,0,1-.206,3.431c-.052,1.238-.1,2.476-.077,3.714a.529.529,0,0,0,1.057,0C56.073,82.164,56.023,78.254,56,77.762Z" fill="#023047"></path><path d="M47.7,84.7c1.823,1.657,5.829,2.605,7.48.155.206-.284-.129-.7-.464-.593a12.463,12.463,0,0,1-3.2.98,5.45,5.45,0,0,1-3.456-1.006C47.774,84.081,47.467,84.491,47.7,84.7Z" fill="#023047"></path><path d="M72.459,174.952c-2.192-2.858-8.083-5.759-9.55-6.253.626-1.859,1.117-3.794,1.683-5.638,4.063-13.151,6.626-21.17,7.893-29.172.129-.826-1.136-1.187-1.29-.362-2.129,12.924-8.615,30.358-9.286,35.779-1.136,1.173-2.13.12-2.8-.112,1.686-8.784,3-25.58,3.369-29.063a17.259,17.259,0,0,0,.154-4.463c-.077-.464-.774-.412-.877,0-.476,1.667-.059,2.178-.593,8.59-1.18,13.57-2.386,18.527-2.47,25.159-.3.18-.411.421-.806.531a1.576,1.576,0,0,1-1.1-.054c-3.368-19.379-5.392-31.648-7-36.238-.051-.232-.467-.206-.438.078.3,2.97,1.006,5.906,1.547,8.821.564,3.074,3.417,21.13,4.517,27.291-.823.511-2.012,1.388-2.4,1.676a24.379,24.379,0,0,0-6.525,6.783,12.9,12.9,0,0,1-.877,1.5c6.26.206,11.489-4.106,12.845-8.022.053-.194.427-.921.629-1.542a7.939,7.939,0,0,0,1.666,1.517,15.7,15.7,0,0,0,11.4,3.714C72.494,175.468,72.707,175.275,72.459,174.952Z" fill="#023047"></path><path d="M153.425,41.29c-.223-2.245-.955-4.849-2.889-5.959,1.805-1.882,1.212-5.287.1-7.505-1.341-2.631-4.153-4.385-6.99-3.689a6.561,6.561,0,0,0-11.556-2.553,5.925,5.925,0,0,0-7.738.386,7.175,7.175,0,0,0-1.315,8.28,6.4,6.4,0,0,0-6.474,5.262c-.723,3.792,1.676,7.016,5.235,8.151a.282.282,0,0,0,.155-.542,6.9,6.9,0,0,1-4.539-7.377,5.213,5.213,0,0,1,6.577-4.153.6.6,0,0,0,.671-.877c-1.445-2.4-1.7-5.416.335-7.557a4.608,4.608,0,0,1,6.732-.077.688.688,0,0,0,1.058-.129,5.2,5.2,0,0,1,9.543,2.244.794.794,0,0,0,1.161.67c5.1-2.146,9.1,7.146,5.056,9.105-.748.361-.284,1.367.386,1.419,2.373.232,2.993,3.56,3.121,5.442.129,2.141-.722,4.489-3.069,4.875a.689.689,0,0,0-.516.671c.5,5.377-5.7,7.828-9.827,3.895-.594-.568-1.367.258-.877.877a6.888,6.888,0,0,0,7.712,2.089,6.679,6.679,0,0,0,4.411-6.319C152.6,47.119,153.694,44,153.425,41.29Z" fill="#023047"></path><path d="M141.585,35a4.708,4.708,0,0,0-6.938-.387,8.821,8.821,0,0,0-.882,1.08c.2-4.358-4-7.447-7.4-4.949-2.708,1.986-2.657,6.191-.954,8.693.412.619,3.1,2.424,5.287,1.238a5.79,5.79,0,0,0,1.742-1.445,4.9,4.9,0,0,0,.889,3.353c1.883,2.58,5.52,2.141,7.609.1A5.81,5.81,0,0,0,141.585,35Zm-15.141,4.23a1.371,1.371,0,0,1-.515-.774c-.594-1.857-1.058-3.74.051-5.571a3.345,3.345,0,0,1,6.036.232C134.283,37.539,130.013,41.823,126.444,39.226Zm13.7,2.683c-1.7,1.606-4.772,1.883-6.113-.361-1.135-1.909-.181-5.107,1.006-6.294a4.137,4.137,0,0,1,5.726.335C142.359,37.421,141.85,40.291,140.141,41.909Z" fill="#023047"></path><path d="M143.313,40.542a.17.17,0,0,0-.077.309c1.264.619.9,2.683.1,3.508a2.112,2.112,0,0,1-2.656.49c-.3-.174-.5-.11-.619.052-.979,1.3-.418,2.764-2.993,5.081a7.254,7.254,0,0,1-6.293,1.677c-4.978-1.006-7.016-6.165-5.107-10.6.18-.413-.288-.7-.542-.361-3.41,4.549-.052,11.013,5.133,12.2a8.6,8.6,0,0,0,7.17-1.548c1.259-.969,3.079-3.078,3.347-4.992,1.193.433,3.042-.651,3.644-1.534C145.377,43.482,145.508,40.593,143.313,40.542Z" fill="#023047"></path><path d="M130.52,46.5a4.163,4.163,0,0,0,1.857.052c.567-.155,1.187-.413,1.316-1.032a.3.3,0,0,0-.284-.361c-.516-.052-.8.206-1.239.438a5.374,5.374,0,0,1-1.624.619C130.417,46.216,130.34,46.473,130.52,46.5Z" fill="#023047"></path><path d="M131.4,41.367c-.62-.98-2.552-.359-2.425,1.032a1.784,1.784,0,0,0,.955,1.341,2.036,2.036,0,0,0,1.96.026.471.471,0,0,0-.077-.7c-.516-.413-1.393.051-1.858-.568a.4.4,0,0,1,.232-.671c.31-.129.7.026,1.032-.051A.3.3,0,0,0,131.4,41.367Z" fill="#023047"></path><path d="M117.752,71.752a7.665,7.665,0,0,0-4.293-2.441,97.693,97.693,0,0,0-2.413-9.992c-.052-.1-.336-.18-.387-.18-2.837,0-3.07,1.341-3.044,1.548a51.883,51.883,0,0,0,2.026,8.657c-1.627.651-3.193,2.565-1.843,4.131a2.165,2.165,0,0,0-.491,1.41,1.946,1.946,0,0,0,.663.993c-.315.628-.195,1.748.475,1.949a1.489,1.489,0,0,0,.847,2.179,2.721,2.721,0,0,0,2.309-.376c0,1.312.994,2.881,2.411,2.672s1.833-1.88,1.552-3.148a7.857,7.857,0,0,1,1.389.62.323.323,0,0,0,.438-.439c-.825-1.573-2.941-1.779-4.488-1.393-.929.233-1.625.9-2.5,1.187-1.058.542-1.47-1.006-1.186-1.264.327-.721,2.041-1.352,2.4-1.522.129,0,.027-.231-.1-.18a10.325,10.325,0,0,0-2.45.975c-.246-.173-.534-.4-.465-.743.225-.788,1.871-1.587,2.631-1.909.078-.051,0-.259-.1-.258a4.131,4.131,0,0,0-2.54.909c-.109-.095-.31-.207-.349-.29-.191-.408.232-.851.464-1.109,1.105-1.275,1.85-1.128,2.348-1.625a.249.249,0,0,0-.1-.413c-.743-.2-1.952.452-2.771,1.324-.623-1.068.194-2.256,1.2-2.794A5.569,5.569,0,0,1,112.8,70c1.754.361,3.043,1.393,4.643,2.063C117.6,72.165,117.906,71.959,117.752,71.752Zm-3.166,7.181c.063.895.456,2.52-.858,2.543-1.129.024-1.25-1.283-1.595-2.1A4.414,4.414,0,0,1,114.586,78.933Zm-4.356-9.767c-.015-.1-1.746-8.539-1.841-8.634a3.453,3.453,0,0,1,2.3-.542c.132,1.234,1.529,7.973,1.908,9.157A7.078,7.078,0,0,0,110.23,69.166Z" fill="#023047"></path><path d="M101.863,59.319c-1.748-2.185-3.66-1.728-3.752-.818-1.04-.409-1.889.075-1.592,1.125-1.313-.568-2.167.162-2.134.885-1.6-.775-2.675.525-1.962,1.594a22.689,22.689,0,0,1,2.734,3.121c.232.207.593,0,.464-.284A9.5,9.5,0,0,0,93.3,61.8c.129-.232.258-.439.361-.671.232-.052.823.493.98.619,1.125.9,2.748,2.506,2.889,3.946.129,1.316-.954.026-1.47-.309a.353.353,0,0,0-.516.413c.258,1.083,2.038,2.373,2.786,1.006a1.811,1.811,0,0,0,.2-.689,1.533,1.533,0,0,0,1.824-1.291,1.726,1.726,0,0,0,1.478-1.356,1.363,1.363,0,0,0,1.348-1.282C103.282,61.177,102.456,60.067,101.863,59.319Zm-3.4,6c-.385-1.618-2.02-3.189-3.3-4.422.309-.8.722-.98,1.29-.542,1.182.645,2.455,2.69,2.992,3.869C99.275,65.084,98.943,65.462,98.46,65.315ZM100.286,64a8.014,8.014,0,0,0-1.75-2.7,6.876,6.876,0,0,0-1.383-1.323c-.28-1.577,1.056-.607,1.512-.3C100.374,60.82,102.044,63.36,100.286,64Zm1.556-1.444c-.3-1.511-2.26-3.232-3.217-3.8,1.036-.806,2.236.479,2.774,1.31C101.826,60.732,102.689,62.051,101.842,62.559Z" fill="#023047"></path><path d="M91.546,60.454c-1.752-1.991-5.056-1.908-7.326-1.083A8.493,8.493,0,0,0,78.6,67.057c-.1,3.354,1.806,7.326,4.953,8.77C89.81,78.662,97.9,74.434,96.833,68.5c-.1-.645-1.238-.49-1.16.155.861,6.946-10.23,9.582-14.238,3.92-2.373-3.327-2.5-8,.774-10.781,2.192-1.858,6.474-2.941,8.924-.929A.293.293,0,0,0,91.546,60.454Z" fill="#023047"></path><path d="M114.192,28.625c2.171-5.257-1.921-10.076-5.442-9.956-.077-1.264.129-2.863-.31-4.05-2.2-6.23-10.182-7.9-14.315-2.631-1.192,1.54-2.271,5.521-2.037,5.469-5.086,1-7.422,4.816-6.629,7.944a4.889,4.889,0,0,0,4.1,3.611,5.693,5.693,0,0,0-4,5.21,5.727,5.727,0,0,0,3.972,5.237c2.192.7,4.565.025,6.552-.9-.155,2.115-.129,4.462,1.65,5.932a6.586,6.586,0,0,0,7.455.31c1.134-.723,1.392-1.754,1.676-3.044a6.29,6.29,0,0,0,7.145-5.288c.284-2.244-.877-4.049-2.373-5.6A3.549,3.549,0,0,0,114.192,28.625ZM91.7,31.256c-.8.722-1.677,1.058-1.858,2.27A3.845,3.845,0,0,0,90.875,36.6a.308.308,0,0,1-.361.49c-3.583-1.668-2.031-6.828.722-6.964A.665.665,0,0,1,91.7,31.256Zm.851-10.395c-.954.232-1.883.052-2.786.568a3.506,3.506,0,0,0-1.728,2.657.323.323,0,0,1-.645,0c-.345-3.664,3.661-5.219,5.262-4.1A.485.485,0,0,1,92.552,20.861Zm10.059-8.228c-1.522-.335-3.018-.774-4.54-.18a4.713,4.713,0,0,0-2.888,3.2c-.083.36-.7.284-.645-.077.634-5.141,6.441-5.965,8.434-3.534A.367.367,0,0,1,102.611,12.633Z" fill="#2a9d8f"></path><path d="M112.155,56.069a24.482,24.482,0,0,1,5.236-1.6c1.625-.361,3.456-.283,5.03-.851a.488.488,0,0,0,0-.929c-1.651-.438-3.74.155-5.34.594a27.4,27.4,0,0,0-5.21,2.244A.306.306,0,1,0,112.155,56.069Z" fill="#023047"></path><path d="M150.794,106.264a49.935,49.935,0,0,1-1.806-10.6,83.385,83.385,0,0,1-.155-11.22c.02-.335-.541-.412-.593-.077-1.458,9.05-.073,20.173,1.083,22.337a8.348,8.348,0,0,1-3.74,3.508,18.162,18.162,0,0,1-6.09,1.961c.025-.7-1.978-11.421-2.68-25.846-.051-.309-.51-.309-.515,0a141.808,141.808,0,0,0,1.392,23.937,6.362,6.362,0,0,0,.568,2.527c.219.338.725.408,1.161.449C143.629,113.642,151.27,109.254,150.794,106.264Z" fill="#023047"></path><path d="M127.167,99.248c-.439-4.437-.748-8.925-1.058-13.361a.285.285,0,0,0-.567,0c-.177,7.79-.107,15.3,1.367,23.214a15.8,15.8,0,0,0,.371,1.907c-1.247-.109-8.157.468-13.423-2.165-.206-2.012-.9-3.972-1.212-5.958-1.184-7.107-.348-13.685-.387-20.454,0-.336-.542-.439-.593-.078-.941,6.368-1.423,14.111-.464,20.455.309,2.115.644,4.539,1.779,6.4a29.745,29.745,0,0,0,7.635,2.786c1.341.18,2.683.258,4.024.335,1.161.052,2.657.438,3.714-.077a.559.559,0,0,0,.206-.207C129.239,110.637,128.253,109.516,127.167,99.248Z" fill="#023047"></path><path d="M129.333,107.656a23.219,23.219,0,0,0,3.457.516,8.891,8.891,0,0,0,3.508-.1c.412-.155.515-.825,0-.928-1.18-.3-2.99.125-6.887-.129C129.05,106.986,128.973,107.577,129.333,107.656Z" fill="#023047"></path><path d="M159.615,176.629a38.713,38.713,0,0,0-6.4-9.931,11.623,11.623,0,0,0-1.728-2.012.707.707,0,0,0,.077-.335c-.811-15.453-1-42.524-1.676-53.109a.336.336,0,0,0-.671,0c-.626,14.318.119,38.2,1.032,53.109a4.525,4.525,0,0,1-8.054,2.487,3.612,3.612,0,0,1-.308-.681c.313-.515.034-.832-6.495-39.981a40.356,40.356,0,0,0-1.084-5.459,12.051,12.051,0,0,0,2.864,1.59c.389.121.877-.387.593-.748a10.41,10.41,0,0,0-3.74-2.424,21.045,21.045,0,0,0-4.488-1.574c-.361-.077-.62.441-.284.594,1.121.508,2.248,1.037,3.36,1.6-1.053,10.982,1.387,41.959,2.027,46.341-1.77.331-3.519,1.325-5.361,1.451a9.094,9.094,0,0,1-4.359-1.5c-.31-2.192-.568-4.565-.929-6.758-8-48.561-7.47-45.839-8.047-47.873a.264.264,0,0,0-.516.078c.029,1.7-.421-1.675,7.17,47.666a42.807,42.807,0,0,0,1.264,7.042,3.261,3.261,0,0,0,1.047,1.442,19.457,19.457,0,0,0-5.045,2.117c-1.831,1.006-3.688,1.986-5.442,3.1-1.367.851-5.107,3.2-2.245,4.642,2.477,1.264,5.779.877,8.383.465,4.956-.765,13.008-1.775,14.987-6.036a7.92,7.92,0,0,0,.258-5.649.355.355,0,0,0-.457-.188c.362-1.564-.086-3.486-.188-5.1-1.4-20.652-1.493-20.394-1.261-38.174.08.624,6.352,41.7,6.755,43.152a.641.641,0,0,0,.487.456,24.543,24.543,0,0,0,2.092,4.238,25.733,25.733,0,0,0,14.057,9.466c1.136.258,2.658.212,2.915-1.212A4.272,4.272,0,0,0,159.615,176.629Zm-29.637-2.012a69.155,69.155,0,0,1-12.639,2.579,13.8,13.8,0,0,1-3.714-.336c-.36-.084-1.445-.309-1.445-.825,0-.7,1.935-1.728,2.4-2.038a65.471,65.471,0,0,1,11.177-5.807c2.288,1.113,7.06.576,9.143-1.408C134.282,169.5,136.171,172.476,129.978,174.617Zm27.857,4.255a11.171,11.171,0,0,1-2.3-.644c-6.186-2.063-11.239-6.821-12.588-9.518a5.4,5.4,0,0,0,8.151-2.528c.387.413.729.975,1.032,1.315a35.938,35.938,0,0,1,6.242,9.673C158.686,177.944,159.15,179.038,157.835,178.872Z" fill="#023047"></path><path d="M159,114.543a1.488,1.488,0,0,0-.464,2.115,1.562,1.562,0,0,0,2.966-.644A1.685,1.685,0,0,0,159,114.543Z" fill="#023047"></path><path d="M175.5,106.238a1.567,1.567,0,0,0-1.806-.258,1.55,1.55,0,0,0-.774,1.393,1.494,1.494,0,1,0,2.58-1.135Z" fill="#023047"></path><path d="M180.069,113.976c-.94-1.591-3.489-.364-2.528,1.367a3.078,3.078,0,0,0,.284.309,1.364,1.364,0,0,0,2.064.027A1.437,1.437,0,0,0,180.069,113.976Z" fill="#023047"></path><path d="M175.839,123.648a1.429,1.429,0,1,0-1.5,2.373A1.428,1.428,0,0,0,175.839,123.648Z" fill="#023047"></path><path d="M168.127,124.809a1.487,1.487,0,0,0-2.193-.722,1.557,1.557,0,0,0,.387,2.786A1.529,1.529,0,0,0,168.127,124.809Z" fill="#023047"></path><path d="M165.393,107.605a1.537,1.537,0,0,0-1.677-.7,1.5,1.5,0,0,0-.477,2.67,12.667,12.667,0,0,0-2.36,3.8.25.25,0,0,0,.413.232,8.828,8.828,0,0,0,1.315-1.806,11.935,11.935,0,0,0,1.16-1.991A1.494,1.494,0,0,0,165.393,107.605Z" fill="#023047"></path><path d="M160.7,118.49a21.685,21.685,0,0,0,1.909,2.734,8.741,8.741,0,0,0,1.78,2.218c.258.181.567-.129.516-.387a7.69,7.69,0,0,0-1.625-2.553,11.3,11.3,0,0,0-2.244-2.322A.238.238,0,0,0,160.7,118.49Z" fill="#023047"></path><path d="M166.5,108.534a13.36,13.36,0,0,0,4.8-.258c.309-.1.386-.671,0-.723a14.9,14.9,0,0,0-4.876.49C166.166,108.1,166.243,108.514,166.5,108.534Z" fill="#023047"></path><path d="M175.168,109.746c.97,1.208,1.763,2.54,2.528,2.94a.283.283,0,0,0,.413-.309c-.249-.995-1.638-2.282-2.45-3.1C175.349,108.972,174.916,109.432,175.168,109.746Z" fill="#023047"></path><path d="M176.458,122c.645-1.29,1.754-2.58,2.012-4,.052-.336-.361-.7-.645-.361-.954,1.135-1.264,2.785-1.831,4.127C175.865,122.049,176.3,122.307,176.458,122Z" fill="#023047"></path><path d="M169.236,126.073a3.371,3.371,0,0,0,1.341-.051,3.134,3.134,0,0,0,1.367-.413.334.334,0,0,0-.077-.594,2.622,2.622,0,0,0-1.341.052,3.64,3.64,0,0,0-1.367.413A.327.327,0,0,0,169.236,126.073Z" fill="#023047"></path><path d="M29.125,48.641a1.478,1.478,0,0,0-.7-1.264,1.373,1.373,0,0,0-2.089,1.47A1.408,1.408,0,0,0,29.125,48.641Z" fill="#023047"></path><path d="M40.784,46.861a1.307,1.307,0,0,0-1.363-.277.269.269,0,0,0,.151-.239c0-.728-.98-1.539-1.6-2.115a.343.343,0,0,0-.17-.085,1.37,1.37,0,0,0,.221-2.03,1.342,1.342,0,0,0-2.3,1.006A1.32,1.32,0,0,0,37.4,44.336a.259.259,0,0,0,.033.281c.974,1.313,1.161,1.849,1.78,1.986a.283.283,0,0,0,.158,0,1.233,1.233,0,0,0-.648,1.727,1.712,1.712,0,0,0,.464.49c.026.026.052.026.077.052a1.224,1.224,0,0,0,1.032.181A1.32,1.32,0,0,0,40.784,46.861Z" fill="#023047"></path><path d="M36.116,53.877A1.313,1.313,0,0,0,37.328,55.5a1.285,1.285,0,1,0-1.212-1.625Z" fill="#023047"></path><path d="M28.635,47.171a3.53,3.53,0,0,0,.9-1.11,5.589,5.589,0,0,0,.627-1.03,1.333,1.333,0,0,0,1.593-1.3.273.273,0,0,0,.23.162,6.884,6.884,0,0,0,3.225-.155c.309-.129.206-.593-.078-.67a6.51,6.51,0,0,0-3.2.361.222.222,0,0,0-.186.135,1.322,1.322,0,1,0-2.226,1.1,4.815,4.815,0,0,0-.632.907,3.229,3.229,0,0,0-.619,1.393A.24.24,0,0,0,28.635,47.171Z" fill="#023047"></path><path d="M31.06,53.206c0-.67-.593-1.238-.98-1.728a5.035,5.035,0,0,0-1.6-1.522c-.181-.077-.412.052-.336.258a7.627,7.627,0,0,0,1.109,1.754c.362.49.7,1.29,1.29,1.548C30.776,53.619,31.086,53.516,31.06,53.206Z" fill="#023047"></path><path d="M39.185,49.6c-.722.645-.825,1.909-1.187,2.76-.129.232.317.443.465.181.46-.814,1.341-1.7,1.367-2.683A.384.384,0,0,0,39.185,49.6Z" fill="#023047"></path><path d="M35.522,54.367a1.429,1.429,0,0,0-1.083-.051c-.281.06-.808.143-.974.47a1.3,1.3,0,0,0-.367-1.038,1.336,1.336,0,1,0,.348,1.171.462.462,0,0,0,.168.273c.309.207.748.078,1.083.052a1.287,1.287,0,0,0,.954-.438A.309.309,0,0,0,35.522,54.367Z" fill="#023047"></path><path d="M184.557,109.1a1.978,1.978,0,0,1-.361.129,15.706,15.706,0,0,1-3.456-1.367c-.49-1.058-1.032-2.038-1.5-3.121-.011-.033,1.6-2.987,1.78-3.121s1.647-.621,2.991-1.135a14.236,14.236,0,0,0,2.4,1.264c.783.391.455.085,1.935,3.044.161.319-.061.263-.619,1.857-.129.361-.155,1.057-.413,1.367C187.157,108.179,185.789,108.6,184.557,109.1Z" fill="#023047"></path><path d="M171.454,139.28c-.752-.667-1.857-1.677-2.863-1.729a3.06,3.06,0,0,0-1.651,5.7,5.886,5.886,0,0,0,3.353.516,2.986,2.986,0,0,0,1.161-.232C172.805,142.835,172.7,140.384,171.454,139.28Z" fill="#023047"></path><path d="M15.971,60.893a3.185,3.185,0,0,0,1.16,4.075,5.888,5.888,0,0,0,3.354.516,3,3,0,0,0,1.16-.232c1.315-.682,1.289-3.151.026-4.256-.748-.671-1.857-1.677-2.863-1.728A3.18,3.18,0,0,0,15.971,60.893Z" fill="#023047"></path><path d="M19.221,56.9a2.124,2.124,0,0,0,2.244.825,2.557,2.557,0,0,0,1.264-1.651c0-.666-1.064-1.455-2.038-1.341-.516.078-1.264.181-1.548.568A1.444,1.444,0,0,0,19.221,56.9Z" fill="#023047"></path><path d="M176.149,135.514c1.108-.137.98-1.264-.155-1.084S174.961,135.66,176.149,135.514Z" fill="#023047"></path><path d="M157.526,64.581c-1.857-4.23-6.732-6.835-10.705-8.692-.206-.077-.359.178-.18.284,3.257,1.932,6.68,4.539,8.744,7.764,2.089,3.224,1.831,8.279.1,11.632-1.676,3.3-5.494,5.83-8.976,6.965-8.412,2.71-19.658.484-27.012-.3a3.074,3.074,0,0,0,.935-1.536,10.585,10.585,0,0,0-1.627-8.395c8.164,2.064,18.726.661,24.815-5.636a.409.409,0,0,0-.49-.645c-2.722,1.5-5.113,3.533-9.109,4.826-.273-1.472-.994-5.016-1.7-9.6-.054-.344-.35-1.288-.45-1.934.065-.047.676-.535.724-.576a15.82,15.82,0,0,1,.655,1.5.521.521,0,0,0,.774.31,24.914,24.914,0,0,0,3.4-3.092,37.662,37.662,0,0,0-.617,4.175,17.305,17.305,0,0,0-.077,6.139.313.313,0,0,0,.593,0A44.94,44.94,0,0,0,137.9,61.9c.2-2.019.7-4.038.842-6.081q.264-.384.5-.78c.258-.361-.286-.751-.593-.465-1.613,1.508-3.095,3.147-4.7,4.669a19.356,19.356,0,0,0-1.5-2.554,3.859,3.859,0,0,0-1.779-1.676,1.4,1.4,0,0,0-.542.052,5.289,5.289,0,0,0-1.806,1.96,16.322,16.322,0,0,0-1.238,2.012,23.138,23.138,0,0,1-3.508-6.164,21.134,21.134,0,0,0,2.476-1.5.363.363,0,0,0-.154-.593c-.542-.181-1.29.412-1.7.7-.438.31-1.16.7-1.315,1.238-.024.169.047.314.261.3a13.4,13.4,0,0,0,.558,1.96c0,.9,1.411,10.737,2.044,12.288a.33.33,0,0,0,.645-.078c.058-1.506-.069-1.6-1.527-9.719a27.216,27.216,0,0,0,1.862,2.833c.207.283.723.387.9,0a17.779,17.779,0,0,1,1-1.811A4.046,4.046,0,0,0,130,59.572a43.343,43.343,0,0,0-1.346,12.369c-4.535.455-6.855-.138-10.209-.088a.228.228,0,0,0-.332.234,25.37,25.37,0,0,1,1.316,6.216,5.591,5.591,0,0,1-.361,2.76c-.774,1.393-2.141.8-3.173.129-.206-.129-.516.129-.335.336a3.169,3.169,0,0,0,1.972,1.256,96.694,96.694,0,0,0,10.746,1.739c-.474,1.793-.087,6.511.024,7.787.125,1.441-.046,1.339,2.192,3.972.387.438.825,1.16,1.47,1.238.723.1,1.187-.671,1.522-1.161.516-.748,1.006-1.5,1.5-2.27a3.15,3.15,0,0,0,.439-2.889c-.238-1.187-.5-5.073-.638-6.2,4.1.154,8.493,0,12.374-1.352,3.559-1.238,7.351-3.792,9.285-7.093C158.454,73.119,159.151,68.3,157.526,64.581Z" fill="#023047"></path><path d="M13.83,113.563c-.256-.746-3.924-3.856-4.019-3.937a1.638,1.638,0,0,0-.624-2.124,1.621,1.621,0,0,0-2.167,2.321,1.584,1.584,0,0,0,2.105.52c.1.087,3.65,3.346,4.4,3.5C13.7,113.873,13.907,113.744,13.83,113.563Z" fill="#023047"></path><path d="M14.913,114.724c1.113-.156,2.219-.387,3.3-.645a7.611,7.611,0,0,0,2.837-.9.378.378,0,0,0-.18-.7,7.859,7.859,0,0,0-2.941.567c-1.083.31-2.141.645-3.2,1.006A.348.348,0,0,0,14.913,114.724Z" fill="#023047"></path><path d="M25.127,103.452a1.541,1.541,0,0,0-2.4.206,1.428,1.428,0,0,0,.471,2.036c-.344,1.377-.8,4.5-1.013,6.244-.052.361.515.413.619.078.225-.727,1.619-5.488,1.642-6.089A1.484,1.484,0,0,0,25.127,103.452Z" fill="#023047"></path><path d="M30.854,119.238c-.439-1.316-2.3-2.321-3.379-3.121-1.47-1.083-2.915-2.244-4.411-3.276-.206-.18-.521.133-.361.361,1.228,1.752,3.22,2.957,5.855,5.288a7.052,7.052,0,0,0,1.448,1.173c-.47,1.574-.73,3.218-1.164,4.811a12.317,12.317,0,0,0-.8,3.972,15.276,15.276,0,0,0-4.538,1.315,45.614,45.614,0,0,0-4.646,1.78c-2.71-2-5.422-4.11-8.227-5.968a31.7,31.7,0,0,0,1.756-4.916,55.271,55.271,0,0,0,1.626-5.6.438.438,0,0,0-.8-.335c-1.341,1.976-1.421,5.015-3.084,10.756a.314.314,0,0,0-.063.464,60.361,60.361,0,0,0,8.3,6.638c-.174.709-.23,1.442-.353,2.158-.145.85-.453,1.917-.618,2.793a17.786,17.786,0,0,0-5.52,2.365.451.451,0,0,0-.041.637,11.059,11.059,0,0,0-.707,2.536,15.426,15.426,0,0,0-.619,3.224.543.543,0,0,0,.706.475,23.052,23.052,0,0,0,2.105,1.872,10.665,10.665,0,0,0,1.88,1.47,25.4,25.4,0,0,0-.909,4.357,1.6,1.6,0,0,0-.687.287,1.63,1.63,0,0,0,1.264,2.914,1.611,1.611,0,0,0,.707-2.836,38.9,38.9,0,0,0,.6-4.519c.727-.077,5.761-1.361,5.9-1.46a11.917,11.917,0,0,0,2.982,2.16,1.8,1.8,0,0,0,3.326,1.084,1.735,1.735,0,0,0-.284-2.218,1.683,1.683,0,0,0-2.389.067c-.589-.383-1.228-.716-1.816-1.073-.447-.273-.879-.6-1.33-.893a47.722,47.722,0,0,1,1.038-6.067.489.489,0,0,0,.06-.882c-.095-.061-5.128-3.163-5.227-3.2a14.482,14.482,0,0,0,.823-5.174c1.614-.521,3.167-1.307,4.765-1.888a30.957,30.957,0,0,0,4.307-1.533c.841.518.952-1.625,1.11-2.44.577-3.079,1.529-5.156,1.377-7.227A.4.4,0,0,0,30.854,119.238Zm-8.134,22.47a17.307,17.307,0,0,0-1.368,6c-3.322,1.08-4.55,1.381-5.313,1.732a8.667,8.667,0,0,0-2.054-1.7,24.87,24.87,0,0,0-2.386-1.615,19.69,19.69,0,0,0,.632-2.976,10.7,10.7,0,0,0,.346-2.446c.952-.232.188-.1,5.367-2.311A23.959,23.959,0,0,0,22.72,141.708Z" fill="#023047"></path><path d="M192.347,47.79a1.861,1.861,0,0,0-2.377.52c-.578-.065-5.967-.418-6.974-.3-.437-.724-6.205-4.172-6.715-4.405.275-2.389.478-4.807.658-7.2a1.884,1.884,0,0,0,1.428-1.773,1.926,1.926,0,0,0-1.393-1.754,1.807,1.807,0,0,0-2.012,2.708,1.748,1.748,0,0,0,.692.69,40.612,40.612,0,0,0-.219,7.22,18.571,18.571,0,0,0-4.368.886c-.1.022-4.238,1.02-4.333,1.057-1.3.517-1.651,2.967-1.96,4.153-.491,1.935-.722,3.9-1.135,5.83a.273.273,0,0,0,.275.36c1.427,1.061,3,1.95,4.522,2.864a42.1,42.1,0,0,0,3.893,2.335,41.954,41.954,0,0,0-.358,5.287,1.9,1.9,0,0,0-1.858,1.767A1.938,1.938,0,0,0,171.532,70a1.99,1.99,0,0,0,2.321-1.057,1.9,1.9,0,0,0-.439-2.213c.074-3.681.107-4.881.027-5.634,1.375-.3,2.749-1.031,4.1-1.465a20.98,20.98,0,0,0,3.917-1.325.421.421,0,0,0,.262-.2c.612-1.224,1.557-8.351,1.467-9.125.908.273,6.407.728,6.506.735a1.756,1.756,0,0,0,1.829,1.452A1.811,1.811,0,0,0,192.347,47.79ZM177.025,58.571a19.974,19.974,0,0,0-4,1.362,37.461,37.461,0,0,0-4.282-2.29c-1.478-.788-2.955-1.6-4.5-2.254.033-.1,3.028-9.191,3.033-9.286a20.912,20.912,0,0,0,4.072-.661,18.452,18.452,0,0,0,4.317-1.045.386.386,0,0,0,.4-.04c.751.76,5.151,4.156,6.364,4.338a47.671,47.671,0,0,0-1.652,8.947A19.922,19.922,0,0,0,177.025,58.571Z" fill="#023047"></path><path d="M87.677,79.1c-.258-.619-1.238-.413-1.058.284,1.187,4.8,2.038,10.059.31,14.883a8.019,8.019,0,0,1-2.373,3.456,8.559,8.559,0,0,1-4.75,1.7c2.706-1.791,2.83-7.751.464-10.766A5.4,5.4,0,0,0,76.334,86.6a75.23,75.23,0,0,1,2.65-10.983.549.549,0,0,0-.541-.748,186.3,186.3,0,0,1-18.959-.748.688.688,0,0,0-.644.49c-1.477,8.342-.948,15.013-3.586,25.561-.051.31-.541,1.522.181,1.5,6.422-.257,12.838-.064,19.242.1a.466.466,0,0,0,.438-.439c.078-1.831.1-3.637.155-5.468a.284.284,0,0,0-.567,0c-.129,1.676-.284,3.327-.413,5a155.683,155.683,0,0,0-17.694-.516c1.379-3.985,3.179-22.042,3.456-24.891,5.855.207,11.684.49,17.54.594a50.974,50.974,0,0,0-2.2,10.7,4.282,4.282,0,0,0-1.819,1.216c-.2.21.077.619.361.439a3.956,3.956,0,0,1,4.6.216,8.055,8.055,0,0,1,1.694,8.605c-.671,1.47-2.585,2.763-4.076,1.444a.174.174,0,0,0-.258.232,2.786,2.786,0,0,0,2.382,1.039,7.833,7.833,0,0,0,9.561-4.572C89.638,91.29,89.414,83.194,87.677,79.1Z" fill="#023047"></path><path d="M105.087,78.613c-2.446-.31-4.453.813-8.769-.748,2.6-.586,4.861-3.7,3.662-8.641a.535.535,0,0,0-1.031.284c.386,2.012.515,4.153-.774,5.907a3.753,3.753,0,0,1-5.236,1.006c-.233-.181-.516.206-.31.412a23.078,23.078,0,0,0,7.351,2.915c1.625.258,3.844.464,5.34-.361C105.681,79.181,105.449,78.659,105.087,78.613Z" fill="#023047"></path><path d="M77.824,46.216c-.155-2.682,1.367-4.926,1.986-7.428a12.642,12.642,0,0,0-2.966-11.143,13.6,13.6,0,0,0-11.272-4.307c-6.566.565-14.388,7.685-15.3,17.539a10.782,10.782,0,0,1-1.7,5.546c-1.78,2.476-4.566,3.843-5.623,6.835-1.12,3.117-.309,6.532,2.52,8.25a53.9,53.9,0,0,0-11.29,8.619c-2.708,2.682-5.262,5.881-5.881,9.75C26.938,88.163,33.208,95.283,40.615,99.4c-.23,6.9-.059,13.137.711,15.4.166.515,2.509,1.766,4.922,2.833.714,4.569,2.12,13.52,2.12,13.52a33.98,33.98,0,0,0,25.9.181s.4-8.568.582-13.16a8.323,8.323,0,0,0,3.081-1.878c.18-.154-.027-.443-.284-.412-2.578.308-5.12,2.615-12.929,3.423.252-3.4.527-14.192.213-16.114a.43.43,0,0,0-.825,0c-.42,2.06-.575,13.036-.473,16.21-10.373.771-16.238-2.361-21.452-4.706.1-1.393-.258-15.347-.155-18.545.384-11.6,1.223-13.617,1.625-19.113a.323.323,0,0,0-.515-.258c-2.6,1.98-5.159,4.359-5.443,7.867a7.739,7.739,0,0,0,.954,4.127,8.768,8.768,0,0,0,2.368,3.071c-.146,2.058-.264,4.163-.347,6.229a30.033,30.033,0,0,1-7.824-6.463,15.329,15.329,0,0,1-3.611-10.808c.335-3.92,2.837-7.144,5.519-9.853A51.5,51.5,0,0,1,54.861,58.257c1.146,2.915,4.005,5.069,6.2,7.072a.452.452,0,0,0,.748-.206,10.946,10.946,0,0,1,2.452-3.92,23.777,23.777,0,0,0-.156,5.132c.025,1.677-.207,3.766.361,5.365.154.413.893.389.825-.1-.434-3.153-.095-6.385-.376-9.559a18.283,18.283,0,0,1,1.537,2.595.508.508,0,0,0,.877,0,14.61,14.61,0,0,0,1.392-2.941c1.11.362,2.245.619,3.354,1.032a28.534,28.534,0,0,1,3.069,1.548.335.335,0,0,0,.464-.465,3.142,3.142,0,0,0-.216-.336,6.908,6.908,0,0,0,4.653-5.235C80.888,53.807,78.088,50.834,77.824,46.216ZM39.881,88.75c-2.478-4.273-.384-7.321,2.816-10.7a100.691,100.691,0,0,0-1.576,12.329A15.061,15.061,0,0,1,39.881,88.75Zm21.228-24.4a17.029,17.029,0,0,1-3.353-3.172c-1.006-1.213-1.7-2.657-2.682-3.87a7.434,7.434,0,0,0,1.212-1.6c5.515,3.5,5.4,3.857,7.3,5.082A8.245,8.245,0,0,0,61.109,64.349Zm2.941-4.23a37.819,37.819,0,0,0-6.866-4.93,11.745,11.745,0,0,0,1.526-8.74,2.834,2.834,0,0,0,1.6-.258c.179-.081.1-.439-.1-.413-1.754.232-3.631-.729-3.3-2.76a2.311,2.311,0,0,1,1.238-1.7c.823-.419,1.212-.026,1.935.258a.488.488,0,0,0,.593-.594,1.4,1.4,0,0,0-.506-.7,6.6,6.6,0,0,0,2.608-1.323c-.831,2.169-.4,5.675,1.793,6.642,2.037.877,4.514-1.238,4.643-2.914.129-2.064-.024-5.293-2.064-6.191a2.672,2.672,0,0,0-2.431.059,4.627,4.627,0,0,0,.445-1.606c1.393,1.446,3.485,1.68,5.489,2.018-1.616,1.2-1.412,4.012-1,5.978a2.672,2.672,0,0,0,2.711,2.236,7.7,7.7,0,0,1-1.292,4.96,5.531,5.531,0,0,1-4.7,2.038c-2.708-.052-5.6-1.239-6.164-4.127a.211.211,0,0,0-.413.051c0,2.941,2.812,4.772,5.494,5.288a9.972,9.972,0,0,0-.55,4.447A16.319,16.319,0,0,0,64.05,60.119Zm-.722-19.887c.283-1.779,2.27-4.1,4.023-2.218a5.714,5.714,0,0,1,1.032,4.591c-.129,1.393-2.634,3.228-4.127,1.7A4.971,4.971,0,0,1,63.328,40.232Zm9.8-2.553c1.675,1.116,2.155,5.084.181,6.164-1.782.976-3.121-.748-3.147-2.605C70.088,37.393,71.659,36.644,73.129,37.679Zm-6.19,25.742a10.008,10.008,0,0,0-2.27-2.734,12.2,12.2,0,0,0,.877-2.528c1.944,1.59,1.716,2.84,2.528,3.43A20.279,20.279,0,0,0,66.939,63.421Zm7.568-.821a11.983,11.983,0,0,0-5.66-1.785,4.664,4.664,0,0,0-1.083-1.779,10.259,10.259,0,0,0-2.174-2.025c.019-.1.563-3.4.575-3.5.1,0,.206.024.309.026,4.488.088,7.6-2.9,7.077-8.67,2.292-1.145,2.377-4.652,1.226-6.675a3.962,3.962,0,0,1,1.989,3.4.345.345,0,0,0,.671.1c1.031-3.095-2.4-5.031-4.927-5.545-3.405-.693-6.977-.227-8.383-4.514a.228.228,0,0,0-.438.129,6.326,6.326,0,0,0,.542,1.831,5.634,5.634,0,0,0-.516,1.986c-.781,3.219-3.538,3.68-5.185,4.385a.137.137,0,0,0-.056.037,3.226,3.226,0,0,0-2.523,2.646,3.431,3.431,0,0,0,2.166,3.663c.234,4.743-.154,5.054-1.594,8.493l-.108-.059a.425.425,0,0,0-.568.155,26.555,26.555,0,0,0-1.263,2.5,58.163,58.163,0,0,0-8.727,3.879,6.437,6.437,0,0,1-1.642-8.109c1.083-2.245,3.3-3.508,4.875-5.34,2.639-3.064,2.228-5.814,2.734-8.537,1.282-6.925,6.528-12.434,10.936-14.058A12.624,12.624,0,0,1,73.7,26.613a11.516,11.516,0,0,1,5.081,10.472c-.181,2.167-1.161,4.153-1.522,6.268-.743,4.194,1.576,8.172,1.831,12.665C79.265,59.359,77.827,61.756,74.507,62.6Z" fill="#023047"></path><path d="M109.576,43.044a15.42,15.42,0,0,0-1.239,6.216c-.051,2.063-.051,4.462.929,6.345.206.413.825.206.851-.232.077-2.038-.464-4.075-.49-6.113,0-2.038.438-4.05.438-6.087A.26.26,0,0,0,109.576,43.044Z" fill="#2a9d8f"></path><path d="M108.286,58.339a22.426,22.426,0,0,0-2.012-8.744c-.207-.387-.748-.1-.671.284a87.587,87.587,0,0,0,2.193,8.512A.249.249,0,0,0,108.286,58.339Z" fill="#2a9d8f"></path><path d="M99.361,47.248c2.735,2.515,3.181,4.267,4.334,5.8.258.335.851.154.722-.31-.568-2.4-2.734-4.462-4.566-5.984C99.516,46.474,99.025,46.939,99.361,47.248Z" fill="#2a9d8f"></path><path d="M94.409,69.817c-.162-.695-1.083-1.421-1.677-1.8a12.863,12.863,0,0,0-3.92-1.367c-1.555-.342-6.458-1.3-7.79-.413-.991.661-.828,1.917-.49,3.044A7.063,7.063,0,0,0,84.3,73.815C89.337,76.267,95.19,73.169,94.409,69.817Z" fill="#2a9d8f"></path><path d="M105.99,56.56c-.466-.618-1.083-1.161-1.883-.877a14.289,14.289,0,0,0-3.095,2.037c-.258.207-.026.619.258.465,2.885-1.554,3.127-2.2,3.972-1.058.413.568.826,1.316,0,1.651a8.493,8.493,0,0,0-1.857.954c-.645.465.181,1.135.542.8.619-.258,1.238-.568,1.831-.877a1.8,1.8,0,0,0,.851-.645C107.022,58.21,106.478,57.206,105.99,56.56Z" fill="#023047"></path><path d="M111.252,17.224a7.338,7.338,0,0,1,6.062,3.225c1.315,2.063.928,4.075.644,6.319-.077.542.645.568.9.232,1.574-2.166.826-5.649-.7-7.609a7.239,7.239,0,0,0-7.016-2.734C110.865,16.734,110.968,17.22,111.252,17.224Z" fill="#2a9d8f"></path><path d="M87.445,40.568A8.964,8.964,0,0,1,83.5,35.332c-.593-2.451.31-4.54,1.264-6.758a.3.3,0,0,0-.464-.361c-3.424,2.739-3.12,10.336,2.837,12.87A.3.3,0,1,0,87.445,40.568Z" fill="#2a9d8f"></path><path d="M90.643,14.1A10.89,10.89,0,0,1,94.1,8.48c1.78-1.5,3.869-1.986,6.062-2.5.568-.128.361-.876-.129-.928C94.9,4.457,90.488,9.254,89.9,14,89.843,14.439,90.536,14.515,90.643,14.1Z" fill="#2a9d8f"></path><path d="M136.04,39.407a2.3,2.3,0,0,0-.284,1.109.724.724,0,0,0,1.419.181,2.129,2.129,0,0,0-.124-1.327A.606.606,0,0,0,136.04,39.407Z" fill="#023047"></path><path d="M127.734,36.828a3.942,3.942,0,0,0-.051,1.186c.1.413.361.877.851.8s.619-.568.593-1.006a3.435,3.435,0,0,0-.361-1.135A.528.528,0,0,0,127.734,36.828Z" fill="#023047"></path><path d="M127.064,29.837c1.756-1.051,2.909-.923,3.817-1.263a.461.461,0,0,0,0-.877c-1.5-.465-3.224.567-4.359,1.444C126.135,29.451,126.627,30.1,127.064,29.837Z" fill="#023047"></path><path d="M142.978,34.48c-.687-1.358-1.7-3.3-3.224-3.894-.387-.155-.619.335-.49.619a9.045,9.045,0,0,0,1.393,1.754A16.015,16.015,0,0,1,142.1,34.97.5.5,0,1,0,142.978,34.48Z" fill="#023047"></path><path d="M65.778,40.851c-.145.6-.542,1.625,0,2.115a.548.548,0,0,0,.593.078c.645-.387.439-1.419.387-2.038C66.707,40.464,65.916,40.286,65.778,40.851Z" fill="#023047"></path><path d="M71.659,42.5a.57.57,0,0,0,1.006-.052c.338-.676.1-.916-.026-1.418a.55.55,0,0,0-.516-.387C71.486,40.5,71.33,42.009,71.659,42.5Z" fill="#023047"></path><path d="M64.824,39.691c.413-.645,1.109-.8,1.7-1.213a.259.259,0,0,0-.051-.464c-.955-.31-1.832.542-2.219,1.315A.337.337,0,0,0,64.824,39.691Z" fill="#023047"></path><path d="M73.619,38.814a1.467,1.467,0,0,0-.98-1.006,1.264,1.264,0,0,0-1.212.1c-.1.077-.052.232.026.309.232.181.541.258.773.439a5.426,5.426,0,0,1,.723.567C73.232,39.433,73.75,39.174,73.619,38.814Z" fill="#023047"></path></g></svg>