<svg viewBox="0 0 140 140" height="140" width="140" xmlns="http://www.w3.org/2000/svg"><g transform="matrix(0.7,0,0,0.7,0,0)"><path d="M141.681,55.72c-.7.2-23.279,16.329-25.147,17.746s-5.544,6.422-5.066,6.879c.74.708,7.068-1.583,7.915-2.074s24.444-17.153,25.6-17.952S142.386,55.521,141.681,55.72Z" fill="#f28482"></path><path d="M100.037,107.393c-10.006.574-19.171-7.4-33.467-11.874-6,1.045-17.367.467-19-3.237-21.372,3.166-39.4,16.7-42.2,25.8-2.683,8.707,9.72,25.915,15.673,31.536,2.628-14.945,6.282-30.859,12.087-44.9.294-.712.951-.276.728.412a328.758,328.758,0,0,0-13.457,60.158c11.3,6.681,47.3,8.241,58.964,5.383.095-4.931.791-21.483,1.433-34.29-5.011-.4-10.01-.984-14.969-1.8-.792-.13-.443-.967.333-.863,9.326,1.252,28.2,3.445,39.1.459,6.7-1.836,20.454-8.9,31.4-42.2-3.166-2.375-8.549-4.425-13.852-5C121.362,91.15,104.96,107.11,100.037,107.393Z" fill="#f28482"></path><path d="M94.655,36.952A71.124,71.124,0,0,1,109.172,50.5c.663.787,1.4.168,1.9-.475,6.646-8.588,10.2-13.628,19.084-21,.7-.578-.092-1.424-.839-.9-6.089,4.254-15.451,13.219-19.448,19.551a69.646,69.646,0,0,0-14.5-11.968C94.344,35.082,93.66,36.29,94.655,36.952Z" fill="#f28482"></path><path d="M100.639,36.01c1.725.2,14.247-.329,16.2-.364.974-.018,1.046-1.574.056-1.536-1.971.075-14.6.367-16.37.681C99.8,34.919,99.99,35.933,100.639,36.01Z" fill="#f28482"></path><path d="M96.507,74.092c-.869-.392-1.583.791-.791,1.282a111.889,111.889,0,0,1,12.665,9.182c1.208,1.009,2.694-.913,1.5-1.931A56.681,56.681,0,0,0,96.507,74.092Z" fill="#f28482"></path><path d="M122.257,53.923c.043-3.729-.321-7.726-.341-11.478,0-.95-1.322-.791-1.314.158q.049,5.961.1,11.913c-2.984,0-16.448.365-19.52.942-.324-3.411-.479-6.849-.981-10.242a.555.555,0,0,0-1.1.087c.159,3.332.3,6.736.555,10.068.136,1.773.142,1.655,1.891,1.528,6.056-.441,12.222-.8,18.293-.855C121.592,56.027,122.231,56.147,122.257,53.923Z" fill="#f28482"></path><path d="M114.729,67.546c-3.349.043-7,.095-10.33.474-3.475.4-3.23.692-2.984,3.824a20.87,20.87,0,0,0,.316,2.454.626.626,0,0,0,1.243,0c0-.57-.277-4.441-.2-4.536s10.592-.833,11.715-.91C115.457,68.785,115.694,67.533,114.729,67.546Z" fill="#f28482"></path><path d="M103.52,82.862a.641.641,0,0,0-1.266.111,60.61,60.61,0,0,0,.451,6.2.737.737,0,0,0,.678.79c.1.008,7.761-.189,13.364-.719,1.433-.135.562-1.418-.277-1.353-3.958.3-8.39.459-12.364.577C103.948,86.543,103.813,84.707,103.52,82.862Z" fill="#f28482"></path><path d="M69.515,64.664c-1.931-.118-3.079,2.264-2.042,2.478.538.111.712-1.235,1.955-1.227a.627.627,0,0,0,.087-1.251Z" fill="#e63946"></path><path d="M72.214,62.527c-.288-.58-.8-.108-.665.443.849,3.391,1.812,5.28,2.533,9.048.388,2.026-1.463.791-1.52,2.375a25.025,25.025,0,0,1-.356,3.5,3.722,3.722,0,0,1-2.09-1.14c-.356-.467-.973-.047-.68.578a3.441,3.441,0,0,0,2.628,1.781c-.641,5.1-3.336,5.392-7.647,4.5-.792-.163-1.585-.445-2.454-.562-.42-.056-1.5.792,1.322,1.583,0,1.37.3,8.36.689,9.642.165.538,1.014.474.966-.135-.25-3.167-.349-6.127-.4-9.222,8.6,1.758,8.462-3.506,9.15-10.25,1.773-.254,1.853-1.721,1.583-3.127A35.044,35.044,0,0,0,72.214,62.527Z" fill="#e63946"></path><path d="M47.874,48.018c-2.3-8.32-11.209-16.932-23.2-10.678s-10.4,23.083-3.95,30.206c4.052,4.473,7.916,9.752,7.322,13.852s5.717.538,2.43-12.895C27.849,57.769,36.428,48.841,43.14,53.044A17.6,17.6,0,0,1,47.874,48.018Z" fill="#e63946"></path><path d="M59.842,67.823c1.791,1.063,12.923-7.918,12.238-9.982-5.5-16.557-25.954-12.263-29.233-.42-3.679,13.289,7.274,23.712,7.971,23.621,1.013-.133,4.2-2.177,5.383-6.159a3.4,3.4,0,0,0,3.435,0c.68-.387.189-1.159-.53-.9-1.752.625-3.641-.792-3.451-3.815A2.764,2.764,0,0,1,59.842,67.823Z" fill="#e63946"></path><path d="M50.256,82.585A45.868,45.868,0,0,0,49.219,91.7a.539.539,0,0,0,1.061.071c.606-2.917.7-6.063,1.235-9.095C51.642,81.952,50.392,81.881,50.256,82.585Z" fill="#e63946"></path><path d="M70.7,68.7c-.456-1.586-1.958-1.655-1.369.578C69.867,71.3,71.181,70.368,70.7,68.7Z" fill="#e63946"></path><path d="M119.589,68.487c.477-.48,4-.754,4.267-.839.607-.2.467-1.093-.04-1.29-1.021-.4-3.91.174-4.876.7s-1.128,2.289-1.987,4.14c-.441.95-1.032,1.824-1.417,2.794-.187.473.384.8.792.475C118.275,72.933,119.565,68.511,119.589,68.487Z" fill="#e63946"></path><path d="M117.222,76.775a.563.563,0,0,0-.237,1.085c6.889,2.524,6.466,7.117,7.425,8.208.207.236,1.562.74,1.227-1.2C124.961,80.954,121.219,77.09,117.222,76.775Z" fill="#e63946"></path><path d="M131.328,72.152c2.678,6.528,2.81,8.139,2.636,15.2-.02.792,1.167,1.11,1.377.3,1.217-4.688-.208-12.2-3.016-16.156C131.911,70.912,131.081,71.551,131.328,72.152Z" fill="#e63946"></path><path d="M126.943,74.234c-.157,1.774-1.277,1.76-2.375,2.09-1.372.412-.594.791,0,.934a2.829,2.829,0,0,0,3.562-3.166C127.964,73.31,127.01,73.475,126.943,74.234Z" fill="#e63946"></path><path d="M176.075,49.553c1.52-.084,1.076-2.412-.428-2.327-10.867.616-21.92-.04-32.454.618-1.2.074-.989,1.891.1,2.018C149.574,50.594,169.941,49.9,176.075,49.553Z" fill="#e63946"></path><path d="M193.742,35.036c-12.948-.428-40.25-.3-52.282.966-.982.1-1.251,1.907-.071,1.9,13.773-.086,36.479-1.009,52.575-.5C195.5,37.452,195.247,35.086,193.742,35.036Z" fill="#e63946"></path><path d="M192.136,68.155c-15.682,1.3-34.477-.319-48.768,1.409-1.132.137-.848,2.064.316,2,12.759-.763,31.662-.215,48.515-1.013C193.719,70.474,193.679,68.027,192.136,68.155Z" fill="#e63946"></path><path d="M174.08,79.269c-7.331-.438-23.556-.39-29.7-.088-1.148.057-1.314,1.993-.119,2.066,9.151.562,19.14.533,29.683.317C175.188,81.539,175.449,79.35,174.08,79.269Z" fill="#e63946"></path></g></svg>