<svg viewBox="0 0 140 140" height="140" width="140" xmlns="http://www.w3.org/2000/svg"><g transform="matrix(0.7,0,0,0.7,0,0)"><path d="M129.144,100.4c2.277-2.5,4.291-1.782,4.935.249a6.12,6.12,0,0,1-.217,4.052.4.4,0,0,1-.756-.277,4.817,4.817,0,0,0-.174-4.027c-.585-.88-1.625-.832-2.976.722-2.01,2.314-2.465,5.8-2.643,8.831.03.791-14.367,22.483-15.443,33.772-.966,10.121,5.2,15.269,14.432,13.472a.364.364,0,0,1,.145.713c-10.86,2.332-16.71-4.14-15.779-14.3,1.015-11.069,14.757-32.453,15.423-33.779C126.327,109.462,125.932,103.923,129.144,100.4Z" fill="#023047"></path><path d="M192.616,158.425c-.379,4.651-.4,5.358.1,5.433.453.066.59-.572.749-1.262.208-.9.72-5.758-.222-5.775C192.748,156.815,192.607,158.2,192.616,158.425Z" fill="#023047"></path><path d="M149.522,112.824c1.624,2.367,5.544,1.18,6.962-1.146a.4.4,0,1,0-.57-.548c-.267.211-.575.374-.881.571-1.525,1.04-2.835,1.638-4.562.8a2.974,2.974,0,0,1-.46-.213C149.666,111.959,149.147,112.511,149.522,112.824Z" fill="#023047"></path><path d="M152.622 101.668 A1.932 0.906 0 1 0 156.486 101.668 A1.932 0.906 0 1 0 152.622 101.668 Z" fill="#023047" transform="translate(31.801 240.069) rotate(-81.767)"></path><path d="M143.785 101.603 A1.932 0.977 0 1 0 147.649 101.603 A1.932 0.977 0 1 0 143.785 101.603 Z" fill="#023047" transform="translate(24.294 231.267) rotate(-81.767)"></path><path d="M171.037,88.961a7.421,7.421,0,0,0-3.574-6.181c-2.928-1.69-7.291-1.526-8.877-1.7a4.137,4.137,0,0,1-2.631-1.054c-1.012-.947-1.712-2.495-2.965-3.09-1.684-.809-3.487.493-3.152,3.249a1.231,1.231,0,0,1-.163-.135c-1.078-.845-2.578-1.615-3.558-.661a2.941,2.941,0,0,0-.546,2.618,5.362,5.362,0,0,0,.236,1.053,3.963,3.963,0,0,0-2.784-.434c-1.222.494-1.014,2.149-.751,3.438a10.858,10.858,0,0,0,4.827,6.611c3.538,2.408,8.448,2.046,12.526.64a10.53,10.53,0,0,0,1.6,8.171c-.578-.085-2.4-.312-2.988-.3a10.115,10.115,0,0,0-.021-1.815c-.18-1.648-.985-3.859-2.592-4l0-.033a2.957,2.957,0,0,0-2.76,1.544,8.747,8.747,0,0,0-1.353,3.047,2.728,2.728,0,0,0-2.689-.249c-.1-1.838-.912-4.313-2.629-4.466l0-.033c-2.937-.562-5.482,5.8-4.091,10.194a3.354,3.354,0,0,0,1.96,2.384c-.047,5.094,1.343,10.168,6.1,11.887a7.13,7.13,0,0,0,1.958.384c.151,1.533.113,1.372.276,2.578-.549.136-1.234.364-1.883.531a.4.4,0,0,0,.167.778l2.38-.373a.52.52,0,0,0,.449-.574c-.06-1.551-.088-1.974-.256-3.58a.6.6,0,0,0-.57-.535,6.655,6.655,0,0,1-5.955-3.8c-1.145-2.181-1.422-4.754-1.806-7.23a2.9,2.9,0,0,0,1.545-.8c-.1.615-.184,1.232-.271,1.841a.592.592,0,0,0,.457.671,12.451,12.451,0,0,0,2.668.473.4.4,0,0,0,.206-.768,11.932,11.932,0,0,0-2.05-.745c.252-1.87,1.1-5.684,1.233-6.605.148-1.065-.013-.784.3-.954a1.581,1.581,0,0,1,1.049-.267,2.858,2.858,0,0,1,1.2.552,9.947,9.947,0,0,0,.269,4.31c1.356,4.284,5.586,2.858,6.565-3.207.486.1,1.393.176,2.108.266.612.078,1.2.2,1.815.251.626.05.09-.151.982.531.93.711,2.141.521,2.959.887,1.606.717,1.613,4.616-1.735,4.924-1.405.129-1.784-.245-2.1-.012a.428.428,0,0,0-.2.3c-.248,1.722-.639,3.451-.841,5.2-.139,1.213-1.029,8.151.2,8.131.486-.008.587-1.061.575-1.391.06-.944,0-2.681,0-2.789,4.808-4.124,10.621-9.8,12.1-15.96a33.476,33.476,0,0,0,.648-4.07C175.033,94.745,174.768,90.073,171.037,88.961Zm-25.805,17.486a.929.929,0,0,1-1.281-.186c-1.861-1.978-.876-8.583,1.335-10.051a1.287,1.287,0,0,1,.808-.241l0-.032C148.457,96.422,148.109,104.733,145.232,106.447Zm9.426.156a.928.928,0,0,1-1.281-.185c-2.255-2.4-.282-10.523,2.143-10.292l0-.032C157.927,96.585,157.5,104.914,154.658,106.6Z" fill="#023047"></path><path d="M161.518,124.827a15.594,15.594,0,0,0-6.95,2.572c-.929-1.006-2.094-.873-3.3-.231a2.146,2.146,0,0,0-.421.3,16.953,16.953,0,0,0-4.636-2.4.615.615,0,0,0-.823.534,53.515,53.515,0,0,0,.352,6.622.6.6,0,0,0,.669.553,10.406,10.406,0,0,0,4.383-1.568,2.5,2.5,0,0,0,3.83-.184,9.91,9.91,0,0,0,5.268,1.549.652.652,0,0,0,.517-.34,19.32,19.32,0,0,0,1.8-6.762A.6.6,0,0,0,161.518,124.827Z" fill="#023047"></path><path d="M154.761,152.135c.586-.009,1.154.1,2.106.143.378.019,6-.012,7.1-.047a15.1,15.1,0,0,0,2.657-.29.4.4,0,0,0-.03-.794c-.341-.014-2.873-.241-9.736-.046a9.256,9.256,0,0,0-2.206.313A.365.365,0,0,0,154.761,152.135Z" fill="#023047"></path><path d="M195,154.738c-1.773-14.4-14.527-32.162-30.4-33.643a.506.506,0,0,0-.33.089c-.058.039-2.917,1.944-3.922,2.628a.366.366,0,0,0,.4.614c.1-.062,3.811-2.338,3.912-2.391,14.729,2,27.109,18.22,29.077,32.46a35.877,35.877,0,0,1-13.109,4.12c-6.015.835-6.809.584-8.372.222.209-3.5.935-9.893-.066-9.9-.462,0-.357.34-.636,2.345-.068.795-.456,6.112-.537,7.992a.6.6,0,0,0,.475.615,9.7,9.7,0,0,0,2.574.31,52.9,52.9,0,0,1,.12,5.45.393.393,0,1,0,.786.03c.085-1.425.143-3.946.082-5.544,6.483-.1,14.169-1.377,19.657-4.8A.628.628,0,0,0,195,154.738Z" fill="#2a9d8f"></path><path d="M133.1,111.471a6.85,6.85,0,0,1,2.573-2.992,3.228,3.228,0,0,1,3.97.636c.744.734,1.76,2.418,3.534,2.093a.4.4,0,0,0-.069-.791c-1.058-.007-1.689-1.212-2.6-2.151-2.964-3.076-7.6-.768-8.108,3a.356.356,0,0,0,.233.452A.371.371,0,0,0,133.1,111.471Z" fill="#023047"></path><path d="M134.3,97.65a3.814,3.814,0,0,1,1.089.242c1.362.508,1.324,2.562,1.195,4.052-.034.395-.016.921-.063,1.426a.409.409,0,0,0,.294.478.4.4,0,0,0,.479-.3c1.383-3.308.312-7.837-3.1-6.623A.364.364,0,0,0,134.3,97.65Z" fill="#023047"></path><path d="M139.067,97.142c.25-.31.685-.7,1.149-1.245.921-1.069,3.082-3.415,4.314-2.667a2.873,2.873,0,0,1,.923,1.033.393.393,0,1,0,.735-.277,2.878,2.878,0,0,0-1.009-1.734c-1.827-1.328-4.542,1.1-5.874,2.909a7.841,7.841,0,0,0-.861,1.612C138.189,97.171,138.842,97.566,139.067,97.142Z" fill="#023047"></path><path d="M162.494,130.175a7.97,7.97,0,0,0,1.332-1.091c.79-.757,3.272-3.256,3.664-3.731a11.781,11.781,0,0,0,.707-1.017.414.414,0,0,0,0-.562.407.407,0,0,0-.569.021c-.266.216-.553.409-.82.633a42.734,42.734,0,0,0-4.528,4.722c-.111.181-.2.357-.313.542A.358.358,0,1,0,162.494,130.175Z" fill="#2a9d8f"></path><path d="M148.91,123.978a32.827,32.827,0,0,0-13.92,5.467c-.2.135-2.5,1.695-3.212,2.231a.364.364,0,0,1-.511-.036.371.371,0,0,1,.039-.513,25.834,25.834,0,0,1,3.019-2.644,31.439,31.439,0,0,1,14.875-5.658.552.552,0,0,1,.6.39l.548,2.513a.405.405,0,0,1-.256.5.4.4,0,0,1-.5-.261Z" fill="#2a9d8f"></path><path d="M134.593,148.226a11.715,11.715,0,0,0-.423,1.768c-.086.532-.663,6.4-.622,7.318-1.814.538-3.572,1.011-6.841,1.754a43.433,43.433,0,0,0,4.883-16.975,27.272,27.272,0,0,0-.263-9.4.368.368,0,0,0-.721.15,34.1,34.1,0,0,1-.2,9.13c-.66,6.2-2.193,12.432-5.464,17.676a.611.611,0,0,0,.644.916c2.67-.6,5.363-1.224,7.988-2.029-.006,3.528.178,4.53.321,6.826a.392.392,0,1,0,.783-.046,98.3,98.3,0,0,1,.44-12.552c.359-4.072.164-2.672.263-4.4A.4.4,0,0,0,134.593,148.226Z" fill="#2a9d8f"></path><path d="M149.88,133.4a42.486,42.486,0,0,0-1.453,5.085c-2.217,10.281-1.732,25.554-1.787,27.53a.4.4,0,0,0,.805.031c.087-1.379.209-2.751.293-4.128.35-5.678-.021-16.341,2.837-28.313a.356.356,0,0,0-.233-.452A.372.372,0,0,0,149.88,133.4Z" fill="#2a9d8f"></path><path d="M175.549,161.994c.019.741.038,1.48.066,2.22.022.575.016,1.777.6,1.782.8.006.625-2.405.583-3.192a5.879,5.879,0,0,0-.1-1.132c-.042-.222-.307-1.1-.688-1.049C175.593,160.675,175.539,161.575,175.549,161.994Z" fill="#023047"></path><path d="M24.215,57.258l.16-8.6a.719.719,0,0,1,.719-.716.729.729,0,0,1,.719.728v9.408a.813.813,0,0,1-.81.811H13.563c.016,3.488,0,43.588-.01,46.35H59.937V87.511l-33.764.776a1.209,1.209,0,0,1-1.242-1.164L24.28,71.7a1.21,1.21,0,0,1,1.227-1.267l15,.171.186-13.043a1.221,1.221,0,0,1,1.19-1.2l37.361-.694A1.194,1.194,0,0,1,80.468,56.9L79.363,124.16l16.147-.153,1-16.347a.98.98,0,0,1,1-.929H115.3a.946.946,0,0,1,.9.985l-1.1,16.733a.771.771,0,0,1-.815.74.791.791,0,0,1-.758-.832l.826-15.782-15.872.148-.82,16.445a1.11,1.11,0,0,1-1.1,1.046l-18.358.291a1.176,1.176,0,0,1-1.184-1.185l1.028-67.212-34.928.663L42.93,71.853a1.222,1.222,0,0,1-1.23,1.2l-14.942-.17L27.3,85.832l33.785-.767a1.226,1.226,0,0,1,1.251,1.207v20.273A1.14,1.14,0,0,1,62,107.4c-.319.319,2.818.311-49.612.2a1.315,1.315,0,0,1-.817-.491,1.238,1.238,0,0,1-.346-.825L11.762,58a.906.906,0,0,1,.907-.9Z" fill="#2a9d8f"></path><path d="M99.819,139.622a25.349,25.349,0,0,1-.591,4.54c-.3,1.324-.412,2.135-1.137,2.079-.594-.045-.684-.459-.812-2.227-.031-.435-.077-.925-.075-1.447.01-2,.266-4.306.266-4.306a1.217,1.217,0,0,1,1.253-1.121s4.143.078,7.116.305c1.433.11,3.829.275,3.8,1.3s-2.41,1.015-3.885,1.026C103.77,139.786,101.274,139.689,99.819,139.622Z" fill="#2a9d8f"></path><path d="M100.96,154.007c-.949-1.514-2.2-3.157-2.2-3.157a1.213,1.213,0,0,0-1.982,0c-1.993,2.862-2.468,3.535-2.787,4.086-.294.5-1.4,2.492-.71,2.983.831.592,2.58-1.64,3.186-2.46.019,1.359.011,3,.137,4.161.021.55.337,2.521,1.215,2.5.856-.018,1.1-2.17,1.119-2.553.07-1.225-.036-2.9-.066-4.431.741.93,2.171,2.912,3.064,2.275C102.721,156.855,101.64,155.094,100.96,154.007Z" fill="#023047"></path><path d="M28.575,37.247c-.948-1.514-2.2-3.157-2.2-3.157a1.213,1.213,0,0,0-1.982,0C22.4,36.948,21.922,37.63,21.6,38.179c-.419.717-1.39,2.5-.71,2.983.816.581,2.591-1.654,3.185-2.459.036,1.655-.167,6.7,1.353,6.662.856-.018,1.1-2.17,1.119-2.553.07-1.225-.036-2.9-.066-4.431.744.933,2.171,2.912,3.064,2.275C30.337,40.094,29.255,38.333,28.575,37.247Z" fill="#023047"></path><path d="M108.4,147.5c-.615-.049-2.465-.019-2.707.009.016-.777.052-1.2.015-1.6-.093-.609-.19-1.24-.558-1.248-.4-.009-.579,1.014-.6,1.225-.048.487-.134,2.65-.1,3.6.016.4.121,1.382.564,1.391.617.013.639-1.581.656-2.2a9.3,9.3,0,0,0,.968.028c.741.006,2.929.12,2.9-.617C109.566,147.67,108.8,147.532,108.4,147.5Z" fill="#023047"></path><path d="M105.956,119.567c.027-.523-.805-.517-.784.014,0,0-.021,11.2,0,12.271l-15.9.8a.612.612,0,0,0-.585.608c-.127,8.713.033,11.851.1,14.457l-19.306.046,1.846-68.893a.6.6,0,0,0-.613-.624L51.844,78.5c.057-3.443.037-6.084-.258-13.766,12.534.165,13.833-.015,18.348-.051a.4.4,0,0,0,.009-.795c-3.766-.126-4.024-.241-18.993-.387a.622.622,0,0,0-.623.635c.31,8.581.372,10.067.728,14.375l-16.83.228a.362.362,0,0,0-.359.367.374.374,0,0,0,.368.361s33.718.017,35.856,0c-.107,4.088-1.314,64-1.4,68.294L34,147.844c.011-1.355.129-15.453.136-16.251l17.267-.624a.6.6,0,0,0,.556-.609V114.607a.614.614,0,0,0-.64-.588H19.057a.6.6,0,0,0-.586.6l.193,16.257a.363.363,0,0,0,.726,0s.232-14.4.242-15.659H50.744v14.554l-17.22.668a.6.6,0,0,0-.567.587l.237,16.815c-11.456.029-20.746.054-23.041.065a1.724,1.724,0,0,1-1.733-1.7c-.118-9.882-2.34-89.24-2.459-92.586a1.9,1.9,0,0,1,1.79-1.948l9.012-.518a7.53,7.53,0,0,0,.024,1.239c.064.453.092,1.267.578,1.272.453,0,.605-1.109.6-1.261.061-.607.051-3.014.034-3.186-.066-.392-.2-1.137-.574-1.141s-.557.9-.584,1.13c-.044.38-.049.842-.054,1.2L7.7,50.778A2.818,2.818,0,0,0,5,53.649C5.057,57,6.874,136.365,7.185,146.243a2.971,2.971,0,0,0,2.976,2.89c6.7-.037,72.854-.575,78.642-.622.032,1.228.059,2.2.059,2.2a.378.378,0,0,0,.367.365.356.356,0,0,0,.359-.363c.245-6.482.316-7.839.314-16.871l15.924-.812a.59.59,0,0,0,.566-.612C106.281,128.212,106.2,123.782,105.956,119.567Z" fill="#023047"></path><path d="M126.336,50.82a2.29,2.29,0,0,0-2.055-.74H34.226a12.362,12.362,0,0,0-.041-1.519c-.019-.187-.213-.9-.584-.9-.345,0-.479.313-.593.9-.021.1.01-.991-.164,16.184l-13.668.281a.592.592,0,0,0-.564.6c-.354,34-.108,31.876.193,32.133.241.247-1.845.132,31.777-.934a.37.37,0,0,0,.359-.374.362.362,0,0,0-.367-.353l-30.8.693V66.228l13.689-.271a.616.616,0,0,0,.606-.6l.151-14.069H89.47c-.844,29.7-.893,27.967-.615,28.232.31.3-.9.169,16.965.2a.6.6,0,0,0,.605-.563l.294-15.337a.4.4,0,0,0-.388-.41.408.408,0,0,0-.417.384s-.65,13.709-.69,14.712H89.914c.052-2.087.27-25.625.285-27.222h34.089a1.467,1.467,0,0,1,1.675,1.577c-.075,3.038-.714,33.8-.951,45.268l-35.451-.74a.636.636,0,0,0-.625.6c-.176,11.033-.2,13.955-.021,20.392a.379.379,0,0,0,.368.368.352.352,0,0,0,.359-.358c.31-6.2.515-19.659.515-19.773,2.673.048,31.664.281,34.838.306-.045,2.18-.072,3.481-.072,3.481a.4.4,0,0,0,.8.019s1.345-45.794,1.414-49.535A2.931,2.931,0,0,0,126.336,50.82Z" fill="#023047"></path><path d="M158.668,76.468c1.332,1.229,3.647,1.1,3.51.352a.429.429,0,0,0-.45-.329,8.492,8.492,0,0,1-2.687-.652C158.7,75.63,158.229,76.063,158.668,76.468Z" fill="#023047"></path><path d="M165.924,67.873a40.589,40.589,0,0,0-4.118-.884c-1.969-.388-2.058-.681-2.628-.461-.854.332-.889,1.664-.51,2.507a1.917,1.917,0,0,0-.725,2.382c-1.088.948-.676,2.528.686,3.209a10.365,10.365,0,0,0,3.02.9c3.018.414,4.27-1.152,4.02-2.538a1.911,1.911,0,0,0,.412-2.614C167.408,69.417,167.1,68.24,165.924,67.873Zm.1,1.3c-.469.636-1.117.421-1.235.945-.113.5.584.668.49,1.392a.992.992,0,0,1-.507.671c-.705-.162-.231.044-2.474-.3-.34-.05-1.09-.077-1.2.268-.123.4.682.825,1.118.94a5.956,5.956,0,0,0,2.28.183c.011.532-.5.877-.986,1.009a7.579,7.579,0,0,1-4.314-.756c-.735-.367-.923-1.015-.157-1.377a.611.611,0,0,0,.2-.952c-.09-.1-.683-.843.493-1.394a5.843,5.843,0,0,0,2.782.814c1.339.034,1.765-.831.059-1.182-.373-.077-.766-.133-1.157-.232a9.231,9.231,0,0,0-1.546-.442,2.818,2.818,0,0,1-.258-1.107c2.815.91,6.191.484,6.53,1.3A.471.471,0,0,1,166.022,69.177Z" fill="#023047"></path><path d="M162.512,58.658c.245,2.69.257,3.9.314,5.762a.365.365,0,0,1-.726.076,66.927,66.927,0,0,1-.961-7.616.619.619,0,0,1,1.1-.428L164.1,58.63l3.686-1.364a.605.605,0,0,1,.785.8c-1.537,3.622-2.8,5.686-3.628,7.421a.4.4,0,0,1-.745-.31c1.569-4.1,1.372-3.26,2.686-6.278l-2.745,1.028a.629.629,0,0,1-.706-.186Z" fill="#023047"></path><path d="M148.608,58.477a12.549,12.549,0,0,0,2.549-.17c.389-.089,1.036-.3,1-.7-.046-.515-1.053-.484-1.569-.443-.608.045-1.2.077-1.8.135-.378.039-1.137.2-1.137.582C147.611,58.245,148.479,58.456,148.608,58.477Z" fill="#2a9d8f"></path><path d="M152.785,44.5c.146.169.681.734,1.2,1.218.35.328,1.976,2.015,2.491,1.487.324-.382-.265-.94-.628-1.4-.364-.377-1.919-1.878-2.255-2.124-.1-.077-.875-.635-1.177-.36C152.15,43.593,152.706,44.393,152.785,44.5Z" fill="#2a9d8f"></path><path d="M166.2,38.408a34.808,34.808,0,0,0-.392,3.7c.061.711.041,1.056.411,1.108.738.1.918-2.326.981-2.888.078-.694.385-2.92-.314-2.991C166.5,37.294,166.366,37.85,166.2,38.408Z" fill="#2a9d8f"></path><path d="M175.652,48.344c.474-.177.941-.417,1.412-.624.818-.356,2.522-.9,2.353-1.5-.115-.409-1.045-.252-1.275-.2a17.9,17.9,0,0,0-2.765,1.128C173.577,48.042,173.809,49.029,175.652,48.344Z" fill="#2a9d8f"></path><path d="M177.711,58.911c.3.024,3.055-.04,3.157-.048.788-.067,1.078-.1,1.137-.434.092-1-3.149-.762-4.255-.7-.4.024-1.333.106-1.373.516C176.331,58.709,177.284,58.878,177.711,58.911Z" fill="#2a9d8f"></path><path d="M159.786,64.706c-1.054-3.247-2.194-7.723-1.177-11,2.053-6.6,12.532-4.923,12.532,2.661,0,3.45-2.084,6.763-4.1,9.991a.4.4,0,0,0,.667.434,51.693,51.693,0,0,0,3.1-4.777c3.439-6.63.664-11.974-4.216-13.342a7.265,7.265,0,0,0-8.943,4.118c-1.457,3.924-.153,8.312,1.452,12.164a.359.359,0,0,0,.47.214A.383.383,0,0,0,159.786,64.706Z" fill="#2a9d8f"></path><path d="M138.4,113.905c-.362.778-.768,1.537-1.127,2.319-.238.517-5.5,12.664-5.855,13.625s-.671,1.945-.987,2.924a.4.4,0,1,0,.737.29c.356-.784.749-1.545,1.108-2.329.276-.6,5.618-13,5.855-13.628.244-.644.769-2.3.947-2.935a.368.368,0,0,0-.2-.472A.372.372,0,0,0,138.4,113.905Z" fill="#023047"></path></g></svg>