<svg viewBox="0 0 140 140" height="140" width="140" xmlns="http://www.w3.org/2000/svg"><g transform="matrix(0.7,0,0,0.7,0,0)"><path d="M79.992,62.555c-1.973-.833-4.2-.922-6.354-2.868-5.072-4.593-4.066-12.861-8.263-18.28-1.247-1.61-3.2-3.328-5.339-3.408-.331-.013-.331.419-.077.529a12.683,12.683,0,0,1,2.714,1.4c6.474,4.889,4.292,15,10.3,20.409a11.663,11.663,0,0,0,6.917,2.8C80.279,63.161,80.279,62.676,79.992,62.555Z" fill="#f28482"></path><path d="M60.731,37.789c2.031-.482,6.9-2.848,11.252-4.247,2.031-.654,3.056-.8,3.619-1.357a.231.231,0,0,0-.1-.386,3.435,3.435,0,0,0-1.82.11,64.351,64.351,0,0,0-9.41,3.53A25.689,25.689,0,0,0,60.521,37.3C60.271,37.468,60.369,37.841,60.731,37.789Z" fill="#f28482"></path><path d="M79.485,35.814c2.177,4.551,2.141,10.539,6.089,13.955,1.4,1.212,4.044,2.45,5.781,2.328.32-.022.521-.491.187-.662a23.531,23.531,0,0,0-2.614-.893c-6.421-2.393-5.865-9.749-8.55-15.147a7.764,7.764,0,0,0-3.585-3.916c-.209-.089-.461.152-.265.342A13.871,13.871,0,0,1,79.485,35.814Z" fill="#f28482"></path><path d="M92.006,52.924a4.243,4.243,0,0,0-1.214.916c-1.574,1.417-1.4,1.221-4.379,3.585a64.336,64.336,0,0,1-6.024,4.457c-.22.133-.088.541.188.441,2.317-.893,4.247-2.6,6.189-4.1,1.142-.876,3.528-2.692,4.489-3.63a3.121,3.121,0,0,0,.982-1.412C92.281,53.046,92.16,52.869,92.006,52.924Z" fill="#f28482"></path><path d="M73.009,39.687c-1.07.55-2.108,1.155-3.155,1.743-.254.142-.034.495.221.375,3.5-1.65,2.025-.932,4.832-2.35a3.3,3.3,0,0,0,1.279-.85.189.189,0,0,0-.165-.286C75.541,38.319,75.394,38.46,73.009,39.687Z" fill="#f28482"></path><path d="M77.422,43.437a4.956,4.956,0,0,0,1.666-.937.263.263,0,0,0-.177-.442,3.822,3.822,0,0,0-1.644.53,29.7,29.7,0,0,0-5.162,2.9.231.231,0,0,0,.22.386C73.875,45.283,75.366,44.366,77.422,43.437Z" fill="#f28482"></path><path d="M81.614,47.486c-1.423-.256-4.328,2.428-6.685,3.342-.319.124-.2.632.143.53a27.553,27.553,0,0,0,5-2.57,6,6,0,0,0,1.655-.916A.237.237,0,0,0,81.614,47.486Z" fill="#f28482"></path><path d="M81.415,51.843c-.978.514-1.377.992-3.949,2.692-.332.219-.032.752.309.541a21.308,21.308,0,0,0,3.894-2.891A.215.215,0,0,0,81.415,51.843Z" fill="#f28482"></path><path d="M115.061,64.927a50.532,50.532,0,0,1-5.593-1.17c.707-2.184,1.421-4.358,2.041-6.574a.281.281,0,0,0-.54-.155c-.888,2.266-1.633,4.593-2.427,6.9a.407.407,0,0,0,.287.507,50.162,50.162,0,0,0,5.14,1.28,5.3,5.3,0,0,0,.894.143,28.9,28.9,0,0,1-1.07,9.8,37.09,37.09,0,0,1-4.424,9.642c-.119.2.166.442.331.254,3.943-4.482,6.831-12.774,6.134-20.221A.527.527,0,0,0,115.061,64.927Z" fill="#f28482"></path><path d="M115.613,61.408a22.058,22.058,0,0,0-3.32-4.909.342.342,0,0,0-.034-.585c-1.4-.654-5.818-.908-7.291-.96a39.139,39.139,0,0,0-7.414.508c-.286.044-.22.517.067.5a60.87,60.87,0,0,1,7.236-.055c4.735.22,5.7.691,6.906.717a.247.247,0,0,0,.044.188c3.684,5.375,3.2,6,3.994,6.585.2.146.43-.055.441-.253A3.378,3.378,0,0,0,115.613,61.408Z" fill="#f28482"></path><path d="M108.851,72.307c.418.134.848.257,1.268.4a8.984,8.984,0,0,0,1.037.342.279.279,0,0,0,.342-.342c-.181-.749-1.18-.981-1.82-1.191-2.934-.964-5.562-1.92-8.318-1.479a.276.276,0,0,0,0,.53C104.317,71.084,101.934,70.093,108.851,72.307Z" fill="#f28482"></path><path d="M100.323,73.509c2.844.74,5.761,1.347,6.73,1.688a9.017,9.017,0,0,1,1.367.783.252.252,0,0,0,.365-.143c.247-1.321-2.042-1.74-2.924-1.931-1.81-.391-3.621-.729-5.449-1C100.069,72.851,99.992,73.423,100.323,73.509Z" fill="#f28482"></path><path d="M75,74.039c-2.376-3.7-4.766-4.3-7.3-3.762a12.205,12.205,0,0,0-8.428,5.439C57.61,78.347,58,83.65,61.007,86.979c4.288,4.754,10.725,4.327,14.252-1.3C77.6,81.948,77.662,78.211,75,74.039Zm-4.534,9.685c-.925-.089-1.622-.959-.949-1.787.828-1.022,2.029-.209,2.284-.209-.011-.122-.122-1.467-.177-2.019-.019-.216-.457-3.254-.474-3.354a11.512,11.512,0,0,0-3.243.276,25.42,25.42,0,0,0-3.31.96,26.229,26.229,0,0,1,1.07,5.163c.374,0,1.108-.034,1.456.43a.537.537,0,0,1-.11.816c-1,.673-3.5,1.721-4.324.243a1.5,1.5,0,0,1,1.853-2.008c-.326-2.409-.666-3.433-.706-4.457l-.265.034c-.265.011-.342-.331-.2-.5a4.626,4.626,0,0,1,2-1.2,15.167,15.167,0,0,1,2.306-.651c.809-.166,3.987-.7,4.479.077a.428.428,0,0,1,0,.441.916.916,0,0,1-.464.32c1,1,.891,4.845,1.181,6.3C73,83.647,71.18,83.794,70.461,83.724Z" fill="#e63946"></path><path d="M120.335,21.021c.253-.265.154-.8-.3-.772a19.688,19.688,0,0,1-4.578-.077c-1.44-.234-1.2-.231-13.161-4.413a.409.409,0,0,0-.452.177c-2.324,5.146-1.214,3.324-3.541,8.891-3.353,8.019-3.255,8.843-4.733,10.921a4.67,4.67,0,0,0-.993,1.523.354.354,0,0,0,.43.43c.056-.022.111-.033.155-.055,0,.455,2.263,1.678,2.548,1.842,5.267,3.034,10.208,5.01,16.316,5.494a11.211,11.211,0,0,0,3.045.011.477.477,0,0,0,.176-.806,9.3,9.3,0,0,0,.938-2.151c.331-.893.617-1.809.871-2.725.89-3.2,2.961-13.415,3.751-17.97A.309.309,0,0,0,120.335,21.021Zm-4.281,17.805c-1.068,3.912-1.568,3.986-1.787,5.174a37.7,37.7,0,0,1-4.975-.452c-8.156-1.329-13.718-5.617-15.72-6.156a11.837,11.837,0,0,0,1.71-2.438,48.589,48.589,0,0,0,2.129-5.328.167.167,0,0,0,.2.044c2.963-1.228,5.89-2.5,8.8-3.817a49.82,49.82,0,0,1,5.2,7.59.46.46,0,0,0,.617.165q1.5-.853,3-1.7c.254-.143.408-.232.684-.088a10.14,10.14,0,0,1,1.467,1.368C116.97,35.075,116.563,36.962,116.054,38.826Zm1.567-6.729a6.657,6.657,0,0,0-.6-.563c-.406-.356-.915-.826-1.5-.739a5.579,5.579,0,0,0-1.721.883c-.54.309-1.092.617-1.633.926a48.044,48.044,0,0,0-5.35-7.523.415.415,0,0,0-.5-.066c-2.944,1.37-5.89,2.735-8.781,4.225.61-1.741,1.988-5.785,2.14-6.145.912-2.148,1.7-4.346,2.7-6.453,2.9,1.081,5.815,2.126,8.726,3.177a22.656,22.656,0,0,0,4.28,1.268,19.7,19.7,0,0,0,4.623.089.47.47,0,0,0,.264-.1C120.078,21.277,117.77,31.422,117.621,32.1Z" fill="#f28482"></path><path d="M114.389,25.853c-.525-.622-1.243-.416-1.4.033-.011,0-.023-.011-.045,0a1.149,1.149,0,0,0-.661,1.555,1.284,1.284,0,0,0,1.842.442A1.438,1.438,0,0,0,114.389,25.853Z" fill="#e63946"></path><path d="M136.165,71.766a.358.358,0,0,0-.32-.253c-6.806-.459-7.836-1.506-8.086-.949-.192.428-.375.849-.563,1.269a11.579,11.579,0,0,0-1.037-.751.1.1,0,0,1,.011-.055.389.389,0,0,0-.253-.463,14.948,14.948,0,0,0-2.891-.651,9.5,9.5,0,0,0-2.923-.1.22.22,0,0,0-.177.209.307.307,0,0,0-.441.265c.081,1.622.3,3.255.475,4.876.169,1.589,1.161,11.24,1.434,14.473.023.276.377.488.595.254,1.815-1.937,3.564-3.938,5.3-5.957,1.479,0,3-.916,4.27-1.577,1.544-.806,3.066-1.644,4.567-2.527a.346.346,0,0,0,.077-.54c-2.314-2.163-2.183-2.511-2.846-2.736,1.1-1.412,2.2-2.84,3.265-4.291C136.851,71.944,136.463,71.645,136.165,71.766ZM127,72.274c-.5,1.114-1,2.228-1.512,3.342.2-1.368.408-2.724.607-4.092C126.323,71.742,126.4,71.776,127,72.274Zm-5.759,7.589C120.178,69.39,120,70.288,120.1,70.288a25.345,25.345,0,0,1,5.3.905c-.32,2.217-.616,4.436-.949,6.652-.053.353.453.673.64.275,3.016-6.417,1.984-4.339,3.166-6.982a52.229,52.229,0,0,0,7.5,1.092,193.816,193.816,0,0,1-13.724,16.6C121.8,85.843,121.239,79.863,121.239,79.863Zm14.143-.4c-1.28.751-2.569,1.481-3.883,2.185a17.457,17.457,0,0,1-3.707,1.71c1.809-2.119,3.585-4.281,5.306-6.476A14.234,14.234,0,0,0,135.382,79.466Z" fill="#f28482"></path><path d="M97.036,10.784a8.479,8.479,0,0,0-5.086-5.02,7.278,7.278,0,0,0-5.482-.375.241.241,0,0,0-.2-.342c-4.368,0-7.567,4.49-8.185,8.44A10.345,10.345,0,0,0,82.86,23.834a9.519,9.519,0,0,0,14.308-6.1A13.6,13.6,0,0,0,97.036,10.784Zm-.629,5.549a9.075,9.075,0,0,1-2.394,5.35,8.667,8.667,0,0,1-9.641,1.831,9.384,9.384,0,0,1-5.439-8.549c.06-4.2,2.923-8.77,7.314-9.454a4.139,4.139,0,0,0-.882.618c-.344.318.089.818.474.628a6.578,6.578,0,0,1,5.383-.143C95.815,8.322,96.991,11.545,96.407,16.333Z" fill="#f28482"></path><path d="M90.649,11.346c-2.615,1.25-5.184,2.584-7.8,3.817-.375.177-.208.659.1.784,2.636,1.066,5.238,2.279,7.953,3.155a.43.43,0,0,0,.541-.409c.1-2.36.171-4.732.187-7.093C91.634,11.148,91.1,11.131,90.649,11.346Z" fill="#f28482"></path><path d="M99.772,146.406c-.665-1.1-2.12-3.146-2.515-3.685-.187-.254-.4-.723-.684-.871-.579-.3-.849.013-1.3.342a11.253,11.253,0,0,0-2.129,1.765.152.152,0,0,0,0,.209,35.785,35.785,0,0,1,3.6,5.351,3.556,3.556,0,0,0,2.184-1.909.141.141,0,0,1,.254.111,3.355,3.355,0,0,1-2.407,2.235c-1.243.425-2.513.743-3.782,1.1-.055-.479.4-.916-.132-2.118a.125.125,0,0,0-.2-.022,38.266,38.266,0,0,0-4.423,4.247c-.113.131-.342.3-.4.475-.111.275.141.443.319.617.384.374,2.98,2.881,3.056,2.957a2.667,2.667,0,0,1,.32.276,1.036,1.036,0,0,1-.011.319c-.011.155.244.2.276.045.1-.5.195-.994.3-1.5.107-.53.1-1.339.662-1.61.129-.063,1.608-.305,2.934-.563a5.835,5.835,0,0,0,2.35-.662c.618-.451.754-1.344.971-2.03.3-.958.6-1.922.9-2.879A2.364,2.364,0,0,0,99.772,146.406Z" fill="#e63946"></path><path d="M76.319,155.286c1.276.312,3.086.624,4.379.817a2.941,2.941,0,0,0,1.1.132c.627-.194.6-.607.684-1.158a10.576,10.576,0,0,0,.254-2.758.162.162,0,0,0-.143-.155,39.664,39.664,0,0,1-6.322-1.246,3.622,3.622,0,0,0-.187,2.89.138.138,0,0,1-.254.1,3.345,3.345,0,0,1,.188-3.081c.285-.548.958-2.108,1.831-3.648.221.177.311.451.507.673a2.671,2.671,0,0,0,1.093.728.128.128,0,0,0,.165-.121,32.19,32.19,0,0,0,.132-6.123,1.885,1.885,0,0,0-.055-.618c-.124-.274-.408-.211-.662-.209a37.248,37.248,0,0,0-4.247.077,3.052,3.052,0,0,1-.419.033c-.077-.024-.165-.176-.221-.242-.11-.111-.309.033-.22.165.284.421.566.847.849,1.269.3.449.881,1.014.673,1.6s-2.712,3.48-2.879,4.6c-.111.742.163.987,2.14,4.8A2.184,2.184,0,0,0,76.319,155.286Z" fill="#e63946"></path><path d="M82.033,132.076c-.8.914-2.389,3.038-2.736,3.519-.184.256-.561.607-.618.916-.118.64.266.8.717,1.136a11.571,11.571,0,0,0,2.339,1.489.151.151,0,0,0,.2-.066,36.19,36.19,0,0,1,3.453-4.512c.011-.011.011-.022.022-.033.055-.055.1-.11.154-.155a4.815,4.815,0,0,0,.375-.353,3.6,3.6,0,0,0-2.482-1.5.141.141,0,0,1,.022-.276,3.2,3.2,0,0,1,2.705,1.57c.061.106.964,1.178,2.348,3.306a4.751,4.751,0,0,1-.839.144,2.777,2.777,0,0,0-1.147.629c-.065.056-.022.154.033.2A41.951,41.951,0,0,0,91.961,141a1.994,1.994,0,0,0,.574.243c.3.014.373-.266.485-.5.282-.577,1.81-3.652,1.876-3.806a2.139,2.139,0,0,1,.165-.386c.055-.055.232-.066.309-.089.155-.044.111-.3-.044-.275-.506.063-1.015.112-1.522.165-.541.057-1.3.322-1.732-.132a6.349,6.349,0,0,1-.7-1.291c-1.322-2.449-1.461-2.938-2.074-3.376a3.787,3.787,0,0,0-2.229-.3c-1,.007-2.007.011-3.022.011A2.35,2.35,0,0,0,82.033,132.076Z" fill="#e63946"></path><path d="M140.434,102.6a2.858,2.858,0,0,0-1.346-1.434s-3.936-1.02-5.063-1.246L107.3,94.4c.462,1.518.375,1.161.773,2.582a1.743,1.743,0,0,1-1.324,2.151c-5.375,1.132-9.974,2.245-14.764,3.575.088.785.164,2.634.18,3.308a1.908,1.908,0,0,1-.132,1.148.259.259,0,0,1-.442,0,1.929,1.929,0,0,1-.176-1.159c-.074-2.959-.074-2.632-.07-3.119-1.018.286-2.047.582-3.1.891a1.227,1.227,0,0,1-1.5-.739c-.772-1.986-4.058-10.052-4.511-11.186-.1.029-1.076.224-4.137,1.235-1.618.537-15.929,5.247-17.408,6.123-.609.358-.257,1.482.088,1.633,4.728,2.062,27.18,7.226,41.986,10.038,1.172.225,10.677,2.018,11.925,2.052a1.891,1.891,0,0,0,.5-.077c-.115,9.558,2.024,46.788,1.235,66.333-.022.667,1.034.808,1.137.143a75.331,75.331,0,0,0,.64-13.37c-.1-6.331-1.6-53.477-1.622-53.713,2.8-1.3,13.947-5.62,21.048-9.641.945-.535,1.212-.593,1.7.309a7.576,7.576,0,0,1,.552,1.114c1.007,2.643.684,5.7.617,8.649-.275,13.7-2.321,63.58-2.327,63.729A120.954,120.954,0,0,1,121.25,189.97c-2.1,1.4-5,3.289-6.608,3.629-1.486.321-4.238.023-7.876-.364-11.342-1.2-24.584-3.9-36.184-6.465a10.213,10.213,0,0,1-3.276-1.169c-1.467-.916-2.405-2.559-2.868-5.03-.628-3.279-3.1-43.079-3.961-77.85a.414.414,0,0,0-.827,0c-.351,21.371,2.868,71.66,3.309,76.018.53,5.55,2.192,8.109,7.392,9.245,9.677,2.141,32.9,7.016,42.747,7.016,2.26,0,3.418-.594,5.494-1.853a111.848,111.848,0,0,0,21-16.493.57.57,0,0,0-.21-.937c.353-6.078,2.085-55.224,2.228-62.185C141.683,110.044,142.2,105.8,140.434,102.6Z" fill="#f28482"></path><path d="M132.227,29.1c1.018.665,1.129,1.268,1.6,1.82.1.12.352.034.331-.132a2.727,2.727,0,0,0-.916-1.445C132.214,28.368,131.219,28.438,132.227,29.1Z" fill="#f28482"></path><path d="M135.922,33.763c-.187-.21-.485.088-.309.308a2.367,2.367,0,0,1,.464.949c.063.277.007.609.165.839a.173.173,0,0,0,.265.033C136.927,35.414,136.391,34.287,135.922,33.763Z" fill="#f28482"></path><path d="M136.65,39.742a.138.138,0,0,0,.265,0,5.006,5.006,0,0,0,.088-1.49.21.21,0,0,0-.419,0A5.528,5.528,0,0,0,136.65,39.742Z" fill="#f28482"></path><path d="M137.268,42.478a2.782,2.782,0,0,0-.21-.7c-.044-.1-.187-.023-.165.066a8.04,8.04,0,0,1,.11.805,2.374,2.374,0,0,0,.033.662.127.127,0,0,0,.221.033A1.74,1.74,0,0,0,137.268,42.478Z" fill="#f28482"></path><path d="M135.282,49.174c-.121.287-.236.56-.353.849-.057.143.166.232.243.11.167-.264.321-.528.485-.794S135.4,48.887,135.282,49.174Z" fill="#f28482"></path><path d="M133.451,51.755a11.536,11.536,0,0,0-.805,1.114.147.147,0,0,0,.231.177c.312-.317.6-.64.883-.982C133.936,51.854,133.624,51.543,133.451,51.755Z" fill="#f28482"></path><path d="M123.666,47.2a2.161,2.161,0,0,1,.662-.629,3.628,3.628,0,0,0,.684-.408c.181-.181-.283-.431-1,.044a2.465,2.465,0,0,0-.75.761C123.11,47.207,123.509,47.429,123.666,47.2Z" fill="#f28482"></path><path d="M127.461,45.743a6.807,6.807,0,0,0-1.688-.066.182.182,0,0,0,0,.364A6.65,6.65,0,0,0,127.461,46,.131.131,0,0,0,127.461,45.743Z" fill="#f28482"></path><path d="M132.591,48.788a.145.145,0,0,0,.22-.122c-.088-.773-.982-1.378-1.566-1.809a6.16,6.16,0,0,0-2.5-1.114c-.266-.053-.387.354-.111.408a6.191,6.191,0,0,1,2.306.949C131.808,47.7,132.15,48.509,132.591,48.788Z" fill="#f28482"></path><path d="M133.617,50.31a2.252,2.252,0,0,0,.331,1.081.154.154,0,0,0,.253-.066,2.337,2.337,0,0,0-.121-1.136C134.012,49.88,133.567,50.013,133.617,50.31Z" fill="#f28482"></path><path d="M133.97,54.6a8.547,8.547,0,0,0,.044,1.5.2.2,0,0,0,.375,0,8.56,8.56,0,0,0,.066-1.5A.243.243,0,0,0,133.97,54.6Z" fill="#f28482"></path><path d="M133.738,58.892a8.379,8.379,0,0,0-.75,2.538c0,.1.143.187.22.088a8.276,8.276,0,0,0,1-2.5C134.312,58.716,133.841,58.6,133.738,58.892Z" fill="#f28482"></path><path d="M132.006,63.835c-.5,1.209-.593,1.444-.541,1.754.021.121.166.132.254.066.291-.22.334-.534.794-1.677C132.643,63.657,132.134,63.524,132.006,63.835Z" fill="#f28482"></path><path d="M130.671,67.078a5.223,5.223,0,0,0-.794.662.2.2,0,0,0,.243.32,4.988,4.988,0,0,0,.849-.585A.249.249,0,1,0,130.671,67.078Z" fill="#f28482"></path><path d="M126.005,54.028c-.6-.269-1.59-.184-2.173-1.446-.067-.143-.315-.131-.342,0-.053.252.077.377.231.618a2.085,2.085,0,0,0,2.273,1.081A.141.141,0,0,0,126.005,54.028Z" fill="#f28482"></path><path d="M128.421,54.028c-.419.026-.828.067-1.247.11a.224.224,0,1,0,.055.441c.407-.093.819-.169,1.225-.287C128.6,54.251,128.575,54.018,128.421,54.028Z" fill="#f28482"></path><path d="M136.783,46.217c-.062.237-.358.7-.287.96a.083.083,0,0,0,.088.066c.331-.005.463-.43.552-.7a1.39,1.39,0,0,0,.022-1.07.143.143,0,0,0-.243.044A4.9,4.9,0,0,0,136.783,46.217Z" fill="#f28482"></path><path d="M131.432,53.873c-.416-.052-.5.5-1.412.5h-.309a.1.1,0,0,0-.066.165.972.972,0,0,0,.563.21c.4.011,1.282-.315,1.324-.762A.119.119,0,0,0,131.432,53.873Z" fill="#f28482"></path><path d="M122.651,48.9a.132.132,0,0,0-.242-.066,2.232,2.232,0,0,0-.166,1.235.8.8,0,0,0,.265.574.161.161,0,0,0,.231-.088c.067-.265-.094-.518-.11-.784C122.612,49.483,122.676,49.2,122.651,48.9Z" fill="#f28482"></path><path d="M97.61,58.926a8.9,8.9,0,0,0-.486-2.979c-.111-.253-.446-.089-.474.121a15.475,15.475,0,0,0,.11,2.681,29.1,29.1,0,0,1-3.916,16.062c.1-.023,1.048-.24,1.246-.265A28.61,28.61,0,0,0,97.61,58.926Z" fill="#f28482"></path><path d="M107.681,78.341c-.984-1.362-2.723-1.795-4.291-1.986-1.107-.134-2.595-.209-3.111-.209a7.9,7.9,0,0,0,.441.915c2.133.217,4.592.3,6.664,1.567C107.561,78.736,107.811,78.52,107.681,78.341Z" fill="#f28482"></path><path d="M109.479,85.8c-.646-.52-.769-.155-5.306-1.235a3.8,3.8,0,0,1,.5,1.092c1.913.435,2.343.512,3.486.717a2.18,2.18,0,0,0,1.158.044C109.546,86.328,109.722,85.986,109.479,85.8Z" fill="#f28482"></path><path d="M99.187,75.848c-.265-.53-.518-1.116-1.136-1.291a3.523,3.523,0,0,0-1.677.166c-4.986,1.09-11.1,2.487-16.316,4.214a.257.257,0,0,0,.133.5c5.487-1.209,10.894-2.741,16.426-3.8a4.444,4.444,0,0,1,.971-.165c.331.017.429.265.562.529a102.4,102.4,0,0,1,6.906,18.092A34.47,34.47,0,0,0,94.19,88.17c.466-1.465,3.1-9.748,3.618-12.19.064-.3-.388-.552-.529-.231-.918,2.08-1.6,4.339-4.225,12.6a.527.527,0,0,0,.353.64c7.105,2.352,10.056,5.285,12.068,6.674.132.5.254,1,.375,1.511q-8.919,2-17.628,4.777c-1.754-4.831-2.477-6.786-5.979-16.382a51.239,51.239,0,0,0-2.118-5.5c-.211-.419-.841-.121-.74.309a51.665,51.665,0,0,0,1.953,5.659c1.275,3.511,4.193,11.444,6.067,16.7a.52.52,0,0,0,.629.364A189.624,189.624,0,0,1,106.6,98.077a.514.514,0,0,0,.375-.629A102.68,102.68,0,0,0,99.187,75.848Z" fill="#f28482"></path></g></svg>