<svg viewBox="0 0 140 140" height="140" width="140" xmlns="http://www.w3.org/2000/svg"><g transform="matrix(0.7,0,0,0.7,0,0)"><path d="M106.427,58.045c-.6,4.128,2.241,4.993,6.329,5.071-3.544.652-5.48,1.643-7.059,4.616-1.548,2.913-2.571,10.571-2.246,14.474a42.776,42.776,0,0,0-4.506.517C81.9,47.5,100.122,11.364,116.532,26.321c9.018-15.7,36.6-15.912,39-.741,2.57,16.287-22.3,17.1-34.127,14.124-.541,8.075-4.14,12.815-8.427,15.886C111.8,52.431,107.028,53.917,106.427,58.045Zm21.429,17.868a13.227,13.227,0,0,0,.361,5.015c10.429,1.278,17.371,7.493,25.237,9.475-3.468-8.486-8.238-17.591-8.672-32.013C141.85,72.558,137.379,78.458,127.856,75.913Zm-50.044-57.7a1.039,1.039,0,0,0,1.652,1.258c3.212-3.338,10.626-.03,11.117,4.839.552,5.479-7.709,8.334-12.078,5.17a6.529,6.529,0,0,1-2.08-7.913.741.741,0,0,0-1.272-.722c-2.169,2.791-1.324,6.955,1.013,9.351,5.223,5.352,16.091,2.291,16.571-4.83C93.286,17.221,81.3,12.912,77.812,18.212ZM8.3,26.79c-6.8,8.7-2.611,21.711,8.229,23.549-2.253,3.635-1.031,9.21,1.244,12.505,4.2,6.079,11.9,6.92,17.017,1.62.547,5.916,5.552,9.933,11.065,11.213,9.89,2.3,21.95-3.73,20.714-14.468,4.4,2.967,10.056.769,12.556-3.459,4.72-7.982-2.327-21.589-11.04-18.46A21.512,21.512,0,0,0,60.62,19.578c-9.412-7.627-25.655-5.985-31.3,4.963a.9.9,0,0,0,1.461,1c4.7-5.624,10.093-9.3,17.77-8.616a19.182,19.182,0,0,1,17,23.63,1.114,1.114,0,0,0,1.569,1.22c7.189-2.7,11.7,3.946,11.384,10.5-.326,6.853-6.713,10.723-12.2,5.8-.772-.691-2.054-.916-1.936.417.58,6.574-.364,11.229-7.45,14.239-8.49,3.607-21.438-.434-20.134-11,.252-2.059-1.245-2.414-2.21-.556A8.587,8.587,0,0,1,21.773,64c-3.5-2.6-6.088-10.051-3.191-13.634.57-.7.506-1.958-.64-2.086A12.136,12.136,0,0,1,7.186,37.042c-.5-11.247,9.807-15.281,19.437-13.03a.829.829,0,0,0,.592-1.526C21.313,19.07,12.416,21.523,8.3,26.79ZM59.479,59.126a7.923,7.923,0,0,1-8.729,2,7.257,7.257,0,0,1-4.35-7.246c.428-4.28,5.2-7.02,9.15-6.19C60.817,48.8,63.277,54.95,59.479,59.126Zm-3.408-5.658c-1.2-.1-2.89-.026-4.121.006-2.533.066-2.571,2.133.025,2.213,1.229.037,2.927.114,4.121.023A1.121,1.121,0,0,0,56.071,53.468Z" fill="#e63946"></path><path d="M145.691,42.686c-.147-.934-1.626-.84-1.474.1A45.389,45.389,0,0,1,142,65.749c-1.253,3.371-2.861,6.983-5.968,9.036-3.665,2.422-7.619.863-11.386-.383-.739-.244-1.12.966-.428,1.28.8.364,1.633.713,2.487,1.013a19.586,19.586,0,0,0,.64,6.416c.509,1.535,1.806,1.258,1.612-.062a45.3,45.3,0,0,1-.461-5.814c8.853,2.192,13.105-4.778,15.77-13.46A46.583,46.583,0,0,0,145.691,42.686Zm-33.341,13.3a.928.928,0,1,0,1.764-.546c-1.3-3.272-5.638-3.307-7.487-.517-3.741,5.642-.149,10.721,6.442,8.357a.582.582,0,1,0-.243-1.138c-2.917.21-6.333.318-5.633-3.856C107.734,55.066,111.4,53.592,112.35,55.986ZM129.962,54.7c.816-.272,1.419.373.611,1.119-1.237,1.143-4.019.958-4.983-.555-.3-.466.122-.911.674-.7A4.728,4.728,0,0,0,129.962,54.7Zm-.859-9.083c1.848-.015,2.19,1.939.078,2.126a14.229,14.229,0,0,0-5.418,1.378c-.772.332-1.228-.276-.9-.784C123.871,46.772,127.375,45.629,129.1,45.615Zm8.771,8.97a3.837,3.837,0,0,0,3.211-.049c.65-.238,1.093.277.658.837a3.267,3.267,0,0,1-4.5.188A.586.586,0,0,1,137.874,54.585Zm5.333-5.833c.137.475-.3,1.068-.923.574a6.144,6.144,0,0,0-4.231-1.687.952.952,0,0,1-.275-1.869C139.423,45.32,142.736,47.126,143.207,48.752Zm-7.038,8.5a17.642,17.642,0,0,1,1.342,4.837,1.566,1.566,0,0,1-1.217,1.665,8.055,8.055,0,0,1-2.391-.05c-.891-.062-1.307-1.033-.187-1.341a5.008,5.008,0,0,1,1.714,0c.583.047.664-.022.585-.635-.188-1.447-.668-2.767-.864-4.112C135.04,56.859,135.829,56.589,136.169,57.253Zm-2.328,8.528a.586.586,0,0,1-.046,1.106c-1.116.42-3.829.33-4.486,1.02-.549.576-1.613.484-1.8-.279C126.9,65.081,132.783,65.437,133.841,65.781Zm-11.567,88.471c6.771-3.831,7.015-9.328,6.912-16.325-.291-19.7-7.24-38.521-12.067-52.779a11.313,11.313,0,0,1,.058-8.032c.368-.821,1.142-.448,1.007.17a14.3,14.3,0,0,0,.39,7.431c6.105,17.266,12.871,38.247,12.38,56.573-.167,6.194-1.948,11.7-8.045,14.616-3.852,1.844-8.889,2.222-12.746.165-.678-.361-.238-1.5.5-1.265C114.687,156.1,118.46,156.41,122.274,154.252Zm1.636-90.438c1.718.058,1.285,1.413.079,1.49-18.017,1.158-16.466,4.469-16.843,19.122-.4,15.59,0,33.491,1.076,49.05a.65.65,0,0,1-1.3.086,375.957,375.957,0,0,1-1.768-50.92c.254-6.312-.659-14.216,6.312-17.06A30.45,30.45,0,0,1,123.91,63.814Zm-5.086,4.29c-.845-1.187-2.689-.762-3.87-.47a8.113,8.113,0,0,0-3.77,1.931c-.463.465.154,1.384.757,1.076a15.611,15.611,0,0,1,3.171-1.459c.586-.166,2.061-.543,2.8-.092C118.693,69.565,119.371,68.872,118.824,68.1Zm.85,2.234c-1.146-.806-4.971-.329-7.03,1.924a.67.67,0,0,0,.865,1,9.843,9.843,0,0,1,2.92-1.43,4.877,4.877,0,0,1,3.143-.121C120.431,71.925,120.5,70.915,119.674,70.338Zm2.285,5.649a5.174,5.174,0,0,1-1.486,3.245c-.5.41-.934.27-.794-.411a13.49,13.49,0,0,0,.68-2.707c.036-1.867-1.681-1.749-3.109-1.405a14.985,14.985,0,0,0-2.524.993c-.6.265-1.257-.6-.765-1.076C116.133,72.525,121.916,71.589,121.959,75.987ZM173.527,49.1c2,3.25,1.988,2.6,2.737,6.684a86.206,86.206,0,0,1,1.27,20.487c-.265,4.507-2.022,19.554-4.291,23.63-.592,1.062-1.892.812-1.569-.391a122.856,122.856,0,0,0,3.839-23.417,101.994,101.994,0,0,0-1.1-20.01c-.569-4.093-.7-2.961-2.617-6.2-1.971-3.323-3.329-8.175-2.472-11.964.16-.71,1.339-.853,1.38-.008C170.9,42.156,171.267,45.412,173.527,49.1Zm12.788-3.163c4.656,17.364,14.14,62.8,4.56,75.411-2.835,3.73-7.825,6.691-12.625,5.327-1.2-.34-.638-1.982.519-1.8,5.7.88,10.585-3.168,12.577-8.281,5.8-14.895-2.8-55.967-6.242-70.326C184.889,45.36,186.04,44.909,186.315,45.933Zm4.2-10.911c-1.431-.11-3.827,2.037-4.491,2.9a9.731,9.731,0,0,0-1.872,4.634c-.031.663.874.777,1.3.317a23.378,23.378,0,0,1,2.118-3.74,19.556,19.556,0,0,1,3.164-3.218C191.069,35.436,190.975,35.058,190.517,35.022Zm-3.3-6.036c.908-.64,1.85-.385,1.044.961C186.611,32.7,183.6,35.6,182.37,41.808c-.139.7-1.221.519-1.361-.187-.354-1.794.874-5.076,1.674-6.729A20.757,20.757,0,0,1,187.213,28.986Zm-3.831-4.49c.7-.342,1.154-.282.793.731-.272.765-2.744,5.014-3.5,7.2a36.273,36.273,0,0,0-1.606,8.41c-.063.57-1.085.634-1.289.059-.824-2.323.249-6.81,1.042-9.139C179.384,30.113,181.657,25.339,183.382,24.5Zm-5.729-.483c.533-.536,1.537-.8,1.1.568-.959,3-1.9,4.37-2.621,7.9a26.642,26.642,0,0,0-.378,8.707c.113.809-1.145,1.031-1.4.249a18.629,18.629,0,0,1-.139-9.224C174.673,29.863,175.98,25.7,177.653,24.013ZM109.827,159.284c-5.617-13.2-6.76-45.458-6.33-74.7-16.507,0-31.125,15.727-28.082,39.846C77.337,139.656,84.878,154.731,109.827,159.284ZM42.054,40.478c4.15-.248,6.071-2.354,6.064-5.761a5.652,5.652,0,0,0-6.064-5.885C33.161,29.154,34.111,40.952,42.054,40.478ZM124.465,56.86c-2.435,1.17-3.33,3.668-1.627,4.513,1.636.812,2.106-.883,2.093-1.6S124.288,58.27,124.465,56.86ZM170.054,96.6c-18.242-1.426-25.4-9.137-39.073-12.573-1.99,3.281-6.049,4.271-9.365,4.395,5.265,14.248,11.683,35.668,11.583,51.29-.106,16.508-10.048,20.689-20.036,19.574a2.256,2.256,0,0,1-2.23,2.88c-2.367.108-17.687-3.19-22.828-8.827.124,7.805-1.859,23.787-2.478,28.37,10.53,4.956,48.192,6.566,74.579-3.345-.414-31.167-4.982-56.2-13.6-76.22-.728-1.692.871-1.34,1.276-.535,4.537,9.017,8.164,22.821,10.288,32.677,7.766.79,12.613.34,19.586-.139C173.369,124.348,170.487,111.061,170.054,96.6ZM50.909,45.588a12.376,12.376,0,0,0-8.982-3A12.741,12.741,0,0,0,29.232,54.4c3.01.213,8.9.39,14.587.351A9.741,9.741,0,0,1,50.909,45.588Z" fill="#f28482"></path></g></svg>