<svg viewBox="0 0 140 140" height="140" width="140" xmlns="http://www.w3.org/2000/svg"><g transform="matrix(0.7,0,0,0.7,0,0)"><path d="M130.932,89.031c-1.157,3.983,5.615,1.63,7.48-1.36,1.824-2.923,6.988-10.927,9.825-12.31.07-.023.387.293.457.364,1.512,1.594,1.923,4.068,2.544,6.108a13.932,13.932,0,0,1,11.173,6.717c6.3-15.956,12.3-32.018,18.829-47.88.644-1.559,6-16.566-1.63-12.873-3.681,1.782-5.885,6.05-7.843,9.426-3.916,6.753-8.031,13.4-11.888,20.189-1.384,2.438-3.471,8.98-6.249,10.235-1.653.75-2.181-3.717-2.263-4.608-.293-3.118-.129-14.854-4.056-15.487-4.4-.7-6.026,6.249-6.824,9.145C137.5,67.53,134.072,78.228,130.932,89.031Z" fill="#2a9d8f"></path><path d="M131.455,131.265a14.708,14.708,0,0,0,2.919-4.877c6.167-14.388-.469-22.56-8.136-20.728-5.768,1.384-8.781,7.316-11.712,11.842-1,1.535-2.11,2.954-3.2,4.408a5.752,5.752,0,0,1,2.169-.891c2.673-.282,3.869,1.454,3.459,3.869a7.054,7.054,0,0,1,3.306-3.9c2.767-1.185,3.751,2.122,3.482,4.232a4.625,4.625,0,0,1,2.38-.891c4.056-.258,6.155,3.013,5.369,6.706Z" fill="#2a9d8f"></path><path d="M69.3,111.263c5.775-5.715,6.993-14.508,5.463-17.246-.949-1.723-3.564-1.887-5.264-1.5-4.465,1.033-5.337,4.81-11.09,10.422,1.887-.832,3.2.4,3.341,2.275.961-1.114,1.946-2.966,3.529-3.342,1.09-.269,1.829.657,1.946,1.665a5.25,5.25,0,0,1-1.337,3.611A5.657,5.657,0,0,1,69.3,111.31Z" fill="#2a9d8f"></path><path d="M113.125,148.013a13.237,13.237,0,0,1-8.289-1.079c-3.813-2.032-4.831-5.868-3.986-10.2a22.919,22.919,0,0,1,3.236-7.609,55.19,55.19,0,0,1,5.6-7.093c1.306-1.561,1.166-1.931,3.048-4.807,1.419-2.181,2.99-4.291,4.35-6.483,1.441-2.311,2.653-4.6,4.806-6.308,5.177-4.032,14-1.679,15.382,6.671.943,5.734-1.021,15.662-7.445,24.374a34.661,34.661,0,0,1-16.308,12.486C113.309,148.038,113.262,147.967,113.125,148.013Zm-.235-.891c.318-.445,3.629-1.008,8.793-5.311,12.839-10.639,15.985-27.41,12.9-33.272a7.816,7.816,0,0,0-11.56-2.662c-1.851,1.44-3.172,3.9-4.385,5.827-1.881,3.022-4.394,6.2-6.061,9.309a31.291,31.291,0,0,1-3.951,4.947c-3.2,3.86-6.31,8.616-6.448,13.682C102.04,145.328,107.349,147.752,112.89,147.122Z" fill="#023047"></path><path d="M123.743,121.356c2.871,3.393-.449,10.335-5.393,10.669a3.888,3.888,0,0,1-4.08-4.467c.4-1.817,1.6-2.686,2.568-3.927.931-1.108,1.67-2.725,3.06-3.353C121.449,119.5,123.194,120.712,123.743,121.356Zm-3.236.012c-.894.646-1.2,1.759-2.286,3.318-.824,1.081-1.943,2.009-2.18,3.224a2.061,2.061,0,0,0,2.18,2.286c2.491-.163,4.523-2.85,4.819-5.217C123.449,122.575,121.938,120.414,120.507,121.368Z" fill="#023047"></path><path d="M59.3,100.76c2.6-3.77,2.892-9.007,8.687-10.939a5.58,5.58,0,0,1,5.733,1.4c3.142,2.983,3.05,7.481,1.606,11.512C73.3,108.288,67.869,114.6,64.087,117.4c-10.475,7.752-18.459-.48-12.415-8.652,2.133-2.958,5.482-5.376,7.35-7.785A.593.593,0,0,1,59.3,100.76Zm.691.68c-.117.589-3.442,4.065-3.634,4.267-2.037,2.156-4.593,4.851-4.947,7.785-.521,4.119,2.691,5.9,6.483,4.971,4.628-1.113,8.359-5.162,11.325-8.875,2.812-3.52,5.682-8.453,5.217-12.955-.31-3.108-2.811-6.118-5.932-5.17C63.471,92.927,63.074,97.7,60,101.44Z" fill="#023047"></path><path d="M64.859,101.418c1.579-.6,2.639,1.376,2.567,3.095a6.439,6.439,0,0,1-3.951,5.322c-2.505.892-4.964-.854-3.869-3.435a7.77,7.77,0,0,1,2.286-2.532C62.819,103.034,63.466,101.942,64.859,101.418Zm.527.984c-.866.506-1.3,1.64-2.286,2.72-.737.717-1.506,1.2-1.829,1.97-.188.457-.141.8.129.961,1.335.876,4.043-1.212,4.338-3.716C65.966,103.2,65.506,102.282,65.386,102.4Z" fill="#023047"></path><path d="M87.259,106.7a2.173,2.173,0,0,0-2.45-1.583c-2.2.137-3.512,3.885-1.442,5.1C85.324,111.368,87.9,108.755,87.259,106.7Zm-1.512.234a1.867,1.867,0,0,1-.094.41c-.19.858-1.036,1.5-1.36,1.3-.305-.175-.1-.96.094-1.278a3.521,3.521,0,0,1,.715-.844C85.705,106.158,85.747,106.346,85.747,106.937Z" fill="#023047"></path><path d="M93.73,108.626a2.173,2.173,0,0,0-2.45-1.582c-2.2.137-3.512,3.884-1.443,5.1C91.794,113.292,94.368,110.678,93.73,108.626Zm-1.513.235a1.863,1.863,0,0,1-.093.41c-.191.858-1.036,1.5-1.36,1.3-.306-.174-.1-.959.093-1.277a3.5,3.5,0,0,1,.716-.844C92.175,108.082,92.217,108.269,92.217,108.861Z" fill="#023047"></path><path d="M100.789,110.979a2.173,2.173,0,0,0-2.45-1.582c-2.2.137-3.512,3.884-1.443,5.1C98.853,115.645,101.427,113.031,100.789,110.979Zm-1.513.235a1.863,1.863,0,0,1-.093.41c-.191.858-1.036,1.5-1.36,1.3-.306-.174-.1-.959.093-1.277a3.5,3.5,0,0,1,.716-.844C99.234,110.435,99.276,110.622,99.276,111.214Z" fill="#023047"></path><path d="M109.3,99.682c-.563-.246-1.608-.754-2.618-1.1a5.608,5.608,0,0,0,.5-.968c.274-.787.479-1.283.082-1.547-.473-.323-1.412.645-1.571.82a11.244,11.244,0,0,0-.786,1.146c-1.548-.457-5.253-1.464-8.4-2.2a19.786,19.786,0,0,0-4.162-.668.553.553,0,1,0-.188,1.09c4.082,1.2-2.987-.488,11.819,3.394a11.462,11.462,0,0,0-.626,1.326c-.045.154-.351,1.335.076,1.548.345.182,1.269-.576,1.589-1.044.2-.3.374-.612.8-1.367a24.6,24.6,0,0,0,3.253.458.478.478,0,0,0,.563-.329A.468.468,0,0,0,109.3,99.682Z" fill="#023047"></path><path d="M79.6,75.37c-2.615.059-4.631,3.119-4.983,5.464-.258,1.618.516,3.576,2.45,3.47,2.6-.141,4.35-3.986,4.678-6.19.211-1.5-.293-3.33-2.157-2.931Z" fill="#2a9d8f"></path><path d="M79.321,74.812a.421.421,0,0,1,.164-.07,2.107,2.107,0,0,1,2.2.41c2.468,2.227-.526,9.843-4.572,10.06-2.466.132-3.77-2.208-3.4-4.514C74.232,77.69,76.545,74.851,79.321,74.812Zm.751.833c-.253.442-.566.051-1.7.738A7.272,7.272,0,0,0,75.5,80.967c-.178,1.16.291,2.5,1.513,2.427C79.778,83.236,82.408,76.019,80.072,75.645Z" fill="#023047"></path><path d="M144.742,84.884c2.538,2.12.126,9.446-4.678,11.689-2.1.973-5.1,1.255-5.2-1.606Z" fill="#2a9d8f"></path><path d="M144.387,85.3c1.96,2.03-1.221,10.811-7.035,11.079-1.1.085-1.854-.318-2.04-1.43a.457.457,0,0,0-.914.035c-.405,4.388,6.358,4.282,10.059-1.079a11.664,11.664,0,0,0,2.157-5.979,4.1,4.1,0,0,0-1.524-3.47.549.549,0,1,0-.7.844Z" fill="#023047"></path><path d="M91.019,124.777c-2.63-.751-3.984-1.417-14.924-4.912a.9.9,0,0,1-.422-1.442c1.453-1.744,3.011-3.766,4.373-5.627a.908.908,0,0,1,.938-.352c5.626,1.338,10.2,2.774,16.038,4.654a.865.865,0,0,1,.375,1.407c-1.33,1.389-3.362,3.978-5.557,6.261A.542.542,0,0,1,91.019,124.777Zm-9.859-10.41c-1.37,1.853-2.258,2.977-3.248,4.185,10.693,3.564,7.487,2.828,13.283,5.264,1.465-1.868,2.473-3.479,4.08-5.452C90.746,116.958,85.8,115.456,81.16,114.367Z" fill="#023047"></path><path d="M103.807,63.7c-1.071-3.59-.507-2.067-2.029-6.635-5.9-17.014-7.252-20.272-8.892-23.681a4.41,4.41,0,0,0,.605-.21c.3-.132,1.143-.617.984-1.161-.142-.489-.961-.656-1.664-.481a6.766,6.766,0,0,0-.985.282c-.937.334-2.5.947-2.028,1.887.225.452,1.216.333,1.688.164.086-.03.171-.064.257-.095,2.053,6.471,8.764,24.913,9.109,25.745.535,1.306,1.483,3.259,2.111,4.514a.446.446,0,0,0,.586.258A.451.451,0,0,0,103.807,63.7Z" fill="#023047"></path><path d="M194.922,53.757a14.643,14.643,0,0,0-1.407-2.966c-1.067-1.6-2.4-.939-1.466.938.165.418.361.815.549,1.211-.49.207-.976.4-1.469.632-1.474.638-9.853,5.48-12.392,7.281a31.241,31.241,0,0,0-2.462,2.016.557.557,0,0,0-.129.774.544.544,0,0,0,.762.129c1.032-.56,2.158-1.115,3.083-1.677,11.7-6.859,11.322-6.722,13.084-8.187.338.654.951,1.656,1.612,1.338C195.3,54.953,194.947,53.858,194.922,53.757Z" fill="#023047"></path><path d="M102.85,74.856c1.661-3.1,1.681-3.961,7.55-3.259,4.091.466,8.985,1.469,13.436,2.133,1.806.252,5.012.2,6.94,1.055,1.079.453,1.317.893,1.36,1.818a14.107,14.107,0,0,1-.281,2.755.454.454,0,0,0,.328.563.465.465,0,0,0,.551-.329c.648-1.918,1.292-3.944.129-5.346-2.025-2.176-6.279-1.938-8.758-2.321-4.339-.634-14.068-2.586-17.269-2.286a4.639,4.639,0,0,0-3.986,2.321,15.129,15.129,0,0,0-1,2.45.553.553,0,0,0,.27.727A.559.559,0,0,0,102.85,74.856Z" fill="#023047"></path><path d="M42.172,74.865c.621.821,1.958,2.31,1.629,3.459-.211.727-1.852.6-2.345.621-2.283.133-11.606.375-11.348,2.755.164,1.466,2.368,3.412,3.189,4.467,8.921,11.4,9.776,12.163,10.164,13.717.293,1.219-.4,2.251-1.348,1.559-9.555-6.917-19.087-13.869-28.325-21.208C12.5,79.2,5.616,74.009,6.531,72.251c1.536-2.99,9.7-2.673,13.025-3.482-3.27-4.68-6.238-11.106-10.844-20.236a58.087,58.087,0,0,1-3.295-7.8c-.551-1.571-1.161-5.417,1.735-4.8,2.446.518,6.457,5.84,8.77,8.066,3.482,3.365,6.413,7.409,9.543,11.1C26.33,56.126,41.718,74.249,42.172,74.865Z" fill="#2a9d8f"></path><path d="M167.708,96.681c-2.847-4.744-6.059-10.823-11.091-13.541-3.336-1.785-7.812-1.974-11.395-2.427a.456.456,0,0,0-.13.9c3.467.406,8.114.855,10.986,2.5,4.69,2.606,7.791,8.651,10.446,13.248,2.975,5.23,4.6,7.674,1.336,19.157-5.137,18.25-17.419,33.833-31.2,46.743-4.147,3.883-14.2,12.982-19.62,14.846,1.22-2.22,1.056-4.714.945-7.208-.15-3.659-.621-7.691-3.041-10.5,6.057-1.386,10.627-7.733,14.247-11.674,10.889-11.975,19.349-25.622,26.531-40.272,2.854-5.915,6-13.488,3.564-19.673a.549.549,0,0,0-1.032.376c1.846,5.481-1.154,12.444-3.687,17.652-12.068-5.408-22.547-7.6-36.586-10.94a73.482,73.482,0,0,0,4.783-13.02.551.551,0,0,0-1.056-.316,114.3,114.3,0,0,1-5.49,12.915c-.724-.174-3.314-.833-6.646-1.681a6.621,6.621,0,0,0-7.049-7.308c-.034-.98-.2-2.788-.286-3.444-.073-.73-.471-2.219-1.113-2.145s-.669,1.364-.669,2.017c.01.507.187,2.959.322,3.792A7.291,7.291,0,0,0,95.8,90.273c-1.977-.495-3.733-.931-5.052-1.251a45.879,45.879,0,0,0,3.224-11.064.566.566,0,0,0-.422-.656.549.549,0,0,0-.657.421A59.672,59.672,0,0,1,89.024,88.61c-8.248-1.969-10.95-2.476-15.045-3.266-2.59-.457-5.111-1.149-7.679-1.653-2.615-.49-2.411-.285-2.337-.481,2.6-6.831,4.168-14.051,9.672-12.791,19.469,4.5,37.2,9.192,57.4,10.318a.54.54,0,0,0,.586-.5.549.549,0,0,0-.516-.586,222.437,222.437,0,0,1-33.235-5.2c.605-1.426,1.141-3.539,1.977-5.209a4.191,4.191,0,0,1,3.669-2.662c3.175-.5,16.693,1.233,19.872,1.712,4.137.591,10.7.319,12.932,2.849a.451.451,0,0,0,.715-.551c-2.524-3.755-10.293-3.595-13.377-4.08-5.438-.841-10.131-1.306-15.605-1.723a21.386,21.386,0,0,0-4.818.035c-5.443.853-5.166,5.442-6.469,9.382-7.48-1.684-14.978-3.569-22.745-5.433a5.956,5.956,0,0,0-5.135.95c-4.613,3.381-4.469,11-11.935,24.128A70.982,70.982,0,0,1,40.527,113.9c-2.787,2.448-7.454,5.269-6.853,10.4.019.629,1.172,4.691,1.2,4.792,1.744,5.438,2.752,10.994,7.4,14.573,4.322,3.312,9.006,5.119,13.471,7.9,11.3,6.979,47.177,25.1,54.305,27.985a8.622,8.622,0,0,0,3.931.767c3.236.371,6.8-1.837,9.492-3.716a136.456,136.456,0,0,0,14.42-12.029c14.14-13.306,26.344-28.9,31.526-47.622C172.665,105.113,170.922,102.145,167.708,96.681Zm-65.286-8.408c2.691-.13,4.862,1.17,5.9,5.174-3.492-.889-7.587-1.93-11.164-2.831A8.084,8.084,0,0,1,102.422,88.273ZM89.975,90.678c6.568,1.605,23.5,5.977,25.42,6.44-1.407,2.813-2.883,5.591-4.372,8.342-1.162-.487-2.76-1.136-3.923-1.517-1.594-.548-7.394-2.311-11.455-3.388a65.306,65.306,0,0,0-10.131-2.127A79.292,79.292,0,0,0,89.975,90.678Zm20.5,15.789C105,116.556,100.715,124.193,93.221,133c-.886-.446-1.769-.908-2.676-1.337-2.1-1-22.686-9.808-22.791-9.848,6.388-6.12,12.192-14.734,17.045-22.27,3.537.979,3.743,1.079,6,1.609C100.812,103.683,104.829,105.371,110.478,106.467Zm3.471,52.929c-2.248-1.971-5.106-2.975-7.861-4.183-.233-.1-30.344-14.074-36.133-17.305-8.728-4.843-17.387-8.876-25.98-13.658-2.351-1.31-5.92-3.08-8.4-2.043.75-3.021,3.765-4.869,6.138-6.944a76.43,76.43,0,0,0,11.6-12.415A90.175,90.175,0,0,0,63.5,84.4c3.222.548,6.924,1.791,10.16,2.512,1.935.41,14.513,3.326,14.554,3.336A193.487,193.487,0,0,1,72.348,114.1a92.092,92.092,0,0,1-13.014,13.178.441.441,0,0,0-.105.633.467.467,0,0,0,.633.105,61.976,61.976,0,0,0,6.883-5.263c5.6,3.195,19.741,9.452,25.738,11.1-1.071,1.223-2.878,3.209-4.079,4.307a.453.453,0,0,0,.6.681c9.182-7.175,15.718-18,21.279-28.22,2.334-4.3,4.745-8.628,6.9-13.075,8.692,2.071,25.416,5.761,36.947,10.154-6.994,14.218-15.706,28.181-26.262,39.828C123.741,152.119,119.47,158.2,113.949,159.4Z" fill="#023047"></path><path d="M85.459,103.106a3.87,3.87,0,0,0,2.45.645c.246-.032.491-.048.574-.294s-.1-.4-.293-.574a3.394,3.394,0,0,0-2.438-.832c-.3.016-.592.08-.68.375S85.211,102.929,85.459,103.106Z" fill="#023047"></path><path d="M91.853,105.218a5.029,5.029,0,0,0,2.978.727c.253-.039.5-.072.563-.316s-.116-.4-.317-.563a5.3,5.3,0,0,0-2.931-.914C91.364,104.171,91.194,104.814,91.853,105.218Z" fill="#023047"></path><path d="M100.108,107.68a4.5,4.5,0,0,0,2.614.634c.259-.024.5-.06.575-.294s-.1-.4-.293-.574c-.939-.847-3.157-1.221-3.33-.422C99.608,107.327,99.848,107.533,100.108,107.68Z" fill="#023047"></path><path d="M165.213,100.415c.156,6.715-5.265,16.4-8.617,22.451-10.053,18.355-18.23,28.148-27.375,36.649a99.475,99.475,0,0,1-8.875,7.281.457.457,0,0,0,.5.762,75.8,75.8,0,0,0,17.738-15.018c7.691-8.617,13.94-18.512,19.579-28.806,3.472-6.384,8.627-15.485,8.148-23.354A.551.551,0,0,0,165.213,100.415Z" fill="#023047"></path><path d="M143.955,39.217c.269-5.538,0-9.03,0-13.407a.875.875,0,0,0-.528-.821c-4.089-1.871-8.23-3.312-11.993-5.252a.913.913,0,0,0-1.325.832c.359,11.643.426,11.512.623,15.019-3.372-2.809-9.3-.946-9.379,4.015a5.594,5.594,0,1,0,10.8-2.02c.136-3.713.083-6.677-.024-10.209a12.4,12.4,0,0,0,1.987,1.119c.449.219,5.958,2.858,7.07,3.248.275.1.862.262,1.126.324.112,2.64.224,3.72.386,6.07a4.984,4.984,0,0,0-6.844,2.03,4.7,4.7,0,0,0,7.679,5.135A4.629,4.629,0,0,0,143.955,39.217Zm-9.617-12.576a13.016,13.016,0,0,0-2.258-.786c-.041-1.276-.084-2.553-.121-3.832,2.761,1.359,6.949,2.93,10.2,4.373.02,1.362.048,2.719.092,4.075C141.069,29.68,134.988,26.927,134.338,26.641Z" fill="#023047"></path><path d="M66.257,40.08c-1.386-5.3-2.925-8.257-4.889-12.931A.911.911,0,0,0,60.5,26.6c-4.62.214-9.149.341-13.811,1.02a.912.912,0,0,0-.668,1.336c2.269,4.133,3.486,7.765,5.878,12.063a5.778,5.778,0,0,0-1.706-.2,4.476,4.476,0,0,0-3.353,7.714,4.711,4.711,0,0,0,6.7,0,4.651,4.651,0,0,0,.438-6.063c-2-4.585-3.6-9.023-5.748-13.224,3.51-.446,8.283-.661,11.736-.82.68,1.571,3.783,8.439,3.834,8.555a4.743,4.743,0,0,0-1.837-.278,3.89,3.89,0,0,0-2.931,6.718,4.131,4.131,0,0,0,7.054-2.76A.559.559,0,0,0,66.257,40.08Z" fill="#023047"></path></g></svg>