<svg viewBox="0 0 140 140" height="140" width="140" xmlns="http://www.w3.org/2000/svg"><g transform="matrix(0.7,0,0,0.7,0,0)"><path d="M142.783,87.868l-29.021,3.868a.908.908,0,0,0-.781.9v20.683a.912.912,0,0,0,1.042.9l28.459-4.57a.919.919,0,0,0,.762-.861l.561-19.982A.917.917,0,0,0,142.783,87.868ZM127.11,110.114c-4.309.212-8.957-2.666-9.72-7.135-.86-5.03,3.527-9.92,8.658-10.341,4.89-.4,9.979,3.267,10.181,8.357C136.428,106.006,131.78,109.885,127.11,110.114Z" fill="#2a9d8f"></path><path d="M167.074,90.674c-2.657,0-4.652-2.773-4.189-5.432a4.59,4.59,0,0,1,4.029-3.808,4.657,4.657,0,0,1,4.709,4.69A4.709,4.709,0,0,1,167.074,90.674Zm-.1-8.117a3.425,3.425,0,0,0-2.966,2.866,3.5,3.5,0,0,0,2.585,4.048,3.545,3.545,0,0,0,3.888-3.407A3.473,3.473,0,0,0,166.974,82.557Z" fill="#2a9d8f"></path><path d="M161.783,96.546a.574.574,0,0,1-.481-.862,7.109,7.109,0,0,1,11.243-1.323.567.567,0,1,1-.821.782,6.158,6.158,0,0,0-4.851-1.8,6.349,6.349,0,0,0-4.589,2.906A.6.6,0,0,1,161.783,96.546Z" fill="#2a9d8f"></path><path d="M123.082,106.587c.08-3.087.22-6.152.26-9.239,0-.141.1-.241.2-.181,2.766,1.323,5.563,2.642,8.317,3.989a.244.244,0,0,1,.02.38c-2.829,1.8-5.712,3.508-8.578,5.251C123.182,106.848,123.062,106.747,123.082,106.587Z" fill="#2a9d8f"></path><path d="M185.613,73.538l-36.156,3.988a.671.671,0,0,0-.6.662v30.984a.665.665,0,0,0,1.122.481c6.638-6.275,6.247-5.931,6.534-5.972l27.537-3.968a.666.666,0,0,0,.582-.622l1.723-24.872A.658.658,0,0,0,185.613,73.538Zm-7.576,17.276a11.575,11.575,0,0,1-9.58,8.658c-5.271.7-11.142-2.425-12.466-7.9-1.441-5.953,3.329-11.295,8.057-12.927.3-.1,7.092-2.4,11.544,2.124C179.438,84.683,178.178,90.233,178.037,90.814Zm2.826-11.725a1.42,1.42,0,0,1-1.283-1.2,1.519,1.519,0,0,1,1.744-1.5,1.428,1.428,0,0,1,1.162,1.4A1.488,1.488,0,0,1,180.863,79.089Z" fill="#2a9d8f"></path><path d="M91.135,54.879a5.772,5.772,0,0,0-1.022-1.323c.02-1.082.059-2.285.18-3.567a15.492,15.492,0,0,0-4.83-13.048,17.818,17.818,0,0,0-14.711-4.449C60.371,34.159,56.7,40.467,54.679,45.78a21.064,21.064,0,0,0-1.3,8.237c-2.325.521-3.562,5.027-3.147,8.4.064.52.605,4.754,3.087,5.351,1.626.391,3.185-1.024,3.467-1.283,2.454-2.257,2.775-6.74.8-9.72a7.659,7.659,0,0,0-2.666-2.546A19.4,19.4,0,0,1,56.1,46.3c2-5.232,5.332-10.775,14.891-12.326a16.213,16.213,0,0,1,13.428,4.069A14.043,14.043,0,0,1,88.79,49.828c-.1,1.162-.14,2.2-.16,3.187-.281,3.387-.562,6.774-.842,10.181A5.819,5.819,0,0,0,91.135,54.879Z" fill="#2a9d8f"></path><path d="M75.362,52.714a1.49,1.49,0,0,1-1.764-1.4,1.384,1.384,0,1,1,2.766.1A1.382,1.382,0,0,1,75.362,52.714Z" fill="#2a9d8f"></path><path d="M123.022,85.523a1.688,1.688,0,0,0,1.423,1.844,1.72,1.72,0,1,0-1.423-1.844Z" fill="#023047"></path><path d="M129.515,84.441a.577.577,0,0,0,1.123-.261,6.517,6.517,0,0,0-6.354-5.01,6.394,6.394,0,0,0-5.772,4.289.555.555,0,0,0,.341.721.56.56,0,0,0,.722-.341,5.152,5.152,0,0,1,9.94.6Z" fill="#023047"></path><path d="M132.943,80.993a.571.571,0,1,0,.982-.581c-.139-.221-3.327-5.431-9.561-5.431h-.02c-6.253.02-9.414,5.234-9.54,5.451a.573.573,0,0,0,.2.782.543.543,0,0,0,.761-.2c.021-.039,2.947-4.89,8.558-4.89h.02A10.519,10.519,0,0,1,132.943,80.993Z" fill="#023047"></path><path d="M110.676,77.987a17.256,17.256,0,0,1,13.147-6.614H124c8.417,0,13.176,6.4,13.708,7.135a.555.555,0,0,0,.461.241.572.572,0,0,0,.461-.9c-.554-.787-5.651-7.616-14.63-7.616a18.194,18.194,0,0,0-14.21,7.055.579.579,0,0,0,.1.8A.532.532,0,0,0,110.676,77.987Z" fill="#023047"></path><path d="M49.748,71.834c1.005.739,3.548,2.566,4.71,3.407-.06,1.584-.08,3.347-.1,5.171-1.724.541-4.931,1.421-5.271,1.563-3.136,1.32-6.43,3.529-7.676,6.855-1.419,3.789.7,7.977,3.227,10.782,1.462,1.624,3.623,3.166,2.886,5.632-1.311,4.387-8.537,13.145,2.625,16.294,11.144,3.144,17.657-4.69,17.657-10.963,0-4.569-2.164-8.016-6.393-11.243A16.189,16.189,0,0,0,77.306,92.3c.682.2,1.383.4,2.065.661,11.734,4.457,22.558,11.409,28.259,23.009A72.8,72.8,0,0,1,112,128.553a34.737,34.737,0,0,1-.381-3.988c-2.51-16.53-15.04-28.071-30.885-33.27A39.486,39.486,0,0,0,68.508,89.07c-.222,0-.215-.106-.221-.32-.05-2.067-.233-4.13-.38-6.173a9.546,9.546,0,0,0-.481-3.488,8.046,8.046,0,0,0-.361,2.666c-.108,1.968-.162,5.173-.261,6.353-.148,1.785.663,2.556,2.385,2.606a22.152,22.152,0,0,1,4.33.621c.857.2,1.743.381,2.625.641-1.764,2.486-7.015,8.137-16.915,5.813-.762-.5-1.562-.984-2.425-1.484-3.443-1.991-1.538-5.236-.9-8.938,1.385-8.068.2-17.519-.722-17.477-.1-.1-6.483-.684-6.553-9.7a9.42,9.42,0,0,1,3.527-7.656.162.162,0,0,0,.08-.181c-.12-1.6-.838-19.09,21.285-20.863a.232.232,0,0,0,.02-.461c-6.909-1.626-20.145-4.491-28.62,8.5A24.1,24.1,0,0,0,49.748,71.834ZM56.2,118.953c.678-.368,1.4-.685,2.064-1.1a8.972,8.972,0,0,0,3.928-5.492,9.351,9.351,0,0,0-2.144-8.217,6.99,6.99,0,0,0-.962-.942,4.544,4.544,0,0,0-.822-.641c-.96-.677-.8-.962.461-.722,4.377,1.095,6.194,5.951,5.732,9.921-.312,2.684-1.683,4.549-3.607,6.373-1.764,1.082-3.608,1.884-5.732,1.423C55.48,119.354,55.839,119.15,56.2,118.953Z" fill="#023047"></path><path d="M62.9,73.157c-.243-.136-.421-.22-.481-.18-.14.06.069.51.782,1.362a11.449,11.449,0,0,0,10.762,3.788c4.557-.914,9-4.549,11.123-11.5a29.96,29.96,0,0,0,1.123-11.3c-.26-2.067-.6-2.245-.842-.181-.666,5.752-1.623,12.186-5.432,16.815a11.213,11.213,0,0,1-14.47,2.887A26.44,26.44,0,0,1,62.9,73.157Z" fill="#023047"></path><path d="M73.578,65.461c-1.051.555-.055.97,1.143,1.122,1.043.133,1.945-.019,2.264-1.2a13.129,13.129,0,0,0-.22-4.67c-.407-2.765-1.131-4.112-1.624-3.006s-.561,4.249-.14,7.034c.02.081.02.181.04.241A6.213,6.213,0,0,0,73.578,65.461Z" fill="#023047"></path><path d="M79.37,57.925c.05.782.4,1.384.8,1.343.381-.039.671-.7.621-1.483s-.4-1.384-.8-1.343C79.611,56.481,79.32,57.144,79.37,57.925Z" fill="#023047"></path><path d="M68.387,59.108c.051.8.421,1.423.822,1.383s.692-.723.642-1.524-.421-1.423-.822-1.383S68.337,58.307,68.387,59.108Z" fill="#023047"></path><path d="M65.241,55.741c-.39,1.36.939,1.821,1.242,1.423,3.334-4.375,5.734.781,5.312-.9C70.476,51.009,65.632,54.375,65.241,55.741Z" fill="#023047"></path><path d="M82.9,56.141c.318.383,1.623-.1,1.2-1.443s-5.342-4.547-6.533.7C77.189,57.064,79.389,51.931,82.9,56.141Z" fill="#023047"></path><path d="M71.434,68.407a.969.969,0,0,0-1.523.782c.039,1.022,3.864,4.34,6.373.862C77.091,68.932,73.592,72.107,71.434,68.407Z" fill="#023047"></path><path d="M71.213,35.819C55.4,39.012,56.6,53.656,56.6,53.656a23.353,23.353,0,0,0,20.9-12.145c.6,7.395,10.5,9.279,10.5,9.279a20.6,20.6,0,0,0-1.142-6.553A13.57,13.57,0,0,0,71.213,35.819Zm2.245,4.509a9.713,9.713,0,0,1-2,3.989c-2.646,3.425-6.736,5.485-8.839,5.631-.861.061-.852-.249-.22-.8,1.231-1.075,4.4-2.849,7.7-6.313,1.2-1.263,2.084-2.406,2.665-2.967S73.59,39.488,73.458,40.328Z" fill="#023047"></path><path d="M192.567,106.767c-5,.95-52.709,13.6-53.572,14.751-.726.971-1.541,8.547-4.229,28.34l-33.109,9.279a2.516,2.516,0,0,0-1.764.06,2.821,2.821,0,0,0-1.142,2.6c-.038,1.762-.23,3.8,1.483,4.249.226.059,26.172,3.882,31.546,4.41,1.824.179,3.866-.709,5.632-1.163.11-.028,44.545-11.431,47.3-12.165,1.16-.31,2.364-.381,2.785-1.684.033-.1,6.466-35.168,7.476-47.239C195.115,106.5,194.1,106.478,192.567,106.767ZM132.2,168.717c-5.512-.7-30.962-3.491-31.686-4.089-.539-.444-.4-1.443-.4-2.044,0-.561-.2-1.963.581-2.064,2.125-.277,19.861,2.667,23.168,3.106,18.388,2.444-1.328-1.015-19.581-4.028l30.284-8.478C133.684,157.834,132.882,163.727,132.2,168.717Zm23.69-43.732c-10.593,3.065-6.292,1.778-11.369,3.2a.892.892,0,0,0-.645.758c-.281,2.478-.939,9.272-1.615,12.752-.83,4.268-1.338-1.011-.521-11.824.051-.682.049-1.369.16-2.065.184-1.153.153-1.127,2.285-1.763,5-1.493,17.538-4.838,22.707-5.472C171.219,120.046,166.265,121.984,155.891,124.985Z" fill="#023047"></path><path d="M94.883,147.352c.348,0-4.73-3.678-13.609.321-6.608,2.976-9.225,6.645-19.621,10.161-33.238,11.244-55.96-6.222-54.514-29.181.829-13.161,10.139-27.679,24.892-33.69,3.8-1.548,6.113-1.884,6.253-2.1.081-.08-.338-.059-1.322.04-.5.051-1.121.17-1.884.321C21.009,96,7.4,110,5.255,126.749c-3.276,25.542,21.758,44.876,56.218,33.029a51.647,51.647,0,0,0,11.344-5.411c5.087-3.312,9.647-6.96,15.492-7.676C92.431,146.186,94.552,147.463,94.883,147.352Z" fill="#023047"></path><path d="M85.343,142.562c3.85-.765,5.834.433,7.756.481.7.018.912-.23.421-.741-2.55-2.655-8.408-3.314-11.664-.02-.489.494-.441.818.26.8A19.039,19.039,0,0,0,85.343,142.562Z" fill="#023047"></path><path d="M78.368,138.013c.585.374,1.786-.052,2.385-.181,3.4-.727,6.992-1.177,10.7-.1.767.223,1.083.12.581-.6a6.264,6.264,0,0,0-3.848-2.205c-2.8-.66-8.393.305-9.8,2.566C78.188,137.752,78.209,137.911,78.368,138.013Z" fill="#023047"></path><path d="M41.331,139.436c-2.554-.5-6.559-1.3-8.638-2.425-1.2-.649-1.744-1.243-1.924-1.2-.141,0,.084.717,1.242,1.744a15.549,15.549,0,0,0,5.472,2.625,67.417,67.417,0,0,0,29,2.405.936.936,0,0,0,.809-1.02c-.283-2.911-.348-6.08,1.616-8.76a8.005,8.005,0,0,1,4.55-3.107c1.322-.3,2.145-.16,2.245-.32.06-.06-.077-.169-.421-.3-1.886-.72-5.44.052-7.8,3.006a12.834,12.834,0,0,0-2.325,8.538,84.291,84.291,0,0,1-21.706-.822c-1.252-1.67-.121-7.489-1.062-9.64-.281-.641-.581-.681-.842-.08C40.722,131.989,40.11,136.689,41.331,139.436Z" fill="#023047"></path><path d="M124.364,145.989c1.022-.244,3.395-.318,3.107-1.9-.167-.92-1.6-1.381-2.325-1.783-1.144-.639-15.293-8.534-17.076-8.819-1.615-.258-7.168,1.37-7.8,1.564a6.579,6.579,0,0,0-2.605,1.142c-.02.16.721.02,2.485-.261.637-.1,6.854-1.062,7.576-.9,1.12.25,15.432,8.679,15.833,8.9-4.389.942-22.944,5.031-27.839,5.973-.359.069-.541.16-.8.08-1.624-.642-2.986-1.724-4.63-2.325-.85-.259-1.122-.231-.4.28a46.832,46.832,0,0,0,4.349,3.087,4,4,0,0,0,2.526.06C101.235,150.414,122.8,146.364,124.364,145.989Z" fill="#023047"></path><path d="M85.4,133.644,79.491,123.2a1.726,1.726,0,0,0-2.405-.541l-.882.561a1.736,1.736,0,0,0-.381,2.585l6.293,8.418A7.014,7.014,0,0,1,85.4,133.644Z" fill="#023047"></path><path d="M97.288,145.589a.588.588,0,0,0,.721.38c1.5-.5,7.729-1.433,18.239-3.427a.579.579,0,0,0,.461-.661.572.572,0,0,0-.662-.461c-8.132,1.493-16.587,2.88-18.4,3.467A.54.54,0,0,0,97.288,145.589Z" fill="#023047"></path><path d="M99.933,141.119c3.241-.552,5.147-1.246,9.4-2a.57.57,0,0,0-.2-1.122c-3.8.668-5.276,1.228-9.42,2a.576.576,0,0,0,.1,1.142A.254.254,0,0,1,99.933,141.119Z" fill="#023047"></path></g></svg>